<svg width="23" height="33" viewBox="0 0 23 33" fill="none" xmlns="http://www.w3.org/2000/svg">
<g id="arcticons:yelp">
<path id="Vector" d="M8.93122 20.0111L9.7918 19.7258C9.80953 19.7196 9.83972 19.71 9.87613 19.6928C10.1136 19.6009 10.317 19.3805 10.4436 19.078C10.5703 18.7754 10.6102 18.4142 10.5551 18.0703L10.5513 18.0483C10.523 17.8834 10.4734 17.7277 10.4051 17.589C10.3088 17.4135 10.1895 17.2666 10.0539 17.1566C9.8943 17.0261 9.72727 16.9152 9.55461 16.8252L8.61113 16.3309C8.08165 16.049 7.55217 15.7733 7.0179 15.5045C6.67147 15.3278 6.37774 15.1725 6.12234 15.059C6.07442 15.0384 6.02124 15.0164 5.97811 14.9951C5.74965 14.8817 5.51094 14.8164 5.26942 14.8012C5.14695 14.7947 5.02497 14.8266 4.91197 14.8947C4.79396 14.9676 4.68799 15.0753 4.60099 15.211C4.5578 15.2815 4.51717 15.3551 4.47928 15.4316C4.44386 15.5098 4.41139 15.5905 4.38201 15.6736C4.34938 15.7627 4.32136 15.8551 4.29815 15.95C4.1231 16.6928 4.03597 17.4725 4.04036 18.2566C3.99914 19.0246 4.09824 19.7947 4.32786 20.491C4.3933 20.6492 4.48112 20.7859 4.58565 20.8925C4.76324 21.0511 4.96872 21.1336 5.1779 21.1303C5.47949 21.1372 5.78009 21.0791 6.06963 20.9578L8.92834 20.0097L8.93122 20.0111ZM18.5313 13.4565C18.2965 12.7489 17.9806 12.1029 17.5969 11.5452C17.5473 11.4744 17.4941 11.4089 17.4379 11.3493C17.3858 11.2935 17.3317 11.2416 17.2759 11.1939C17.2187 11.1488 17.1598 11.1082 17.0996 11.0722C16.9803 11.0049 16.8524 10.9744 16.7244 10.9828C16.6019 10.9928 16.4824 11.0409 16.3741 11.1238C16.1619 11.2899 15.9673 11.4987 15.7962 11.7439C15.7637 11.7906 15.7224 11.8429 15.686 11.8924C15.491 12.1557 15.2739 12.4795 15.0162 12.857C14.6178 13.4345 14.2243 14.0165 13.8355 14.6032L13.1378 15.6413C13.01 15.8308 12.8937 16.0355 12.7899 16.2532C12.7015 16.4376 12.639 16.645 12.6059 16.8637C12.5867 17.0312 12.5895 17.2023 12.6141 17.3683L12.6179 17.3903C12.6731 17.734 12.819 18.0336 13.025 18.226C13.231 18.4183 13.4811 18.4885 13.7224 18.4216C13.7512 18.4158 13.7799 18.408 13.8082 18.3982L17.5284 17.1648C17.8258 17.0918 18.1138 16.9551 18.3828 16.7592C18.5719 16.6307 18.7315 16.4272 18.8428 16.1728C18.9044 16.0113 18.9418 15.8331 18.9525 15.6496C18.9478 14.8783 18.8029 14.1221 18.5313 13.4565ZM11.8723 15.7011C12.0926 15.1553 12.1947 14.5278 12.1656 13.8985C12.2466 11.9199 12.3319 9.94127 12.3999 7.96127C12.4453 7.21493 12.4623 6.46558 12.4507 5.71659C12.4785 5.0704 12.3732 4.42678 12.1479 3.86584C11.6639 2.96384 10.6313 3.03809 9.92692 3.17834C9.7113 3.22096 9.49472 3.27871 9.28005 3.35296C9.06538 3.42721 8.85359 3.50696 8.64611 3.60252C7.97049 3.92015 7.0203 4.50315 6.85882 5.62102C6.8272 6.26669 6.92851 6.91146 7.15015 7.47521C7.36797 8.15588 7.61159 8.81893 7.87992 9.4614C8.54501 11.198 9.22255 12.9236 9.89865 14.652C10.064 15.2354 10.3466 15.7351 10.7104 16.0875C10.7362 16.1037 10.7626 16.1179 10.7894 16.1301C10.9644 16.2254 11.1553 16.2438 11.3376 16.1831L11.3702 16.1721C11.5387 16.1065 11.6913 15.9751 11.811 15.7926C11.8325 15.7636 11.853 15.7331 11.8723 15.7011ZM11.5494 20.9976C11.4441 20.7853 11.2947 20.6262 11.1226 20.5431C10.9504 20.46 10.7644 20.4571 10.591 20.535C10.5503 20.5542 10.5106 20.5776 10.4722 20.6051C10.4129 20.6484 10.3563 20.699 10.3031 20.7563C10.1509 20.9283 10.0149 21.128 9.89865 21.3503C9.87068 21.4119 9.83944 21.4703 9.80522 21.525L9.20674 22.7061C8.86749 23.3675 8.53303 24.0309 8.20144 24.7046C7.98486 25.1398 7.79799 25.5076 7.64992 25.8321C7.62165 25.894 7.59242 25.9621 7.56607 26.0164C7.42541 26.3041 7.31453 26.6195 7.23688 26.9528C7.19819 27.1227 7.18593 27.3027 7.20095 27.4801C7.2174 27.6652 7.26083 27.8432 7.3284 28.0026C7.36434 28.0821 7.40304 28.159 7.44436 28.2329C7.48725 28.3045 7.53284 28.3727 7.58092 28.4371C7.63217 28.5072 7.68694 28.5717 7.7448 28.6303C8.15838 29.0331 8.61003 29.3489 9.08599 29.568C9.48171 29.7565 9.89302 29.8693 10.3093 29.9035C10.3802 29.9086 10.4513 29.9063 10.522 29.8966C10.6539 29.8836 10.7838 29.8436 10.9078 29.7777C11.0293 29.7126 11.14 29.6116 11.2327 29.4814C11.3205 29.3551 11.388 29.2028 11.4305 29.0352C11.5129 28.7043 11.5617 28.3582 11.5753 28.0074C11.5777 27.9414 11.5844 27.8616 11.5892 27.7888C11.6126 27.4017 11.6232 26.9473 11.6409 26.4131C11.6697 25.5915 11.6931 24.7727 11.7109 23.9518L11.7492 22.493C11.7649 22.1427 11.7436 21.7911 11.6859 21.45C11.6574 21.2898 11.6113 21.1371 11.5494 20.9976ZM18.3042 23.2808C18.1326 23.0307 17.9371 22.8171 17.7234 22.6463C17.6832 22.614 17.6358 22.5706 17.5926 22.5335C17.3598 22.3328 17.0799 22.1217 16.7531 21.8666C16.2514 21.4723 15.7471 21.0845 15.2404 20.7034L14.3439 20.0207C14.2964 19.9932 14.2504 19.9606 14.2064 19.9231C14.034 19.7965 13.8508 19.7026 13.6615 19.644C13.5963 19.626 13.5301 19.6161 13.4637 19.6144C13.4207 19.6136 13.3778 19.6173 13.3352 19.6254C13.1558 19.6653 12.9898 19.7854 12.8607 19.9686C12.7317 20.1518 12.6462 20.3887 12.6165 20.6456C12.603 20.809 12.6074 20.9744 12.6294 21.1358C12.6814 21.4786 12.7691 21.8082 12.8896 22.1135L13.3688 23.4011C13.6352 24.1276 13.9061 24.8504 14.1814 25.5695C14.3597 26.0384 14.5082 26.4406 14.6472 26.7733C14.6735 26.8359 14.7033 26.904 14.7258 26.9617C14.845 27.2682 14.9941 27.5488 15.1685 27.795C15.2579 27.9184 15.365 28.0122 15.4824 28.07C15.6057 28.129 15.7363 28.1501 15.8657 28.1318C15.9313 28.1206 15.9964 28.1043 16.0607 28.083C16.1244 28.0587 16.1871 28.0296 16.2486 27.9957C16.3149 27.9599 16.3793 27.9172 16.4412 27.8678C16.8053 27.5748 17.1409 27.2142 17.4393 26.7953C17.8002 26.2987 18.11 25.7309 18.3593 25.1089C18.3935 25.0195 18.4231 24.9267 18.4479 24.8311C18.4712 24.7428 18.4914 24.6529 18.5083 24.5616C18.5229 24.469 18.5341 24.3754 18.5419 24.2811C18.5541 24.0959 18.5391 23.9089 18.4978 23.7325C18.4572 23.5635 18.3908 23.4093 18.3042 23.2808Z" stroke="#F50D0D" stroke-linecap="round" stroke-linejoin="round"/>
</g>
</svg>
