<svg width="25" height="25" viewBox="0 0 25 25" fill="none" xmlns="http://www.w3.org/2000/svg">
<g id="Bag">
<path id="Vector" fill-rule="evenodd" clip-rule="evenodd" d="M7.7982 22.3953H16.4939C19.6879 22.3953 22.1383 21.2415 21.4424 16.5982L20.6319 10.3052C20.2028 7.98829 18.725 7.10156 17.4282 7.10156H6.82566C5.50986 7.10156 4.1178 8.05504 3.62199 10.3052L2.81154 16.5982C2.2204 20.7171 4.60407 22.3953 7.7982 22.3953Z" stroke="#1D1E20" stroke-width="1.5" stroke-linecap="round" stroke-linejoin="round"/>
<path id="Vector_2" d="M7.65527 6.87347C7.65527 4.38798 9.67016 2.37309 12.1556 2.37309C13.3525 2.36801 14.5021 2.83992 15.3502 3.68446C16.1983 4.52899 16.6751 5.67659 16.6751 6.87347" stroke="#1D1E20" stroke-width="1.5" stroke-linecap="round" stroke-linejoin="round"/>
<path id="Vector_3" d="M9.06641 11.5645H9.11408" stroke="#1D1E20" stroke-width="1.5" stroke-linecap="round" stroke-linejoin="round"/>
<path id="Vector_4" d="M15.1401 11.5645H15.1878" stroke="#1D1E20" stroke-width="1.5" stroke-linecap="round" stroke-linejoin="round"/>
</g>
</svg>
