<svg width="17" height="21" viewBox="0 0 17 21" fill="none" xmlns="http://www.w3.org/2000/svg">
<g id="carbon:security">
<path id="Vector" d="M7.4375 10.8872L6.06156 9.1875L5.3125 10.1128L7.4375 12.7378L11.6875 7.48781L10.9384 6.5625L7.4375 10.8872Z" fill="black"/>
<path id="Vector_2" d="M8.5 19.6875L5.219 17.5265C4.28365 16.9118 3.50145 15.994 2.95637 14.8718C2.41128 13.7495 2.12388 12.465 2.125 11.1562V2.625C2.12528 2.27701 2.23732 1.94337 2.43651 1.69731C2.63571 1.45124 2.9058 1.31285 3.1875 1.3125H13.8125C14.0942 1.31285 14.3643 1.45124 14.5635 1.69731C14.7627 1.94337 14.8747 2.27701 14.875 2.625V11.1562C14.8761 12.465 14.5887 13.7495 14.0436 14.8718C13.4986 15.994 12.7164 16.9118 11.781 17.5265L8.5 19.6875ZM3.1875 2.625V11.1562C3.18662 12.2271 3.42184 13.2781 3.86791 14.1963C4.31398 15.1145 4.95406 15.8653 5.71944 16.3682L8.5 18.1998L11.2806 16.3688C12.046 15.866 12.6862 15.115 13.1322 14.1967C13.5783 13.2783 13.8135 12.2272 13.8125 11.1562V2.625H3.1875Z" fill="black"/>
</g>
</svg>
