<svg width="32" height="32" viewBox="0 0 32 32" fill="none" xmlns="http://www.w3.org/2000/svg">
<g id="cib:apple-pay" clip-path="url(#clip0_1_7192)">
<path id="Vector" d="M5.84902 11.047C5.47302 11.495 4.87402 11.85 4.27602 11.798C4.19702 11.194 4.49502 10.547 4.83902 10.146C5.21402 9.68898 5.87002 9.36098 6.40202 9.33398C6.46502 9.96498 6.21802 10.585 5.84902 11.047ZM6.39602 11.917C5.52702 11.864 4.78102 12.416 4.36902 12.416C3.94802 12.416 3.31702 11.943 2.63002 11.959C1.73902 11.97 0.906024 12.479 0.453024 13.298C-0.489976 14.927 0.208024 17.339 1.11402 18.667C1.55702 19.323 2.08702 20.042 2.78602 20.022C3.44702 19.995 3.71302 19.585 4.51002 19.585C5.31702 19.585 5.54602 20.022 6.25002 20.006C6.97302 19.995 7.43102 19.35 7.87402 18.694C8.37902 17.949 8.58702 17.219 8.59802 17.183C8.58702 17.167 7.19702 16.631 7.18702 15.016C7.17602 13.661 8.28002 13.016 8.32702 12.979C7.70702 12.042 6.72802 11.943 6.39502 11.918L6.39602 11.917ZM11.412 10.083V19.938H12.927V16.569H15.022C16.933 16.569 18.277 15.241 18.277 13.324C18.277 11.403 16.96 10.084 15.074 10.084L11.412 10.083ZM12.927 11.375H14.672C15.984 11.375 16.735 12.083 16.735 13.328C16.735 14.573 15.984 15.287 14.662 15.287H12.927V11.375ZM21.036 20.011C21.989 20.011 22.869 19.527 23.271 18.755H23.303V19.938H24.703V15.031C24.703 13.615 23.579 12.694 21.844 12.694C20.24 12.694 19.052 13.626 19.011 14.902H20.37C20.485 14.293 21.037 13.897 21.803 13.897C22.73 13.897 23.246 14.334 23.246 15.137V15.678L21.361 15.793C19.6 15.902 18.652 16.626 18.652 17.892C18.652 19.168 19.632 20.012 21.037 20.012L21.036 20.011ZM21.448 18.844C20.64 18.844 20.125 18.453 20.125 17.855C20.125 17.235 20.62 16.87 21.562 16.812L23.245 16.708V17.265C23.245 18.188 22.469 18.844 21.442 18.844H21.448ZM26.573 22.62C28.046 22.62 28.74 22.047 29.344 20.323L32 12.792H30.464L28.683 18.609H28.651L26.87 12.792H25.287L27.85 19.964L27.714 20.401C27.479 21.136 27.105 21.421 26.438 21.421C26.318 21.421 26.089 21.406 25.995 21.396V22.579C26.083 22.604 26.459 22.615 26.568 22.615L26.573 22.62Z" fill="black"/>
</g>
<defs>
<clipPath id="clip0_1_7192">
<rect width="32" height="32" fill="white"/>
</clipPath>
</defs>
</svg>
