<svg width="15" height="15" viewBox="0 0 15 15" fill="none" xmlns="http://www.w3.org/2000/svg">
<g id="Edit Square">
<path id="Vector" d="M7.18249 1.74287H4.84562C2.92374 1.74287 1.71875 3.1035 1.71875 5.02975V10.226C1.71875 12.1522 2.91812 13.5129 4.84562 13.5129H10.3606C12.2887 13.5129 13.4881 12.1522 13.4881 10.226V7.7085M9.47805 2.87632L12.3318 5.73007M5.51717 6.82531L10.1878 2.15469C10.7697 1.57344 11.7128 1.57344 12.2947 2.15469L13.0553 2.91531C13.6372 3.49719 13.6372 4.44094 13.0553 5.02219L8.36217 9.71531C8.1078 9.96969 7.7628 10.1128 7.4028 10.1128H5.06155L5.1203 7.75031C5.12905 7.40281 5.27092 7.07156 5.51717 6.82531Z" stroke="#FEFEFE" stroke-width="1.2" stroke-linecap="round" stroke-linejoin="round"/>
</g>
</svg>
