<svg width="23" height="23" viewBox="0 0 23 23" fill="none" xmlns="http://www.w3.org/2000/svg">
<path d="M20.9662 0.441406H1.22438C0.548171 0.441406 0 0.99017 0 1.6671V21.4303C0 22.1072 0.548171 22.656 1.22438 22.656H20.9662C21.6425 22.656 22.1906 22.1072 22.1906 21.4303V1.6671C22.1906 0.99017 21.6425 0.441406 20.9662 0.441406Z" fill="#3D5A98"/>
<path d="M13.3488 21.3022V12.6998H16.2325L16.6638 9.34739H13.3488V7.20758C13.3488 6.23716 13.6188 5.57457 15.0081 5.57457H16.7819V2.57133C15.923 2.48172 15.0598 2.43911 14.1962 2.44369C11.6425 2.44369 9.88375 4.00162 9.88375 6.87535V9.34739H7V12.6998H9.88375V21.3022H13.3488Z" fill="white"/>
</svg>
