<svg width="30" height="30" viewBox="0 0 30 30" fill="none" xmlns="http://www.w3.org/2000/svg">
<g id="Frame" clip-path="url(#clip0_1_7196)">
<path id="Vector" d="M27.7775 19.7104L27.4963 18.3041H24.3538L23.8538 19.7004L21.335 19.7054C22.5341 16.8218 23.7358 13.9393 24.94 11.0579C25.145 10.5691 25.5088 10.3204 26.045 10.3229C26.455 10.3266 27.1237 10.3266 28.0525 10.3241L30 19.7066L27.7775 19.7104ZM25.0612 16.3779H27.0863L26.33 12.8529L25.0612 16.3779ZM8.825 10.3216L11.3575 10.3241L7.4425 19.7116L4.87875 19.7091C4.23406 17.2295 3.59739 14.7479 2.96875 12.2641C2.84375 11.7691 2.59625 11.4229 2.12 11.2591C1.69625 11.1129 0.99 10.8879 0 10.5816V10.3254H4.04625C4.74625 10.3254 5.155 10.6641 5.28625 11.3591C5.41875 12.0554 5.75125 13.8279 6.28625 16.6766L8.825 10.3216ZM14.8375 10.3241L12.835 19.7091L10.425 19.7066L12.425 10.3216L14.8375 10.3241ZM19.725 10.1504C20.4462 10.1504 21.355 10.3754 21.8775 10.5816L21.455 12.5279C20.9825 12.3379 20.205 12.0816 19.5513 12.0904C18.6012 12.1066 18.0138 12.5054 18.0138 12.8879C18.0138 13.5104 19.0337 13.8241 20.0837 14.5041C21.2825 15.2791 21.44 15.9754 21.425 16.7316C21.4087 18.3016 20.0837 19.8504 17.2887 19.8504C16.0138 19.8316 15.5538 19.7241 14.5138 19.3554L14.9538 17.3241C16.0125 17.7679 16.4613 17.9091 17.3662 17.9091C18.195 17.9091 18.9062 17.5741 18.9125 16.9904C18.9175 16.5754 18.6625 16.3691 17.7325 15.8566C16.8025 15.3429 15.4975 14.6316 15.515 13.2041C15.5362 11.3766 17.2675 10.1504 19.7262 10.1504H19.725Z" fill="#3D93F8"/>
</g>
<defs>
<clipPath id="clip0_1_7196">
<rect width="30" height="30" fill="white"/>
</clipPath>
</defs>
</svg>
