<svg width="38" height="28" viewBox="0 0 38 28" fill="none" xmlns="http://www.w3.org/2000/svg">
<g id="flat-color-icons:google">
<path id="Vector" d="M34.5252 11.7157H33.2498V11.6673H18.9998V16.334H27.948C26.6426 19.0506 23.1347 21.0007 18.9998 21.0007C13.7535 21.0007 9.49984 17.8664 9.49984 14.0007C9.49984 10.1349 13.7535 7.00065 18.9998 7.00065C21.4215 7.00065 23.6248 7.67382 25.3023 8.7734L29.7808 5.47348C26.9529 3.53157 23.1703 2.33398 18.9998 2.33398C10.2559 2.33398 3.1665 7.55773 3.1665 14.0007C3.1665 20.4436 10.2559 25.6673 18.9998 25.6673C27.7438 25.6673 34.8332 20.4436 34.8332 14.0007C34.8332 13.2184 34.7239 12.4548 34.5252 11.7157Z" fill="#FFC107"/>
<path id="Vector_2" d="M4.99219 8.5704L10.1942 11.3815C11.6018 8.81365 15.0107 7.00065 18.9999 7.00065C21.4216 7.00065 23.6249 7.67382 25.3024 8.7734L29.7809 5.47348C26.953 3.53157 23.1704 2.33398 18.9999 2.33398C12.9184 2.33398 7.64427 4.8639 4.99219 8.5704Z" fill="#FF3D00"/>
<path id="Vector_3" d="M18.9999 25.6671C23.0897 25.6671 26.8058 24.5138 29.6154 22.6384L24.715 19.5829C23.0719 20.5036 21.0642 21.0016 18.9999 21.0004C14.8817 21.0004 11.3849 19.0655 10.0675 16.3652L4.9043 19.2965C7.52471 23.0747 12.8463 25.6671 18.9999 25.6671Z" fill="#4CAF50"/>
<path id="Vector_4" d="M34.5254 11.7144H33.25V11.666H19V16.3327H27.9482C27.3237 17.6256 26.1989 18.7554 24.7127 19.5824L24.715 19.5813L29.6155 22.6368C29.2687 22.8689 34.8333 19.8327 34.8333 13.9993C34.8333 13.2171 34.7241 12.4535 34.5254 11.7144Z" fill="#1976D2"/>
</g>
</svg>
