<svg width="38" height="36" viewBox="0 0 38 36" fill="none" xmlns="http://www.w3.org/2000/svg">
<path d="M34.5252 15.0623H33.2498V15H18.9998V21H27.948C26.6426 24.4928 23.1347 27 18.9998 27C13.7535 27 9.49984 22.9702 9.49984 18C9.49984 13.0297 13.7535 9 18.9998 9C21.4215 9 23.6248 9.8655 25.3023 11.2792L29.7808 7.0365C26.9529 4.53975 23.1703 3 18.9998 3C10.2559 3 3.1665 9.71625 3.1665 18C3.1665 26.2838 10.2559 33 18.9998 33C27.7438 33 34.8332 26.2838 34.8332 18C34.8332 16.9943 34.7239 16.0125 34.5252 15.0623Z" fill="#FBC02D"/>
<path d="M4.99219 11.0182L10.1942 14.6325C11.6018 11.331 15.0107 9 18.9999 9C21.4216 9 23.6249 9.8655 25.3024 11.2792L29.7809 7.0365C26.953 4.53975 23.1704 3 18.9999 3C12.9184 3 7.64427 6.25275 4.99219 11.0182Z" fill="#E53935"/>
<path d="M18.9999 33C23.0897 33 26.8058 31.5172 29.6154 29.106L24.715 25.1775C23.1253 26.3182 21.1493 27 18.9999 27C14.8817 27 11.3849 24.5122 10.0675 21.0405L4.9043 24.8092C7.52471 29.667 12.8463 33 18.9999 33Z" fill="#4CAF50"/>
<path d="M34.5254 15.0623L34.5127 15H33.25H19V21H27.9482C27.3212 22.6778 26.182 24.1245 24.7127 25.1782L24.715 25.1768L29.6155 29.1052C29.2687 29.4037 34.8333 25.5 34.8333 18C34.8333 16.9943 34.7241 16.0125 34.5254 15.0623Z" fill="#1565C0"/>
</svg>
