<svg width="40" height="56" viewBox="0 0 40 56" fill="none" xmlns="http://www.w3.org/2000/svg">
<path d="M28.1522 32.6924L24.8772 15.846C24.5105 13.9599 23.1027 12.5822 21.7393 12.7744L15.6394 13.634L13.5225 2.74449C13.4966 2.61162 13.4249 2.49319 13.331 2.4293C13.2364 2.36463 13.1317 2.36343 13.0518 2.42432L1.53778 11.1661C1.43782 11.2422 1.3932 11.4019 1.42557 11.5684L9.80071 54.6494C9.8267 54.7832 9.89828 54.9007 9.99275 54.9645C10.0511 55.0042 10.1132 55.0202 10.1712 55.0121C10.2068 55.007 10.2412 54.9924 10.2713 54.9696L21.7854 46.2278C21.8855 46.1525 21.93 45.992 21.8978 45.8264L21.7418 45.024L26.5461 44.3469C26.7077 44.3241 26.8029 44.1245 26.7597 43.9019L25.3398 36.5982L26.3432 36.4568C27.7067 36.2647 28.5183 34.5759 28.1522 32.6924ZM8.72079 35.7908C8.87948 35.8651 9.04216 35.9104 9.20538 35.9255L9.79849 38.9764C9.62104 38.9376 9.44772 38.8441 9.28656 38.7011L8.72079 35.7908ZM9.80763 35.9399C10.3137 36.053 10.7772 36.594 10.9146 37.3006C11.052 38.0073 10.818 38.6475 10.3816 38.8925L9.80763 35.9399ZM9.04418 35.0963C8.86674 35.0575 8.69342 34.9641 8.53226 34.821L8.08994 32.5458C8.18837 32.3661 8.31708 32.2301 8.47053 32.1455L9.04418 35.0963ZM9.47509 39.6709C9.63361 39.7443 9.79646 39.7905 9.95951 39.8047L10.0404 40.2206C10.0836 40.4432 10.2491 40.6051 10.4107 40.5824C10.5717 40.5597 10.6671 40.361 10.6238 40.1384L10.543 39.7225C11.3012 39.4179 11.7225 38.3728 11.498 37.2184C11.2736 36.064 10.4793 35.1902 9.64627 35.1099L9.05416 32.0642C9.56002 32.1764 10.0237 32.7182 10.1611 33.4249C10.2044 33.6475 10.37 33.8103 10.531 33.7876C10.6927 33.7648 10.7879 33.5653 10.7446 33.3426C10.5202 32.1882 9.72584 31.3144 8.8928 31.2341L8.81196 30.8183C8.76868 30.5957 8.6032 30.4337 8.4422 30.4564C8.28058 30.4792 8.18522 30.6779 8.22849 30.9005L8.30934 31.3164C8.16038 31.3746 8.0237 31.463 7.90158 31.5768L7.6119 30.0868C7.84506 29.9901 8.08429 29.9147 8.33016 29.88C10.5785 29.5632 12.8992 31.8343 13.5035 34.943C14.1084 38.0543 12.7715 40.8436 10.5231 41.1604C10.2772 41.1951 10.0221 41.1885 9.76493 41.1618L9.47509 39.6709ZM9.92378 41.9789C10.1802 41.9986 10.4339 42.001 10.6798 41.9663C13.2501 41.6041 14.7782 38.4164 14.087 34.8608C13.3961 31.3069 10.7429 28.7103 8.17316 29.0725C7.92729 29.1071 7.68819 29.1798 7.45272 29.2679L7.03976 27.1437L19.1614 25.4354C19.5649 26.8217 20.5885 27.8227 21.639 27.8608L23.886 39.419C23.4095 39.5766 23.0119 39.9491 22.7496 40.4958C22.4894 41.0439 22.3894 41.7069 22.4584 42.3948L10.3367 44.1031L9.92378 41.9789ZM24.2943 15.9282L24.513 17.0533L5.59641 19.7192L4.86961 15.9807L21.8961 13.5811C22.9382 13.4342 24.0142 14.4873 24.2943 15.9282ZM21.2612 45.6324L10.2694 53.977L2.06254 11.7614L13.0544 3.41679L15.0566 13.7162L14.0176 13.8626L12.6283 6.71593C12.6021 6.58133 12.5297 6.463 12.4346 6.39928C12.3395 6.33556 12.2343 6.33531 12.1538 6.39897L3.86893 12.9571C3.77118 13.0347 3.7281 13.1923 3.75997 13.3562L10.9913 50.5538C11.0175 50.6884 11.0905 50.8066 11.1856 50.8703C11.243 50.9083 11.3043 50.9236 11.3617 50.9155C11.3991 50.9103 11.4341 50.8956 11.4658 50.8707L18.2291 45.519L21.1589 45.1061L21.2612 45.6324ZM26.0979 43.5812L18.0193 44.7197C18.0193 44.7197 18.0186 44.7198 18.018 44.7199L10.6583 45.7571L10.4936 44.9099L22.8879 43.1631C23.0489 43.1404 23.1443 42.9417 23.101 42.7191C22.9811 42.1022 23.0429 41.4934 23.274 41.0069C23.5063 40.523 23.8811 40.222 24.3298 40.1587C24.4908 40.136 24.5862 39.9373 24.5429 39.7147L22.1491 27.4015C22.1059 27.1789 21.9402 27.0161 21.7792 27.0388C20.8526 27.1694 19.8963 26.2342 19.6472 24.953C19.6039 24.7304 19.4383 24.5676 19.2773 24.5902L6.88293 26.337L6.71838 25.4906L22.158 23.3147L26.0979 43.5812ZM23.898 29.1815C24.7697 29.2563 25.6034 30.168 25.8377 31.3734C26.0726 32.5813 25.6285 33.6739 24.8317 33.9848L23.898 29.1815ZM24.9901 34.7993C26.1083 34.4369 26.742 32.9444 26.4206 31.2912C26.0995 29.6398 24.9351 28.4024 23.7394 28.3662L22.6629 22.8286C22.6197 22.606 22.4542 22.4441 22.2926 22.4669L6.56155 24.6838L6.43524 24.0341L25.3519 21.3682L27.5693 32.7746C27.8489 34.2129 27.2285 35.5032 26.1864 35.6501L25.183 35.7915L24.9901 34.7993Z" fill="black"/>
<mask id="mask0_264_1876" style="mask-type:luminance" maskUnits="userSpaceOnUse" x="26" y="14" width="14" height="11">
<path d="M26 16.3525L38.3218 14.7032L39.9869 22.8381L27.665 24.4875L26 16.3525Z" fill="white"/>
</mask>
<g mask="url(#mask0_264_1876)">
<path d="M39.155 18.9789C39.1559 18.9706 39.1561 18.9624 39.1562 18.9533C39.1595 18.9057 39.1577 18.8561 39.1474 18.8057C39.1371 18.7554 39.119 18.7079 39.0971 18.6646C39.0928 18.6561 39.0897 18.6474 39.0856 18.6398C39.0632 18.6002 39.0372 18.5647 39.0082 18.5341C39.0017 18.5277 38.9962 18.523 38.9899 18.5175C38.9789 18.5081 38.9694 18.4966 38.958 18.4882L34.7212 15.3913C34.5619 15.2747 34.3855 15.341 34.328 15.5383C34.2705 15.7356 34.3523 15.9895 34.5116 16.1061L37.861 18.5543L27.1302 19.9909C26.9667 20.0128 26.8726 20.215 26.9192 20.4428C26.9659 20.6706 27.1357 20.8384 27.2991 20.8165L38.03 19.3799L35.8345 22.5704C35.7301 22.7223 35.7538 22.984 35.8869 23.1558C35.9675 23.2584 36.0692 23.3056 36.1607 23.2933C36.2206 23.2853 36.276 23.2516 36.3175 23.1916L39.0946 19.1557C39.1022 19.1456 39.1073 19.1322 39.1131 19.1197C39.1169 19.1128 39.1209 19.1068 39.1239 19.0992C39.1391 19.0627 39.1496 19.0222 39.155 18.9789Z" fill="black"/>
</g>
<path d="M27.082 32.5537L37.9999 30.9188L35.6801 34.0805C35.5705 34.2309 35.5861 34.4859 35.7165 34.6506C35.7945 34.7491 35.8962 34.7929 35.9893 34.779C36.051 34.7697 36.108 34.7356 36.1519 34.6762L39.0862 30.6768C39.0943 30.6668 39.0998 30.6536 39.1061 30.6412C39.1101 30.6344 39.1143 30.6285 39.1175 30.621C39.1347 30.5849 39.1466 30.5452 39.1527 30.5029C39.1537 30.4939 39.1542 30.4859 39.1547 30.4779C39.1594 30.4314 39.1597 30.3828 39.1508 30.3339C39.1418 30.285 39.1242 30.2392 39.104 30.1973C39.0999 30.1891 39.0964 30.1808 39.0924 30.1734C39.0715 30.1351 39.0462 30.101 39.0177 30.0718C39.0113 30.0657 39.0051 30.0605 38.9982 30.0553C38.988 30.0463 38.9787 30.0353 38.9682 30.0281L34.7647 27.094C34.6071 26.9828 34.4264 27.0513 34.3623 27.2451C34.2973 27.4381 34.3728 27.6851 34.5309 27.7954L37.8549 30.1155L26.9351 31.7507C26.7688 31.7756 26.6676 31.9758 26.7081 32.1972C26.7486 32.4185 26.9163 32.5785 27.082 32.5537Z" fill="black"/>
<path d="M34.1494 42.0916C34.1404 42.0427 34.1228 41.9969 34.1026 41.955C34.0985 41.9468 34.095 41.9385 34.091 41.9312C34.0701 41.8929 34.0448 41.8588 34.0157 41.8296C34.01 41.8234 34.0039 41.819 33.9976 41.8138C33.9874 41.8048 33.9775 41.7939 33.9662 41.7859L29.7639 38.8552C29.6059 38.7449 29.4258 38.8133 29.3616 39.0071C29.2969 39.201 29.3722 39.4471 29.5303 39.5574L32.8524 41.8742L21.9338 43.5093C21.7682 43.5341 21.6668 43.7335 21.7073 43.9548C21.7478 44.1761 21.9149 44.3362 22.0806 44.3114L32.9992 42.6764L30.6794 45.8381C30.5697 45.9885 30.5854 46.2435 30.7158 46.4082C30.7938 46.5067 30.8955 46.5505 30.9886 46.5366C31.0502 46.5274 31.1073 46.4933 31.1512 46.4338L34.0855 42.4344C34.0935 42.4244 34.0984 42.4113 34.1047 42.3989C34.1087 42.3921 34.1129 42.3862 34.1168 42.3786C34.1339 42.3425 34.1453 42.3038 34.1519 42.2605C34.1531 42.2524 34.1536 42.2444 34.1539 42.2355C34.158 42.1891 34.1583 42.1405 34.1494 42.0916Z" fill="black"/>
</svg>
