<svg width="44" height="32" viewBox="0 0 44 32" fill="none" xmlns="http://www.w3.org/2000/svg">
<path d="M28.8775 27.9033C28.3315 27.9029 27.7387 27.8683 27.1979 27.9161C25.5303 28.0638 24.4415 28.9922 23.9408 30.1478C23.5934 30.9496 23.427 31.98 22.0212 31.9997C19.4283 32.0363 20.8169 28.3831 16.8449 27.9356C16.4117 27.8867 15.9578 27.9047 15.5202 27.9053H5.31442C5.02012 27.9044 4.68294 27.9231 4.3936 27.8817C2.9823 27.6793 1.95744 26.8264 1.76028 25.7586C1.71661 25.5222 1.73844 25.2641 1.73793 25.0245L1.73093 3.18678C0.194548 3.03498 -0.591153 1.63922 0.525385 0.790355C1.41698 0.112512 2.78043 0.102855 3.95662 0.0511442L6.44877 0.0022384L38.7785 0.00217053C39.2114 0.00299228 39.6673 -0.0128698 40.0966 0.0305098L40.8924 0.0854318C42.0247 0.177529 43.4982 0.414187 43.9095 1.3419C44.2468 2.10307 43.6007 2.85679 42.6411 3.11178C42.5103 3.14654 42.367 3.1549 42.2328 3.18658L42.2433 24.9687C42.2432 25.2743 42.297 25.675 42.1756 25.9674C41.5967 27.3631 40.4611 27.9002 38.6302 27.9049L28.8775 27.9033ZM8.03418 1.13291L6.75019 1.13705C6.23194 1.13916 5.74084 1.1977 5.22743 1.21416C4.53723 1.23628 1.92387 1.14425 1.55057 1.59445C1.30935 1.88534 1.89274 2.06062 2.16212 2.11978C2.50285 2.19461 2.98072 2.16527 3.3356 2.16543L40.7323 2.16432C41.0361 2.164 41.4978 2.19887 41.774 2.10668C43.6054 1.4954 41.2597 1.23616 40.5095 1.18863C40.3265 1.17704 40.1452 1.15181 39.962 1.14382L8.03418 1.13291ZM3.2702 3.31095L3.27918 24.9886C3.27283 25.7511 3.30982 26.4838 4.57045 26.7209L4.6087 26.7284C4.90027 26.7839 5.24826 26.7573 5.54906 26.7574H15.265C17.6735 26.7568 19.3635 26.92 20.7915 28.6907C21.133 29.1143 21.3851 29.5722 21.5861 30.0433C21.7062 30.3248 21.79 30.6246 21.9769 30.8857C22.2165 30.5335 22.3175 30.1168 22.5016 29.7455C23.1358 28.4667 24.1738 27.3964 25.9629 26.9651C27.0256 26.7088 28.0473 26.7578 29.1476 26.7575L38.3238 26.7566C38.6575 26.7561 39.0058 26.7693 39.3348 26.7214C39.9453 26.6325 40.5948 26.1992 40.6741 25.719C40.714 25.4766 40.6884 25.2127 40.6886 24.9674L40.6918 3.30541L3.2702 3.31095Z" fill="#4A4E69"/>
<path d="M19.1654 23.1155C18.4269 23.0167 17.7372 22.7525 16.9872 22.7119C15.9715 22.657 15.0228 23.0598 14.0789 23.2831C12.1375 23.7424 9.4089 24.0806 7.75047 22.9658C7.45916 22.7699 7.26928 22.4291 7.49057 22.1501C7.63352 21.9699 8.06049 21.894 8.29698 21.79C9.47513 21.272 10.065 20.0555 9.95591 19.0775C9.86948 18.3017 9.41861 17.5251 9.1366 16.7782C8.13271 14.1195 8.65271 10.8774 11.1913 8.79832C13.7107 6.73481 17.6917 5.84588 21.3107 5.72887L22.6698 5.7242C23.4424 5.72548 23.9471 5.76152 24.6901 5.84339L25.6556 5.97193C28.5297 6.41002 31.37 7.39259 33.224 9.16313C35.8019 11.6249 35.9931 15.2466 34.3786 18.0553C32.4863 21.347 27.3133 23.3033 22.6697 23.3138L21.0419 23.2997C20.42 23.2712 19.7784 23.1965 19.1654 23.1155ZM21.3983 6.89705C14.8802 7.07029 9.97272 9.50993 10.2275 14.7312C10.2336 14.8566 10.2419 14.983 10.2725 15.1065L10.4028 15.7353C10.6297 16.6861 11.138 17.5785 11.3941 18.5216C11.7866 19.967 11.0952 21.4957 9.59207 22.4444C9.85127 22.4836 10.1053 22.5458 10.3689 22.5657C12.6935 22.741 14.1951 21.802 16.299 21.6047C17.0153 21.5375 17.7277 21.6628 18.4182 21.7904L19.8047 22.022C23.3933 22.4751 27.0324 21.8954 30.0128 20.292C30.8627 19.8347 31.6535 19.2681 32.2384 18.6131C34.3836 16.2111 34.4265 12.4143 32.1746 10.0587C29.9373 7.71805 25.9567 6.89252 22.3 6.89463L21.3983 6.89705Z" fill="#4A4E69"/>
<path d="M15.5352 10.931C15.1785 10.9316 14.7692 10.9681 14.4202 10.9308C13.7415 10.8582 13.525 9.89427 14.4202 9.80199C14.7684 9.76603 15.1697 9.79423 15.5224 9.79423L28.1742 9.79264C28.6348 9.79249 29.1257 9.76693 29.5833 9.79566C30.254 9.8378 30.5184 10.6106 29.8897 10.8645L29.8551 10.8782C29.5571 11.0042 28.6327 10.9295 28.2728 10.9295L15.5352 10.931Z" fill="#4A4E69"/>
<path d="M29.5164 13.4996C28.8693 13.5352 28.1934 13.5073 27.543 13.5074L14.6372 13.5065C14.5288 13.5043 14.4211 13.4979 14.3197 13.4662L14.2867 13.4552C13.4815 13.1942 13.7935 12.4745 14.5249 12.3649L27.8356 12.3624C28.3966 12.3626 28.9966 12.3307 29.5538 12.3689C30.4181 12.428 30.448 13.413 29.5164 13.4996Z" fill="#4A4E69"/>
<path d="M15.7477 16.0503L14.8708 16.0513C14.7246 16.0512 14.5547 16.0614 14.4149 16.0267L14.3867 16.0192C13.488 15.7866 13.6055 15.0033 14.5301 14.9175C15.0007 14.8738 15.517 14.9025 15.9918 14.9025L28.2494 14.9022L29.0261 14.897C30.7983 14.8874 30.3507 15.964 29.5438 16.0424C29.1298 16.0827 28.6576 16.0488 28.2385 16.049L15.7477 16.0503Z" fill="#4A4E69"/>
<path d="M15.316 18.9171C15.0268 18.9165 14.7348 18.925 14.4532 18.8662C13.6971 18.7081 13.4496 18.0949 14.2448 17.8293L14.2817 17.8174C14.585 17.7169 15.3288 17.7825 15.6794 17.7825L24.938 17.7828L29.1011 17.7781C29.4187 17.7769 29.7304 17.7444 29.9907 17.9107C30.2796 18.0953 30.363 18.4852 30.0914 18.7017C29.7013 19.0126 29.0968 18.9178 28.588 18.9181L15.316 18.9171Z" fill="#4A4E69"/>
</svg>
