<svg width="28" height="37" viewBox="0 0 28 37" fill="none" xmlns="http://www.w3.org/2000/svg">
<path fill-rule="evenodd" clip-rule="evenodd" d="M3.8591 0H3.7519C3.26094 0 2.83858 1.83782e-08 2.46553 0.116684C1.88803 0.299864 1.36001 0.6917 0.93997 1.24878C0.51993 1.80585 0.224273 2.50642 0.0857576 3.27285C-7.61409e-08 3.76805 0 4.32585 0 4.98042V12.0953C0 12.747 2.07657e-08 13.3077 0.0879016 13.8029C0.225896 14.5695 0.521077 15.2704 0.940739 15.828C1.3604 16.3856 1.88816 16.778 2.46553 16.9619C2.83858 17.0757 3.25879 17.0757 3.7519 17.0757H9.11175C9.60272 17.0757 10.0251 17.0757 10.3981 16.9591C10.9756 16.7759 11.5036 16.384 11.9237 15.827C12.3437 15.2699 12.6394 14.5693 12.7779 13.8029C12.8637 13.3077 12.8637 12.7499 12.8637 12.0953V4.98042C12.8637 4.3287 12.8637 3.76805 12.7758 3.27285C12.6378 2.50625 12.3426 1.80533 11.9229 1.24775C11.5033 0.690176 10.9755 0.297709 10.3981 0.113838C10.0251 -1.10269e-07 9.60486 0 9.11175 0H3.8591ZM2.96507 2.8858C3.05726 2.85734 3.2009 2.84596 3.8591 2.84596H9.00456C9.66489 2.84596 9.80639 2.85449 9.89858 2.8858C10.0912 2.94694 10.2672 3.07769 10.4073 3.26356C10.5473 3.44943 10.6458 3.68315 10.6918 3.9388C10.7133 4.05833 10.7197 4.24617 10.7197 5.12272V11.953C10.7197 12.8296 10.7133 13.0174 10.6897 13.1398C10.6436 13.3954 10.5451 13.6292 10.4051 13.815C10.2651 14.0009 10.089 14.1317 9.89644 14.1928C9.80854 14.2184 9.66703 14.2298 9.00456 14.2298H3.8591C3.19876 14.2298 3.05726 14.2212 2.96507 14.1899C2.77248 14.1288 2.59641 13.9981 2.45639 13.8122C2.31637 13.6263 2.21787 13.3926 2.17181 13.1369C2.15252 13.0203 2.14394 12.8324 2.14394 11.953V5.12272C2.14394 4.24617 2.15037 4.05833 2.17396 3.93596C2.22001 3.68031 2.31851 3.44658 2.45853 3.26071C2.59856 3.07484 2.77463 2.94409 2.96722 2.88295L2.96507 2.8858ZM18.8667 0H18.7595C18.2685 0 17.8462 1.83782e-08 17.4731 0.116684C16.8956 0.299864 16.3676 0.6917 15.9476 1.24878C15.5275 1.80585 15.2319 2.50642 15.0934 3.27285C15.0076 3.76805 15.0076 4.32585 15.0076 4.98042V12.0953C15.0076 12.747 15.0076 13.3077 15.0955 13.8029C15.2335 14.5695 15.5287 15.2704 15.9483 15.828C16.368 16.3856 16.8958 16.778 17.4731 16.9619C17.8462 17.0757 18.2664 17.0757 18.7595 17.0757H24.1193C24.6103 17.0757 25.0327 17.0757 25.4057 16.9591C25.9832 16.7759 26.5112 16.384 26.9313 15.827C27.3513 15.2699 27.647 14.5693 27.7855 13.8029C27.8712 13.3077 27.8712 12.7499 27.8712 12.0953V4.98042C27.8712 4.3287 27.8712 3.76805 27.7833 3.27285C27.6453 2.50625 27.3502 1.80533 26.9305 1.24775C26.5108 0.690176 25.9831 0.297709 25.4057 0.113838C25.0327 -1.10269e-07 24.6125 0 24.1193 0H18.8667ZM17.9727 2.8858C18.0649 2.85734 18.2085 2.84596 18.8667 2.84596H24.0121C24.6725 2.84596 24.814 2.85449 24.9062 2.8858C25.0988 2.94694 25.2748 3.07769 25.4149 3.26356C25.5549 3.44943 25.6534 3.68315 25.6994 3.9388C25.7209 4.05833 25.7273 4.24617 25.7273 5.12272V11.953C25.7273 12.8296 25.7187 13.0174 25.6973 13.1398C25.6512 13.3954 25.5527 13.6292 25.4127 13.815C25.2727 14.0009 25.0966 14.1317 24.904 14.1928C24.814 14.2212 24.6725 14.2298 24.0121 14.2298H18.8667C18.2064 14.2298 18.0649 14.2212 17.9727 14.1899C17.7801 14.1288 17.604 13.9981 17.464 13.8122C17.324 13.6263 17.2255 13.3926 17.1794 13.1369C17.1601 13.0203 17.1515 12.8324 17.1515 11.953V5.12272C17.1515 4.24617 17.158 4.05833 17.1815 3.93596C17.2276 3.68031 17.3261 3.44658 17.4661 3.26071C17.6061 3.07484 17.7822 2.94409 17.9748 2.88295L17.9727 2.8858ZM3.7519 19.9217H9.11175C9.60272 19.9217 10.0251 19.9217 10.3981 20.0384C10.9756 20.2216 11.5036 20.6134 11.9237 21.1705C12.3437 21.7275 12.6394 22.4281 12.7779 23.1945C12.8637 23.6897 12.8637 24.2476 12.8637 24.9021V32.017C12.8637 32.6687 12.8637 33.2294 12.7758 33.7246C12.6378 34.4912 12.3426 35.1921 11.9229 35.7497C11.5033 36.3073 10.9755 36.6997 10.3981 36.8836C10.0251 36.9974 9.60486 36.9974 9.11175 36.9974H3.7519C3.26094 36.9974 2.83858 36.9974 2.46553 36.8808C1.88803 36.6976 1.36001 36.3057 0.93997 35.7487C0.51993 35.1916 0.224273 34.491 0.0857576 33.7246C-7.61409e-08 33.2294 0 32.6716 0 32.017V24.9021C0 24.2504 2.07657e-08 23.6897 0.0879016 23.1945C0.225896 22.4279 0.521077 21.727 0.940739 21.1695C1.3604 20.6119 1.88816 20.2194 2.46553 20.0355C2.83858 19.9217 3.25879 19.9217 3.7519 19.9217ZM3.8591 22.7677C3.19876 22.7677 3.05726 22.7762 2.96507 22.8075C2.77248 22.8686 2.59641 22.9994 2.45639 23.1853C2.31637 23.3711 2.21787 23.6048 2.17181 23.8605C2.15252 23.9772 2.14394 24.165 2.14394 25.0444V31.8747C2.14394 32.7513 2.15037 32.9391 2.17396 33.0615C2.22001 33.3171 2.31851 33.5509 2.45853 33.7367C2.59856 33.9226 2.77463 34.0533 2.96722 34.1145C3.05726 34.1429 3.19876 34.1515 3.8591 34.1515H9.00456C9.66489 34.1515 9.80639 34.1401 9.89858 34.1116C10.0912 34.0505 10.2672 33.9197 10.4073 33.7339C10.5473 33.548 10.6458 33.3143 10.6918 33.0586C10.7133 32.9391 10.7197 32.7513 10.7197 31.8747V25.0444C10.7197 24.1679 10.7133 23.98 10.6897 23.8577C10.6436 23.602 10.5451 23.3683 10.4051 23.1824C10.2651 22.9965 10.089 22.8658 9.89644 22.8047C9.80854 22.779 9.66703 22.7677 9.00456 22.7677H3.8591ZM18.8667 19.9217H18.7595C18.2685 19.9217 17.8462 19.9217 17.4731 20.0384C16.8956 20.2216 16.3676 20.6134 15.9476 21.1705C15.5275 21.7275 15.2319 22.4281 15.0934 23.1945C15.0076 23.6897 15.0076 24.2476 15.0076 24.9021V32.017C15.0076 32.6687 15.0076 33.2294 15.0955 33.7246C15.2335 34.4912 15.5287 35.1921 15.9483 35.7497C16.368 36.3073 16.8958 36.6997 17.4731 36.8836C17.8462 37.0003 18.2685 37.0003 18.7595 37.0003H24.1193C24.6103 37.0003 25.0327 37.0003 25.4057 36.8836C25.9828 36.7 26.5104 36.3079 26.93 35.7509C27.3497 35.1938 27.645 34.4935 27.7833 33.7274C27.8712 33.2322 27.8712 32.6716 27.8712 32.0199V24.9021C27.8712 24.2504 27.8712 23.6897 27.7833 23.1945C27.6453 22.4279 27.3502 21.727 26.9305 21.1695C26.5108 20.6119 25.9831 20.2194 25.4057 20.0355C25.0327 19.9217 24.6125 19.9217 24.1193 19.9217H18.8667ZM17.9727 22.8075C18.0649 22.779 18.2085 22.7677 18.8667 22.7677H24.0121C24.6725 22.7677 24.814 22.7762 24.9062 22.8075C25.0988 22.8686 25.2748 22.9994 25.4149 23.1853C25.5549 23.3711 25.6534 23.6048 25.6994 23.8605C25.7209 23.98 25.7273 24.1679 25.7273 25.0444V31.8747C25.7273 32.7513 25.7187 32.9391 25.6973 33.0615C25.6512 33.3171 25.5527 33.5509 25.4127 33.7367C25.2727 33.9226 25.0966 34.0533 24.904 34.1145C24.814 34.1429 24.6725 34.1515 24.0121 34.1515H18.8667C18.2064 34.1515 18.0649 34.1401 17.9727 34.1116C17.7801 34.0505 17.604 33.9197 17.464 33.7339C17.324 33.548 17.2255 33.3143 17.1794 33.0586C17.1601 32.942 17.1515 32.7541 17.1515 31.8747V25.0444C17.1515 24.1679 17.158 23.98 17.1815 23.8577C17.2276 23.602 17.3261 23.3683 17.4661 23.1824C17.6061 22.9965 17.7822 22.8658 17.9748 22.8047L17.9727 22.8075Z" fill="#4A4E69"/>
</svg>
