<svg width="29" height="39" viewBox="0 0 29 39" fill="none" xmlns="http://www.w3.org/2000/svg">
<path d="M28.0759 38.1506L27.793 38.4313C27.1372 38.9949 26.7546 38.9993 26.0268 39L2.48803 38.9972C1.26301 38.9773 0.166239 37.5638 0.0202698 35.9427C-0.0163903 35.5356 0.0079289 35.0912 0.00765694 34.6791L0.00911951 6.42988C0.00926455 6.1205 -0.00827976 5.78689 0.0253465 5.48023C0.219779 3.70724 1.20668 2.41704 2.54533 2.28081C2.84769 2.25004 3.16078 2.27182 3.4647 2.27207L4.98778 2.27417L4.98658 1.06193C4.9866 0.608668 4.9582 0.256634 5.30461 0.00941792L5.36293 0.000879246C5.92075 -0.0298584 5.92063 0.752276 5.92117 1.25607L5.9245 2.22016L8.98573 2.27542L8.98289 1.20444C8.98217 0.749126 8.95092 0.0298475 9.44099 0.0241091C9.92139 0.0184924 9.91843 0.729103 9.91982 1.19452L9.92423 2.2744L18.0425 2.27371C18.3754 2.27383 18.7292 2.24224 19.059 2.29061L19.079 1.13682C19.0784 0.705719 19.0613 0.0927594 19.5202 0.0439785C20.0295 -0.0101675 20.0301 0.708925 20.031 1.15769L20.0318 2.26725L23.0749 2.26502L23.0866 0.604074C23.0913 0.474013 23.0883 0.386906 23.165 0.294977L23.1838 0.272908C23.4547 -0.0574793 23.8209 -0.0459131 23.9768 0.474387L23.9856 0.504881C24.0628 0.767949 23.9952 1.90234 24.0216 2.27357L25.5879 2.27254C26.0511 2.27241 26.5376 2.21897 26.9894 2.3679C27.9646 2.68931 28.7074 3.78081 28.9153 5.08992C29.0231 5.76883 28.9895 6.45748 28.9903 7.14964L28.9914 33.9084C28.9912 35.6172 29.1534 36.8769 28.0759 38.1506ZM2.91144 3.4769L2.55431 3.50586C1.70978 3.58874 1.00871 4.43733 0.927302 5.58096C0.889711 6.10905 0.91753 6.67191 0.917463 7.20337L0.916907 35.0651C0.916913 35.2612 0.909099 35.4663 0.922534 35.6613C0.993872 36.6968 1.59535 37.6694 2.3937 37.7557C2.5754 37.7754 2.76083 37.767 2.94312 37.7672L26.1192 37.7643C27.3331 37.7642 28.0987 37.01 28.1008 35.3525V32.7874L28.0991 6.57606C28.0975 5.18464 27.9528 4.05149 26.7826 3.54547C26.4965 3.42172 26.1322 3.48944 25.8355 3.49613L24.0137 3.47837L24.014 4.09943C24.0213 4.49306 24.0636 4.91036 23.8289 5.21175C23.6417 5.45228 23.395 5.34549 23.2375 5.11455C23.024 4.80156 23.0616 4.3846 23.0786 3.99366L23.102 3.51909L20.0395 3.48145C19.939 3.79566 20.245 5.03058 19.7163 5.32197C19.4137 5.48876 19.1205 5.06226 19.0799 4.68357L19.0759 4.64823C19.0393 4.28738 19.0813 3.87307 19.0784 3.50561L9.92949 3.47928L9.92538 4.13291C9.92985 4.51559 9.97723 4.91665 9.7535 5.21603C9.56893 5.46295 9.31686 5.3821 9.15102 5.14372C8.95249 4.85835 8.97292 4.56877 8.97757 4.20669L8.9896 3.61363C8.99123 3.57434 8.9951 3.53644 8.99002 3.49743L5.91658 3.50705L5.9216 4.37932C5.92214 4.52455 5.93544 4.70519 5.90794 4.84546C5.75782 5.61007 5.10614 5.45355 4.98527 4.75459C4.95802 4.59705 4.97869 4.39455 4.9814 4.23282L4.98504 3.48097L3.02992 3.47713C3.00315 3.47715 2.93436 3.48803 2.91144 3.4769Z" fill="#4A4E69"/>
</svg>
