<svg width="29" height="34" viewBox="0 0 29 34" fill="none" xmlns="http://www.w3.org/2000/svg">
<path d="M12.4786 1.9772C13.0447 1.42488 13.7604 1.12207 14.4998 1.12207C15.2392 1.12207 15.9549 1.42488 16.5209 1.9772L25.9459 11.1798C26.2967 11.5221 26.5788 11.9494 26.7724 12.4317C26.966 12.914 27.0663 13.4396 27.0664 13.9717V29.2566C27.0664 29.9016 26.8458 30.5202 26.453 30.9763C26.0602 31.4324 25.5275 31.6886 24.972 31.6886H19.2123C18.6568 31.6886 18.1241 31.4324 17.7313 30.9763C17.3385 30.5202 17.1178 29.9016 17.1178 29.2566V20.7447H11.8817V29.2566C11.8817 29.9016 11.6611 30.5202 11.2683 30.9763C10.8755 31.4324 10.3428 31.6886 9.78727 31.6886H4.02755C3.47207 31.6886 2.93934 31.4324 2.54655 30.9763C2.15377 30.5202 1.93311 29.9016 1.93311 29.2566V13.9705C1.93322 13.4384 2.03358 12.9128 2.22715 12.4305C2.42072 11.9482 2.70281 11.5209 3.05363 11.1786L12.4786 1.97599V1.9772Z" fill="#4A4E69"/>
</svg>
