<svg width="30" height="34" viewBox="0 0 30 34" fill="none" xmlns="http://www.w3.org/2000/svg">
<path d="M3.29574 33.6194C2.59199 33.2647 1.78291 32.4869 1.57299 31.7222C1.50691 31.4813 1.56536 31.5985 1.32398 31.4873C0.633128 31.1688 0.0447532 30.5132 0.00996984 29.7532L4.12149e-05 5.15948C-0.00469761 4.11741 0.398472 3.28488 1.59147 3.06501C1.8912 3.00976 2.24099 3.04234 2.54764 3.04274L4.28366 3.06147C4.43839 2.13988 4.34583 1.23836 5.09022 0.438212C5.95178 -0.487849 6.80469 0.209822 7.17907 1.17218C7.41601 1.78125 7.52343 2.39121 7.55647 3.03773L22.0346 3.04078C22.1662 3.04042 22.3195 3.05411 22.4486 3.03166C22.5326 2.0295 22.7484 0.320481 23.9818 0.00180294C25.3838 -0.0720172 25.5886 2.14058 25.706 3.04836L27.8829 3.04378C28.0907 3.04393 28.3501 3.04134 28.5486 3.10879L28.9244 3.25121C29.8353 3.68199 30.007 4.24288 29.9998 5.10458L29.9877 30.7935C29.891 32.4359 28.4606 33.8932 26.7214 33.9803L5.79224 33.9983C4.83805 33.9985 4.18644 34.0465 3.29574 33.6194ZM5.90151 1.20908C5.28007 2.062 5.28066 4.31186 5.7552 5.24201C5.7952 5.32047 5.8434 5.40676 5.91415 5.46303C6.32771 5.19175 6.35203 3.69014 6.34116 3.24745C6.32601 2.62636 6.31085 1.7989 5.9398 1.25806L5.90151 1.20908ZM24.0326 1.23488C23.5443 2.05289 23.4811 3.88688 23.7503 4.82779C23.8015 5.00674 23.909 5.32074 24.0559 5.4464L24.0842 5.42223C24.6156 4.59407 24.7424 1.9321 24.0326 1.23488ZM2.10189 4.14197C1.30509 4.15685 1.14701 4.40694 1.15333 5.1052L1.15769 9.23616L28.2733 9.23892C28.4433 9.23935 28.6682 9.26521 28.8319 9.23396L28.831 4.98692C28.8325 4.83744 28.8464 4.60192 28.755 4.47928L28.7398 4.45823C28.4907 4.12096 28.0722 4.14742 27.6928 4.14653L26.1301 4.14939C25.9741 4.15035 25.7887 4.14005 25.6382 4.17964C25.5705 4.96325 25.3382 6.03239 24.674 6.5626C24.1864 6.95176 23.5686 6.74237 23.2044 6.30447C22.8167 5.83823 22.6406 5.1453 22.5403 4.56844L22.4818 4.14472L7.45807 4.14335C7.42643 4.93024 7.02411 6.8087 5.9038 6.76257C4.85668 6.71941 4.53775 5.38778 4.3751 4.61187C4.34406 4.46351 4.33895 4.29572 4.29356 4.15378L2.10189 4.14197ZM1.14053 10.325L1.15725 29.0668C1.15127 30.4421 1.34701 30.4212 2.55801 30.4141L23.5073 30.4078C25.0147 30.3748 26.2396 30.0016 27.3251 28.9353C27.9249 28.2977 28.3898 27.5903 28.6379 26.7595C28.7455 26.3989 28.8245 26.008 28.8281 25.633L28.833 10.7186C28.8332 10.5956 28.8496 10.4483 28.8274 10.3288L1.14053 10.325ZM28.8245 28.9456C27.8653 30.2011 26.493 31.1752 24.8601 31.4192C24.0405 31.5417 23.2084 31.5029 22.3809 31.5029L2.74981 31.5432C2.77287 31.5764 2.7814 31.6074 2.79382 31.6449C2.8806 31.9076 3.19812 32.1902 3.41092 32.3686C4.18962 32.9798 4.79221 32.8952 5.728 32.8957L24.9352 32.8959C26.1906 32.894 27.4413 33.0319 28.3096 31.9671C28.7942 31.3726 28.8307 30.7262 28.8314 30.0041L28.8245 28.9456Z" fill="#4A4E69"/>
<path d="M15.0743 28.0773C10.832 28.0716 7.44329 25.5009 6.4712 21.5767C5.20591 16.4687 9.42132 11.3687 14.9918 11.3523C17.4059 11.3849 19.3955 12.1016 21.1469 13.7634C24.5167 16.9606 24.5972 22.4089 21.2364 25.6549C19.6187 27.2172 17.3621 28.0696 15.0743 28.0773ZM14.7884 12.4414C12.8568 12.5243 10.7268 13.29 9.39508 14.6841C6.53759 17.6754 6.65417 22.3241 9.7971 25.079C11.1969 26.3061 13.2614 27.0283 15.1563 26.9504L15.2499 26.9444C20.0233 26.7105 23.5366 22.5996 22.4765 18.1284C21.6008 14.4347 18.6097 12.4815 14.7884 12.4414Z" fill="#4A4E69"/>
<path d="M15.0789 23.7746C13.9957 23.6942 12.6514 25.3177 11.405 24.5024C10.6845 24.0309 10.7611 23.3455 10.8945 22.6318L11.0658 21.6491C11.1395 21.1246 11.1474 21.0625 10.7734 20.6547L9.7855 19.6156C9.18113 18.9516 8.67649 18.3021 9.31479 17.4564C9.62788 17.0415 10.1553 16.9641 10.6474 16.9007L11.5769 16.7791C12.5101 16.6268 12.6419 16.4968 13.1096 15.7144C13.5472 14.9822 13.939 13.9765 14.9188 13.8205C15.8541 13.7685 16.2474 14.5829 16.6332 15.2591L17.1517 16.108C17.4489 16.5664 17.5303 16.6163 18.0889 16.7088C18.6701 16.805 19.2764 16.8171 19.8489 16.9488C20.6617 17.1358 21.2063 17.895 20.9191 18.6874C20.7734 19.0897 20.4132 19.4171 20.1201 19.7247L19.3601 20.5178C18.8514 21.0479 18.8717 21.2134 18.975 21.9228L19.0975 22.6639C19.154 22.9754 19.2551 23.3587 19.1693 23.6689L19.1601 23.7002C19.0635 24.0436 18.8157 24.3591 18.508 24.5565C17.8456 24.9817 17.1228 24.5912 16.501 24.3082L15.6919 23.9696C15.5028 23.8962 15.3076 23.8172 15.1068 23.7797L15.0789 23.7746ZM15.0311 14.9049C14.4578 15.2677 14.1323 16.8121 13.2062 17.4433C12.2835 18.0724 10.956 17.7272 10.1207 18.197C10.2413 18.4 10.3946 18.5801 10.5478 18.7609L11.2993 19.576C11.7153 19.9943 12.1322 20.379 12.2123 20.981L12.2171 21.0126C12.2973 21.5928 12.1335 22.251 12.0502 22.8233C11.9 23.8536 12.1317 23.7124 12.8925 23.3618C13.5327 23.0667 14.3169 22.6665 15.043 22.6987C15.7348 22.7375 16.423 23.1012 17.0436 23.3815C18.0282 23.8262 18.1488 23.7616 17.9702 22.724C17.7165 21.2496 17.6001 20.7165 18.7107 19.5633L19.4478 18.7781C19.6217 18.5948 19.8044 18.4251 19.9422 18.2137C19.1707 17.7358 17.552 18.1234 16.6138 17.284C16.3857 17.0797 16.2137 16.7945 16.0548 16.5392L15.5646 15.6911C15.4821 15.5301 15.2589 14.9107 15.0311 14.9049Z" fill="#4A4E69"/>
</svg>
