<svg width="22" height="22" viewBox="0 0 22 22" fill="none" xmlns="http://www.w3.org/2000/svg">
<path d="M10.4679 21.9964L2.37825 21.9953C2.06604 21.9944 1.71667 22.0174 1.41025 21.9693C0.838012 21.8795 0.0790929 21.5085 0.0294588 20.9298C-0.0918593 19.5152 0.150163 17.6855 0.967852 16.4764C2.37904 14.3895 5.55255 14.3088 7.3103 12.5175C6.82661 11.897 6.35276 11.3191 6.06857 10.6032C5.88145 10.1321 5.87548 10.2098 5.46831 9.88261C4.80576 9.35021 4.41518 8.03961 4.64579 7.24407L4.65659 7.20829C4.71062 7.02535 4.79961 6.86124 4.91926 6.7049C5.03609 6.55221 5.08309 6.58053 5.00341 6.41516L4.79179 5.97345C3.39702 2.97626 7.79865 -0.0635472 10.8909 0.00101046C12.5301 0.0052106 14.2872 0.559862 15.014 1.96947C15.2086 2.34687 15.197 2.17007 15.6287 2.4066C16.7266 3.008 17.183 4.41186 16.9246 5.48725C16.8519 5.78973 16.7447 6.07674 16.6533 6.37425C16.5603 6.67728 16.6021 6.57049 16.7743 6.83565C17.2402 7.55263 16.8057 9.12744 16.2307 9.69586C15.7406 10.1805 15.7615 9.72798 15.506 10.4425C15.2093 11.2723 14.6909 11.7786 14.2044 12.4804C14.7485 13.2024 15.4978 13.5618 16.3606 13.9269L18.1485 14.6761C19.7607 15.3954 20.6145 16.2223 21.0612 17.7419C21.3312 18.6604 21.4355 19.5627 21.4518 20.509C21.4763 21.9261 20.2105 21.995 18.9247 21.996L10.4679 21.9964ZM10.8687 1.12081C8.65833 1.2518 5.57838 2.86488 5.76251 5.08256C5.79448 5.46788 5.9787 5.79284 6.07402 6.1609C6.21501 4.91665 6.68236 3.92254 8.2826 4.07538C9.26413 4.1691 10.0988 4.6571 11.1158 4.52899C12.2539 4.36736 13.7005 3.43774 14.6295 4.02054C15.4114 4.51103 15.463 5.5336 15.4648 6.3076C15.7977 5.00765 16.1777 3.81831 14.3873 3.34626C13.9624 3.23426 13.9908 3.01173 13.8865 2.67759C13.5245 1.5171 12.1046 1.06668 10.8687 1.12081ZM13.7163 4.85544C13.3909 4.92824 13.085 5.06801 12.7748 5.18001C11.7946 5.53376 10.6963 5.77892 9.6533 5.50584C8.19019 5.12269 7.43768 4.64846 7.14084 6.3916C6.93405 7.60622 7.11985 7.59766 5.80432 7.68742C5.75522 8.23701 5.92626 8.82223 6.47083 9.13351C6.86008 9.35612 6.93809 9.70792 7.10676 10.0746C7.42038 10.7562 7.82061 11.3168 8.41552 11.835C10.1484 13.2347 11.7672 13.1611 13.3487 11.6029C14.2083 10.7559 14.1805 10.1494 14.7146 9.38093C14.905 9.10699 15.2952 9.03403 15.4538 8.76429C15.616 8.48863 15.8209 8.02989 15.6949 7.7162C15.2005 7.42024 14.6996 7.92683 14.4971 6.98833C14.429 6.67254 14.3011 4.74289 13.7163 4.85544ZM8.29921 13.2022C8.59464 13.5997 9.91552 14.8341 10.3802 15.1808C10.9281 15.5894 11.2585 15.0412 11.6547 14.6715L12.4404 13.9644C12.6535 13.7786 13.0098 13.5338 13.1274 13.2946L13.1207 13.2557C12.9654 13.1993 12.7243 13.3991 12.5955 13.4653C12.1981 13.6697 11.7891 13.837 11.3354 13.9146L11.2926 13.9222C10.4466 14.0676 9.58855 13.8437 8.84922 13.4817C8.66553 13.3917 8.49019 13.2777 8.29921 13.2022ZM14.1395 13.9755C13.7523 14.4153 13.2597 14.7844 12.8142 15.1775C12.2908 15.6392 11.7751 16.2986 10.984 16.3836C9.8897 16.5013 9.14431 15.6227 8.45918 15.0126C8.09189 14.6855 7.69095 14.364 7.35879 14.0097C4.63964 15.9514 1.78124 15.2593 1.29895 19.1378C1.2639 19.42 1.12115 20.5688 1.29684 20.7547C1.40981 20.8743 1.60115 20.8746 1.76525 20.8825L4.66994 20.8904L18.0444 20.8893C18.6129 20.8888 19.2019 20.9154 19.7683 20.8791C20.3766 20.8401 20.2047 20.1467 20.1773 19.7795C19.9526 16.7739 19.1801 16.3245 16.4097 15.1868L15.0198 14.5549C14.7152 14.4006 14.3547 14.2263 14.1395 13.9755Z" fill="#4A4E69"/>
</svg>
