<svg width="32" height="30" viewBox="0 0 32 30" fill="none" xmlns="http://www.w3.org/2000/svg">
<g id="shopping_bag icon/inactive">
<path id="Vector" d="M27.6782 24.521L27.6809 24.5454L27.6859 24.5694C27.7105 24.6856 27.7242 24.7978 27.7242 24.9091C27.7242 25.7882 27.0125 26.5 26.1336 26.5H15.6802H5.2269C4.348 26.5 3.63623 25.7882 3.63623 24.9091C3.63623 24.7978 3.64992 24.6856 3.67452 24.5694L3.6796 24.5454L3.6823 24.521L5.72384 6.14612L5.7269 6.1186V6.09091C5.7269 5.21177 6.43867 4.5 7.31756 4.5H15.6802H24.0429C24.9218 4.5 25.6336 5.21177 25.6336 6.09091V6.1186L25.6366 6.14612L27.6782 24.521ZM21.4069 10.2727V9.44996C22.0281 9.0963 22.4522 8.43094 22.4522 7.65909C22.4522 6.51737 21.526 5.59091 20.3842 5.59091C19.2425 5.59091 18.3162 6.51737 18.3162 7.65909V10.2727C18.3162 11.7258 17.133 12.9091 15.6802 12.9091C14.2274 12.9091 13.0442 11.7258 13.0442 10.2727V7.65909C13.0442 6.51737 12.118 5.59091 10.9762 5.59091C9.8345 5.59091 8.90823 6.51737 8.90823 7.65909C8.90823 8.43094 9.33239 9.0963 9.95356 9.44996V10.2727C9.95356 13.4311 12.522 16 15.6802 16C18.8384 16 21.4069 13.4311 21.4069 10.2727Z" stroke="white"/>
</g>
</svg>
