<svg width="30" height="23" viewBox="0 0 30 23" fill="none" xmlns="http://www.w3.org/2000/svg">
<g id="Group">
<path id="Vector" d="M22.9688 0.441406H7.03125C3.148 0.441406 0 2.75243 0 5.60322V17.3033C0 20.1541 3.148 22.4652 7.03125 22.4652H22.9688C26.852 22.4652 30 20.1541 30 17.3033V5.60322C30 2.75243 26.852 0.441406 22.9688 0.441406Z" fill="url(#paint0_radial_1_10348)"/>
<path id="Vector_2" d="M22.9688 0.441406H7.03125C3.148 0.441406 0 2.75243 0 5.60322V17.3033C0 20.1541 3.148 22.4652 7.03125 22.4652H22.9688C26.852 22.4652 30 20.1541 30 17.3033V5.60322C30 2.75243 26.852 0.441406 22.9688 0.441406Z" fill="url(#paint1_radial_1_10348)"/>
<path id="Vector_3" d="M14.4469 2.44336C11.2643 2.44336 10.8648 2.4536 9.61486 2.49532C8.36729 2.5373 7.51568 2.68227 6.77061 2.89502C5.99975 3.11474 5.34596 3.40871 4.69463 3.88703C4.04271 4.36528 3.64229 4.84524 3.34205 5.41089C3.05143 5.95804 2.85373 6.58348 2.7976 7.49893C2.7417 8.41662 2.72705 8.70998 2.72705 11.0465C2.72705 13.383 2.74111 13.6753 2.79783 14.5929C2.85525 15.5088 3.05271 16.134 3.34229 16.6809C3.64182 17.2469 4.04225 17.7268 4.69381 18.205C5.34502 18.6836 5.99881 18.9782 6.76908 19.1979C7.51475 19.4107 8.36646 19.5556 9.61381 19.5976C10.8638 19.6394 11.263 19.6496 14.4454 19.6496C17.6284 19.6496 18.0266 19.6394 19.2765 19.5976C20.5241 19.5556 21.3766 19.4107 22.1223 19.1979C22.8928 18.9782 23.5456 18.6836 24.1967 18.205C24.8487 17.7268 25.249 17.2469 25.5493 16.6812C25.8374 16.134 26.0352 15.5086 26.0938 14.5931C26.1499 13.6755 26.1646 13.383 26.1646 11.0465C26.1646 8.70998 26.1499 8.41679 26.0938 7.4991C26.0352 6.58322 25.8374 5.95813 25.5493 5.41115C25.249 4.84524 24.8487 4.36528 24.1967 3.88703C23.5449 3.40853 22.893 3.11457 22.1216 2.8951C21.3745 2.68227 20.5224 2.53722 19.2749 2.49532C18.0248 2.4536 17.6269 2.44336 14.4432 2.44336H14.4469ZM13.3956 3.99371C13.7076 3.99337 14.0558 3.99371 14.4469 3.99371C17.5759 3.99371 17.9467 4.00197 19.1823 4.04318C20.3249 4.08155 20.945 4.22169 21.3581 4.33947C21.905 4.49535 22.2949 4.68178 22.7048 4.98297C23.115 5.28408 23.3688 5.57082 23.5817 5.97232C23.7422 6.27515 23.9333 6.73042 23.9853 7.56922C24.0415 8.47615 24.0537 8.74852 24.0537 11.0445C24.0537 13.3405 24.0415 13.6129 23.9853 14.5198C23.9331 15.3586 23.7422 15.8138 23.5817 16.1168C23.3694 16.5183 23.115 16.8041 22.7048 17.1051C22.2947 17.4062 21.9053 17.5925 21.3581 17.7485C20.9455 17.8668 20.3249 18.0066 19.1823 18.045C17.9469 18.0862 17.5759 18.0951 14.4469 18.0951C11.3177 18.0951 10.9468 18.0862 9.71154 18.045C8.56896 18.0062 7.94881 17.8661 7.53537 17.7483C6.98857 17.5923 6.59787 17.406 6.18771 17.1049C5.77756 16.8038 5.52373 16.5177 5.3108 16.1161C5.15037 15.8132 4.95924 15.3579 4.90721 14.5191C4.85107 13.6122 4.83982 13.3398 4.83982 11.0423C4.83982 8.74499 4.85107 8.474 4.90721 7.56707C4.95947 6.72827 5.15037 6.273 5.3108 5.96974C5.52326 5.56824 5.77756 5.2815 6.18783 4.98039C6.59799 4.67929 6.98857 4.49286 7.53549 4.33663C7.94857 4.21834 8.56896 4.07854 9.71154 4.04C10.7926 4.00412 11.2115 3.99337 13.3956 3.99156V3.99371ZM20.7023 5.42216C19.926 5.42216 19.2961 5.88414 19.2961 6.45418C19.2961 7.02413 19.926 7.48654 20.7023 7.48654C21.4787 7.48654 22.1086 7.02413 22.1086 6.45418C22.1086 5.88423 21.4787 5.42181 20.7023 5.42181V5.42216ZM14.4469 6.62839C11.1234 6.62839 8.42881 8.60657 8.42881 11.0465C8.42881 13.4864 11.1234 15.4636 14.4469 15.4636C17.7704 15.4636 20.4641 13.4864 20.4641 11.0465C20.4641 8.60666 17.7702 6.62839 14.4466 6.62839H14.4469ZM14.4469 8.17874C16.6042 8.17874 18.3532 9.46257 18.3532 11.0465C18.3532 12.6302 16.6042 13.9142 14.4469 13.9142C12.2894 13.9142 10.5406 12.6302 10.5406 11.0465C10.5406 9.46257 12.2894 8.17874 14.4469 8.17874Z" fill="white"/>
</g>
<defs>
<radialGradient id="paint0_radial_1_10348" cx="0" cy="0" r="1" gradientUnits="userSpaceOnUse" gradientTransform="translate(7.96875 24.1614) rotate(-90) scale(21.8272 27.6533)">
<stop stop-color="#FFDD55"/>
<stop offset="0.1" stop-color="#FFDD55"/>
<stop offset="0.5" stop-color="#FF543E"/>
<stop offset="1" stop-color="#C837AB"/>
</radialGradient>
<radialGradient id="paint1_radial_1_10348" cx="0" cy="0" r="1" gradientUnits="userSpaceOnUse" gradientTransform="translate(-5.02512 2.02789) rotate(74.7486) scale(9.91634 53.9027)">
<stop stop-color="#3771C8"/>
<stop offset="0.128" stop-color="#3771C8"/>
<stop offset="1" stop-color="#6600FF" stop-opacity="0"/>
</radialGradient>
</defs>
</svg>
