<svg width="29" height="29" viewBox="0 0 29 29" fill="none" xmlns="http://www.w3.org/2000/svg">
<g id="iwwa:logout" clip-path="url(#clip0_1_8903)">
<path id="Vector" d="M20.9136 24.2192H4.05734C3.71494 24.219 3.38663 24.0829 3.14452 23.8408C2.90241 23.5987 2.76631 23.2704 2.76611 22.928V6.07248C2.76611 5.36053 3.34539 4.78125 4.05734 4.78125H20.9129C21.6248 4.78125 22.2041 5.3598 22.2041 6.07248V10.1506C22.2041 10.2392 22.1689 10.3243 22.1062 10.3869C22.0435 10.4496 21.9585 10.4848 21.8699 10.4848C21.7812 10.4848 21.6962 10.4496 21.6335 10.3869C21.5709 10.3243 21.5356 10.2392 21.5356 10.1506V6.07248C21.5353 5.90761 21.4696 5.74962 21.353 5.63304C21.2364 5.51647 21.0784 5.45081 20.9136 5.45043H4.05734C3.89248 5.45081 3.73448 5.51647 3.61791 5.63304C3.50133 5.74962 3.43567 5.90761 3.43529 6.07248V22.9287C3.43567 23.0936 3.50133 23.2516 3.61791 23.3682C3.73448 23.4847 3.89248 23.5504 4.05734 23.5508H20.9129C21.0777 23.5504 21.2357 23.4847 21.3523 23.3682C21.4689 23.2516 21.5345 23.0936 21.5349 22.9287V18.8919C21.5349 18.8033 21.5701 18.7183 21.6328 18.6556C21.6955 18.5929 21.7805 18.5577 21.8691 18.5577C21.9578 18.5577 22.0428 18.5929 22.1055 18.6556C22.1682 18.7183 22.2034 18.8033 22.2034 18.8919V22.9287C22.2034 23.2709 22.0675 23.599 21.8256 23.841C21.5838 24.083 21.2557 24.219 20.9136 24.2192ZM24.0702 19.5901C24.0044 19.5906 23.9399 19.5716 23.8849 19.5356C23.8299 19.4995 23.7867 19.4479 23.7609 19.3874C23.7351 19.3269 23.7278 19.2601 23.7399 19.1954C23.7519 19.1307 23.7829 19.071 23.8288 19.0239L28.2006 14.4905L23.8469 9.97732C23.8165 9.94567 23.7925 9.90832 23.7765 9.86741C23.7605 9.82651 23.7527 9.78285 23.7535 9.73892C23.7543 9.69499 23.7638 9.65166 23.7814 9.61139C23.799 9.57113 23.8243 9.53473 23.856 9.50426C23.9199 9.44273 24.0057 9.40912 24.0944 9.41082C24.1383 9.41166 24.1817 9.42115 24.2219 9.43873C24.2622 9.45632 24.2986 9.48167 24.3291 9.51333L28.906 14.2585C28.9663 14.3206 29.0001 14.4037 29.0003 14.4903C29.0004 14.5769 28.9669 14.6601 28.9067 14.7225L24.3109 19.4879C24.2798 19.5203 24.2424 19.546 24.201 19.5636C24.1597 19.5811 24.1152 19.5902 24.0702 19.5901Z" fill="#F50D0D"/>
<path id="Vector_2" d="M28.6652 14.8247H12.4846C12.396 14.8247 12.311 14.7895 12.2483 14.7268C12.1856 14.6641 12.1504 14.5791 12.1504 14.4905C12.1504 14.4018 12.1856 14.3168 12.2483 14.2541C12.311 14.1915 12.396 14.1562 12.4846 14.1562H28.6652C28.7538 14.1562 28.8388 14.1915 28.9015 14.2541C28.9642 14.3168 28.9994 14.4018 28.9994 14.4905C28.9994 14.5791 28.9642 14.6641 28.9015 14.7268C28.8388 14.7895 28.7538 14.8247 28.6652 14.8247Z" fill="#F50D0D"/>
</g>
<defs>
<clipPath id="clip0_1_8903">
<rect width="29" height="29" fill="white"/>
</clipPath>
</defs>
</svg>
