<svg width="56" height="22" viewBox="0 0 56 22" fill="none" xmlns="http://www.w3.org/2000/svg">
<g id="logos:google-pay" clip-path="url(#clip0_1_7185)">
<path id="Vector" d="M39.6954 5.93705C41.2349 5.93705 42.4245 6.35106 43.3343 7.17908C44.244 8.00699 44.6638 9.11098 44.6638 10.4909V17.1147H42.7044V15.5969H42.6344C41.7948 16.8389 40.6051 17.4599 39.2055 17.4599C38.0159 17.4599 36.9662 17.1148 36.1265 16.4249C35.3567 15.7349 34.8668 14.769 34.8668 13.734C34.8668 12.63 35.2868 11.733 36.1265 11.043C36.9662 10.353 38.1559 10.077 39.5554 10.077C40.815 10.077 41.7948 10.2841 42.5644 10.767V10.2841C42.5644 9.64006 42.3206 8.99613 41.8329 8.57651L41.7246 8.49013C41.1649 8.0071 40.4651 7.73113 39.6954 7.73113C38.5057 7.73113 37.5961 8.21416 36.9662 9.18011L35.1468 8.0759C36.2664 6.62692 37.736 5.93705 39.6954 5.93705ZM29.8285 1.24522C31.0841 1.24522 32.2774 1.67606 33.2315 2.47949L33.3974 2.62508C34.3771 3.4531 34.8668 4.69513 34.8668 6.00607C34.8668 7.31701 34.3771 8.49002 33.3974 9.38695C32.4176 10.284 31.228 10.7669 29.8285 10.7669L26.4696 10.6979V17.1148H24.3701V1.24512L29.8285 1.24522ZM39.9752 11.733C39.1355 11.733 38.4357 11.9399 37.876 12.3539C37.3161 12.6989 37.0362 13.1818 37.0362 13.8028C37.0362 14.3549 37.3162 14.8378 37.736 15.1139C38.2259 15.4588 38.7856 15.6658 39.3455 15.6658C40.1292 15.6658 40.913 15.3652 41.526 14.8203L41.6548 14.6998C42.3545 14.0789 42.7044 13.3199 42.7044 12.4919C42.0746 12.0089 41.1649 11.7329 39.9753 11.7329L39.9752 11.733ZM29.9685 3.17713H26.4696V8.69708H29.9685C30.7381 8.69708 31.5079 8.42111 31.9978 7.86917C33.1174 6.8342 33.1174 5.10925 32.0678 4.07417L31.9978 4.00515C31.4379 3.45321 30.7381 3.10822 29.9684 3.17724L29.9685 3.17713ZM56.0003 6.28204L49.0725 21.9446H46.9731L49.5622 16.4938L45.0137 6.35106H47.253L50.5419 14.1478H50.6119L53.8309 6.35106H56.0003V6.28204Z" fill="#5F6368"/>
<path id="Vector_2" d="M18.1419 9.31796C18.1419 8.697 18.0719 8.07604 18.0019 7.45508H9.25488V10.974H14.2232C14.0134 12.0779 13.3836 13.1129 12.4039 13.7339V16.0108H15.4129C17.1624 14.4239 18.142 12.0779 18.142 9.31807L18.1419 9.31796Z" fill="#4285F4"/>
<path id="Vector_3" d="M9.25445 18.2188C11.7736 18.2188 13.8729 17.3908 15.4125 16.0108L12.4035 13.7339C11.5637 14.2858 10.514 14.6308 9.25445 14.6308C6.8751 14.6308 4.77576 13.0439 4.07598 10.8359H0.99707V13.1818C2.60652 16.2868 5.75554 18.2188 9.25445 18.2188Z" fill="#34A853"/>
<path id="Vector_4" d="M4.07616 10.8365C3.65638 9.73252 3.65638 8.4906 4.07616 7.31759V4.97168H0.997254C-0.332418 7.52465 -0.332418 10.5605 0.997254 13.1824L4.07616 10.8365Z" fill="#FBBC04"/>
<path id="Vector_5" d="M9.25487 3.59164C10.5844 3.59164 11.844 4.07467 12.8238 4.97161L15.4829 2.34972C13.8033 0.831723 11.5641 -0.0652084 9.32476 0.00370338C5.82585 0.00370338 2.60695 1.93571 1.06738 5.04063L4.1464 7.38654C4.77618 5.17856 6.87552 3.59164 9.25487 3.59164Z" fill="#EA4335"/>
</g>
<defs>
<clipPath id="clip0_1_7185">
<rect width="56" height="22" fill="white"/>
</clipPath>
</defs>
</svg>
