<svg width="34" height="27" viewBox="0 0 34 27" fill="none" xmlns="http://www.w3.org/2000/svg">
<g id="logos:paypal" clip-path="url(#clip0_1_6094)">
<path id="Vector" d="M28.8429 2.05126C26.9923 0.665428 23.647 0.0712891 19.3674 0.0712891H6.94673C6.52331 0.0712994 6.11377 0.170548 5.79176 0.351193C5.46975 0.531837 5.25638 0.782026 5.19002 1.05678L0.0183035 22.6066C-0.0844934 23.0316 0.416343 23.4164 1.07191 23.4164H8.73997L10.6658 15.3912L10.606 15.6425C10.7432 15.0752 11.4816 14.6568 12.3561 14.6568H15.9999C23.1582 14.6568 28.7633 12.7466 30.4006 7.22059C30.4492 7.05716 30.4913 6.89809 30.5277 6.74268C30.3211 6.67078 30.3211 6.67078 30.5277 6.74268C31.0153 4.70024 30.5244 3.30995 28.8429 2.05126Z" fill="#27346A"/>
<path id="Vector_2" d="M13.5998 6.00692C13.8095 5.94134 14.0388 5.90736 14.2709 5.90745H24.0085C25.1616 5.90745 26.2371 5.95675 27.2199 6.06067C27.4949 6.08948 27.7685 6.12388 28.0403 6.16381C28.4255 6.21966 28.8062 6.28801 29.1811 6.36861C29.6643 6.47463 30.1143 6.5981 30.5279 6.74268C31.0153 4.69945 30.5244 3.30995 28.8429 2.05126C26.9912 0.665428 23.647 0.0712891 19.3674 0.0712891H6.94567C6.0711 0.0712891 5.32709 0.489604 5.19002 1.05678L0.0183042 22.6058C-0.0844926 23.0315 0.416343 23.4158 1.07084 23.4158H8.73997L12.7354 6.76956C12.7747 6.60594 12.8739 6.45104 13.0244 6.31819C13.175 6.18534 13.3725 6.07852 13.5998 6.00692Z" fill="#27346A"/>
<path id="Vector_3" d="M30.4002 7.2201C28.7629 12.7453 23.1579 14.6563 15.9995 14.6563H12.3546C11.4801 14.6563 10.7416 15.0747 10.6057 15.642L8.20989 25.6204C8.12038 25.9923 8.55813 26.3292 9.13081 26.3292H15.5948C15.9651 26.3292 16.3232 26.2423 16.6047 26.0843C16.8862 25.9263 17.0726 25.7074 17.1305 25.4671L17.1935 25.2507L18.4117 20.1779L18.4902 19.8975C18.5481 19.6573 18.7345 19.4385 19.016 19.2804C19.2975 19.1224 19.6556 19.0355 20.0258 19.0354H20.9932C27.2549 19.0354 32.158 17.3641 33.5908 12.5304C34.1888 10.5103 33.8794 8.82381 32.2973 7.6392C31.8174 7.28039 31.2215 6.98407 30.5273 6.74219C30.4897 6.89838 30.4489 7.05666 30.4002 7.2201Z" fill="#2790C3"/>
<path id="Vector_4" d="M28.8136 6.29369C28.5583 6.24472 28.3006 6.20135 28.0409 6.16368C27.769 6.1244 27.4954 6.09024 27.2205 6.06124C26.2366 5.95662 25.1619 5.90723 24.0078 5.90723H14.2714C14.039 5.90688 13.8096 5.94116 13.6003 6.00749C13.3727 6.07887 13.175 6.18563 13.0244 6.31851C12.8737 6.4514 12.7746 6.60641 12.7357 6.77012L10.6662 15.391L10.6064 15.6423C10.7426 15.0751 11.481 14.6567 12.3556 14.6567H16.0005C23.1588 14.6567 28.7638 12.7464 30.4011 7.22046C30.4498 7.05703 30.4907 6.89865 30.5283 6.74255C30.1137 6.59875 29.6649 6.47449 29.1816 6.36917C29.0597 6.34261 28.937 6.31745 28.8137 6.29369" fill="#1F264F"/>
</g>
<defs>
<clipPath id="clip0_1_6094">
<rect width="34" height="26.3519" fill="white"/>
</clipPath>
</defs>
</svg>
