<svg width="24" height="24" viewBox="0 0 24 24" fill="none" xmlns="http://www.w3.org/2000/svg">
<g id="material-symbols-light:view-day-outline">
<path id="Vector" d="M4 18.7705V17.7705H20V18.7705H4ZM4 6.23047V5.23047H20V6.23047H4ZM5.615 15.0005C5.155 15.0005 4.771 14.8465 4.463 14.5385C4.15433 14.2298 4 13.8455 4 13.3855V10.6155C4 10.1555 4.15433 9.77147 4.463 9.46347C4.771 9.1548 5.155 9.00047 5.615 9.00047H18.385C18.845 9.00047 19.229 9.1548 19.537 9.46347C19.8457 9.77147 20 10.1555 20 10.6155V13.3855C20 13.8455 19.846 14.2298 19.538 14.5385C19.2293 14.8465 18.845 15.0005 18.385 15.0005H5.615ZM5.615 14.0005H18.385C18.5383 14.0005 18.6793 13.9365 18.808 13.8085C18.936 13.6798 19 13.5388 19 13.3855V10.6155C19 10.4621 18.936 10.3211 18.808 10.1925C18.6793 10.0645 18.5383 10.0005 18.385 10.0005H5.615C5.46167 10.0005 5.32067 10.0645 5.192 10.1925C5.064 10.3211 5 10.4621 5 10.6155V13.3855C5 13.5388 5.064 13.6798 5.192 13.8085C5.32067 13.9365 5.46167 14.0005 5.615 14.0005Z" fill="black"/>
</g>
</svg>
