<svg width="114" height="73" viewBox="0 0 114 73" fill="none" xmlns="http://www.w3.org/2000/svg">
<g id="https://lottiefiles.com/animations/payment-M3QZnrce9O" clip-path="url(#clip0_1_5752)">
<g id="Clip path group">
<mask id="mask0_1_5752" style="mask-type:luminance" maskUnits="userSpaceOnUse" x="0" y="0" width="114" height="73">
<g id="__lottie_element_759">
<path id="Vector" d="M113.915 0H0.510742V73H113.915V0Z" fill="white"/>
</g>
</mask>
<g mask="url(#mask0_1_5752)">
<g id="Group">
<g id="Group_2">
<g id="Group_3">
<path id="Vector_2" d="M81.1882 19.1865V19.1956C81.1882 19.1591 81.1787 21.462 81.1787 21.462L95.9969 31.2075C95.9969 31.2075 98.7208 32.2328 100.004 30.9577C100.014 30.9577 100.004 30.971 100.004 30.971L81.1882 19.1865Z" fill="#FFEECC"/>
<path id="Vector_3" d="M81.1882 19.1865V19.1956C81.1882 19.1591 81.1787 21.462 81.1787 21.462L95.9969 31.2075C95.9969 31.2075 98.7208 32.2328 100.004 30.9577C100.014 30.9577 100.004 30.971 100.004 30.971L81.1882 19.1865Z" stroke="#16110D" stroke-width="3" stroke-linecap="round" stroke-linejoin="round"/>
</g>
</g>
<g id="Group_4">
<g id="Group_5">
<path id="Vector_4" d="M78.7952 7.36523C78.7952 7.36523 80.8052 9.15287 78.1549 15.5493C76.0381 19.9293 78.4032 21.4292 78.4032 21.4292C78.4032 21.4292 94.8443 30.6055 96.107 31.2524C94.7174 30.554 93.0809 28.9313 94.3528 25.2583C96.3469 17.7527 93.787 14.9776 93.787 14.9776L78.7952 7.36523Z" fill="#16110D"/>
<path id="Vector_5" d="M78.7952 7.36523C78.7952 7.36523 80.8052 9.15287 78.1549 15.5493C76.0381 19.9293 78.4032 21.4292 78.4032 21.4292C78.4032 21.4292 94.8443 30.6055 96.107 31.2524C94.7174 30.554 93.0809 28.9313 94.3528 25.2583C96.3469 17.7527 93.787 14.9776 93.787 14.9776L78.7952 7.36523Z" stroke="#16110D" stroke-width="3"/>
</g>
</g>
<g id="Group_6">
<g id="Group_7">
<path id="Vector_6" d="M91.4016 23.213L68.8119 10.563C68.7879 10.5477 68.7625 10.5349 68.7374 10.5214L68.7372 10.5212C68.1958 10.2272 67.4229 10.3398 66.6152 10.9141L23.3875 41.6491C22.4932 42.2849 21.693 43.2844 21.1855 44.3997L20.3373 49.0467C20.0157 49.7533 20.1584 50.3303 20.553 50.456L42.9831 63.0147L91.4016 23.213Z" fill="#FEBD2E"/>
</g>
</g>
<g id="Group_8">
<g id="Group_9">
<path id="Vector_7" d="M43.0031 63.2217L20.465 50.6028C20.3101 50.5571 20.1641 50.4239 20.0756 50.2316C19.9252 49.9054 19.9621 49.4481 20.1763 48.9775L21.0122 44.3693C21.5431 43.1906 22.3668 42.1627 23.2835 41.5111L66.511 10.7762C67.3524 10.1773 68.1957 10.0308 68.8242 10.3718C68.8642 10.3936 68.8862 10.4055 68.9079 10.4189L91.4358 23.034L91.5167 23.3419L43.0031 63.2217ZM68.078 10.5356C67.6641 10.5356 67.197 10.7119 66.7207 11.0506L23.4927 41.7855C22.6241 42.403 21.8423 43.3806 21.3476 44.4678L20.5117 49.0756C20.3278 49.492 20.2899 49.8579 20.3981 50.0932C20.4459 50.1966 20.5168 50.264 20.6089 50.2934L42.9642 62.8062L91.0979 23.2389L68.6738 10.6813C68.494 10.5835 68.2932 10.5356 68.078 10.5356Z" fill="#16110D"/>
</g>
</g>
<g id="Group_10">
<g id="Group_11">
<path id="Vector_8" d="M94.6832 32.6425L92.2366 24.2496C92.1189 23.6117 91.7777 23.1535 91.2757 22.9599C90.6724 22.7272 89.8867 22.9026 89.1258 23.4434L45.8982 54.1782C44.9816 54.8295 44.1581 55.8572 43.6271 57.0364L42.7823 61.6637C42.5068 62.2822 42.5434 62.8659 42.8772 63.1549C43.0048 63.2651 43.1613 63.3205 43.3345 63.3205C43.5044 63.3205 43.69 63.2673 43.8806 63.1612L93.1589 35.5762C94.1387 35.0292 94.867 33.6392 94.6832 32.6425Z" fill="#16110D"/>
</g>
</g>
<g id="Group_12">
<g id="Group_13">
<path id="Vector_9" d="M83.0479 24.4552L65.5821 14.8738C64.9904 14.5488 64.2533 14.5906 63.7039 14.9813L43.3367 29.4626C43.1482 29.5967 43.0431 29.8111 43.0557 30.037C43.0683 30.2626 43.1967 30.465 43.399 30.5787L60.7175 40.3083C61.0242 40.4805 61.3654 40.5657 61.7061 40.5657C62.1167 40.5657 62.5259 40.442 62.8712 40.1964L83.1297 25.7924C83.3563 25.6312 83.4814 25.3733 83.4648 25.102C83.4483 24.8312 83.292 24.5893 83.0479 24.4552Z" fill="#16110D"/>
</g>
</g>
<g id="Group_14">
<g id="Group_15">
<path id="Vector_10" d="M90.3738 18.6798L85.2592 16.8354L72.5801 9.88015C72.0477 9.588 71.387 9.62567 70.894 9.97629L69.3428 11.0963L68.335 10.7329V12.0922C68.3352 12.0963 68.3348 12.1003 68.335 12.1044C68.3449 12.2619 68.4308 12.4152 68.5901 12.5047L85.9087 22.2347C86.4198 22.5218 87.0355 22.5391 87.5586 22.305V22.3086C87.5586 22.3086 88.3231 22.0153 88.8085 22.0238C89.294 22.0323 89.4675 22.1294 89.4675 22.1294L90.375 22.6376L90.3738 18.6798Z" fill="#FEBD2E"/>
</g>
</g>
<g id="Group_16">
<g id="Group_17">
<path id="Vector_11" d="M62.7129 40.0581L82.5827 25.9307L65.4414 16.5275C64.9089 16.2355 64.2484 16.2731 63.7553 16.6238L43.9385 30.7135L60.753 40.1602C61.369 40.5063 62.1391 40.4661 62.7129 40.0581Z" fill="#FEBD2E"/>
</g>
</g>
<g id="Group_18">
<g id="Group_19">
<path id="Vector_12" d="M82.4804 38.7949C82.3357 38.7949 82.1903 38.7677 82.0515 38.7132C81.7241 38.5849 81.4813 38.323 81.3853 37.9949L80.5852 35.265C80.4432 34.7803 80.6597 34.2662 81.1107 34.0144L87.4112 30.5023C87.7174 30.3319 88.0811 30.3074 88.408 30.4362C88.7354 30.5644 88.9781 30.8264 89.0741 31.1544L89.8742 33.8843C90.0163 34.3691 89.8001 34.8833 89.3482 35.135L83.0483 38.6471C82.8722 38.7451 82.6768 38.7949 82.4804 38.7949ZM87.9794 30.6959C87.8438 30.6959 87.709 30.7301 87.5877 30.798L81.2873 34.3101C80.976 34.4832 80.8271 34.8379 80.925 35.1722L81.7246 37.9016C81.7912 38.1281 81.9586 38.3087 82.1844 38.3976C82.4097 38.4855 82.6611 38.4695 82.8718 38.3514L89.1717 34.8392C89.4834 34.6662 89.6324 34.3114 89.5344 33.9776L88.7344 31.2473C88.6682 31.0213 88.5008 30.8406 88.2751 30.7518C88.1794 30.7145 88.0792 30.6959 87.9794 30.6959Z" fill="#FFBE2E"/>
</g>
</g>
<g id="Group_20">
<g id="Group_21">
<path id="Vector_13" d="M39.8242 61.4422L22.5889 51.7924L23.0495 49.494C23.1749 48.8685 23.5917 48.3584 24.1926 48.0951C24.7935 47.8315 25.4655 47.8653 26.0356 48.1862L38.5049 55.2104C39.7295 55.9003 40.4007 57.2228 40.2152 58.5796L39.8242 61.4422Z" fill="#16110D"/>
</g>
</g>
<g id="Group_22">
<g id="Group_23">
<g id="Group_24">
<path id="Vector_14" d="M35.4773 40.9958L31.7366 38.9741C31.2976 38.7304 30.7496 38.7596 30.3397 39.0473L29.0617 39.953C28.913 40.0578 28.8296 40.2266 28.8386 40.4045C28.8477 40.5817 28.9475 40.741 29.1054 40.8311L32.7431 42.9599C32.9715 43.0896 33.2262 43.1539 33.4803 43.1539C33.7819 43.1539 34.0826 43.0633 34.3373 42.8844L35.5373 42.0334C35.7131 41.9095 35.8113 41.7102 35.7996 41.5002C35.7879 41.2902 35.6681 41.102 35.4773 40.9958Z" fill="#16110D"/>
</g>
<g id="Group_25">
<path id="Vector_15" d="M29.1981 39.8887L32.8349 42.0168C33.2735 42.2661 33.8236 42.2402 34.235 41.9508L35.4353 41.0997C35.7072 40.9084 35.6849 40.5103 35.3933 40.3484L31.6509 38.326C31.2717 38.1154 30.7999 38.1401 30.4464 38.3887L29.1681 39.2946C28.9537 39.4453 28.9697 39.7588 29.1981 39.8887Z" fill="#FEBD2E"/>
</g>
<g id="Group_26">
<path id="Vector_16" d="M30.4503 39.2861L29.4082 40.0246L32.8123 42.0166C33.2509 42.2659 33.801 42.2401 34.2124 41.9507L35.2889 41.1873L31.6547 39.2234C31.2756 39.013 30.8038 39.0375 30.4503 39.2861Z" fill="#FFEECC"/>
</g>
<g id="Group_27">
<path id="Vector_17" d="M33.4834 42.3581C33.2294 42.3581 32.9747 42.2937 32.7461 42.164L29.1081 40.0348C28.9502 39.9447 28.8506 39.7853 28.8415 39.6086C28.8325 39.4306 28.9159 39.2619 29.0647 39.1572L30.3424 38.251C30.7526 37.9633 31.3002 37.9349 31.7395 38.1782L35.4802 40.1999C35.6708 40.3056 35.7906 40.4934 35.8025 40.7038C35.8145 40.9138 35.7163 41.1136 35.5403 41.2375L34.3402 42.0886C34.0857 42.2675 33.785 42.3581 33.4834 42.3581ZM31.0988 38.3545C30.9054 38.3545 30.7133 38.4122 30.5509 38.5263L29.2735 39.4324C29.2196 39.47 29.1909 39.5279 29.1942 39.5917C29.1976 39.6548 29.2319 39.7099 29.2884 39.7418L29.2904 39.7432L32.9271 41.8715C33.3036 42.0845 33.7774 42.0623 34.1317 41.8133L35.3315 40.9622C35.4124 40.9055 35.4554 40.818 35.4498 40.7221C35.4446 40.6266 35.3922 40.544 35.3062 40.4965L31.5651 38.4748C31.4201 38.3944 31.2592 38.3545 31.0988 38.3545Z" fill="#16110D"/>
</g>
</g>
</g>
<g id="Group_28">
<g id="Group_29">
<g id="Group_30">
<path id="Vector_18" d="M40.1795 37.6198L36.4387 35.5982C35.9998 35.3544 35.4518 35.3836 35.0419 35.6714L33.7639 36.577C33.6152 36.6819 33.5317 36.8505 33.5407 37.0285C33.5498 37.2056 33.6496 37.3651 33.8076 37.4552L37.4452 39.5839C37.6737 39.7136 37.9284 39.7779 38.1824 39.7779C38.4841 39.7779 38.7847 39.6874 39.0394 39.5084L40.2395 38.6575C40.4153 38.5335 40.5135 38.3342 40.5018 38.1242C40.49 37.9142 40.3703 37.7259 40.1795 37.6198Z" fill="#16110D"/>
</g>
<g id="Group_31">
<path id="Vector_19" d="M33.9003 36.5127L37.5371 38.6408C37.9757 38.8901 38.5258 38.8643 38.9371 38.5749L40.1375 37.7237C40.4093 37.5325 40.3871 37.1343 40.0955 36.9724L36.3529 34.9499C35.9738 34.7395 35.502 34.7641 35.1486 35.0127L33.8702 35.9187C33.6559 36.0694 33.6718 36.3828 33.9003 36.5127Z" fill="#FEBD2E"/>
</g>
<g id="Group_32">
<path id="Vector_20" d="M35.1525 35.9101L34.1104 36.6487L37.5144 38.6406C37.9531 38.8899 38.5031 38.8641 38.9145 38.5747L39.991 37.8113L36.3568 35.8474C35.9777 35.637 35.5059 35.6615 35.1525 35.9101Z" fill="#FFEECC"/>
</g>
<g id="Group_33">
<path id="Vector_21" d="M38.1856 38.982C37.9315 38.982 37.6768 38.9177 37.4483 38.788L33.8102 36.6588C33.6523 36.5687 33.5528 36.4093 33.5436 36.2326C33.5346 36.0546 33.6181 35.886 33.7668 35.7811L35.0446 34.875C35.4547 34.5873 36.0023 34.559 36.4416 34.8022L40.1824 36.824C40.373 36.9296 40.4927 37.1175 40.5047 37.3279C40.5166 37.5379 40.4185 37.7376 40.2424 37.8615L39.0424 38.7125C38.7878 38.8914 38.4871 38.982 38.1856 38.982ZM35.8009 34.9785C35.6076 34.9785 35.4154 35.0362 35.2531 35.1503L33.9756 36.0564C33.9218 36.0942 33.8931 36.1518 33.8963 36.2158C33.8998 36.2789 33.934 36.3338 33.9905 36.3658L33.9926 36.3671L37.6292 38.4954C38.0058 38.7086 38.4796 38.6863 38.8339 38.4372L40.0337 37.5862C40.1146 37.5294 40.1575 37.442 40.152 37.346C40.1467 37.2506 40.0944 37.1681 40.0084 37.1205L36.2673 35.0987C36.1222 35.0184 35.9613 34.9785 35.8009 34.9785Z" fill="#16110D"/>
</g>
</g>
</g>
<g id="Group_34">
<g id="Group_35">
<g id="Group_36">
<path id="Vector_22" d="M46.7859 41.3562L43.0452 39.3345C42.6063 39.0907 42.0582 39.12 41.6483 39.4077L40.3704 40.3134C40.2217 40.4181 40.1381 40.5869 40.1471 40.7649C40.1564 40.942 40.2562 41.1013 40.4141 41.1915L44.0517 43.3202C44.2801 43.4499 44.5349 43.5142 44.7889 43.5142C45.0906 43.5142 45.3912 43.4237 45.6459 43.2448L46.8459 42.3937C47.0218 42.2698 47.1199 42.0706 47.1082 41.8605C47.0965 41.6505 46.9768 41.4622 46.7859 41.3562Z" fill="#16110D"/>
</g>
<g id="Group_37">
<path id="Vector_23" d="M40.5066 40.249L44.1434 42.3771C44.582 42.6265 45.1321 42.6006 45.5435 42.3112L46.7438 41.4601C47.0157 41.2689 46.9934 40.8706 46.7018 40.7087L42.9593 38.6863C42.5802 38.4758 42.1084 38.5004 41.7549 38.749L40.4767 39.655C40.2624 39.8057 40.2782 40.1191 40.5066 40.249Z" fill="#FEBD2E"/>
</g>
<g id="Group_38">
<path id="Vector_24" d="M41.7588 39.6465L40.7168 40.385L44.1207 42.3769C44.5594 42.6263 45.1095 42.6003 45.5208 42.311L46.5973 41.5476L42.9632 39.5838C42.5841 39.3732 42.1122 39.3979 41.7588 39.6465Z" fill="#FFEECC"/>
</g>
<g id="Group_39">
<path id="Vector_25" d="M44.792 42.7184C44.538 42.7184 44.2832 42.654 44.0547 42.5243L40.4166 40.3951C40.2588 40.305 40.1592 40.1456 40.1501 39.9689C40.1411 39.7909 40.2245 39.6223 40.3733 39.5175L41.651 38.6113C42.0611 38.3236 42.6088 38.2953 43.0481 38.5385L46.7888 40.5603C46.9794 40.6659 47.0992 40.8537 47.1111 41.0642C47.1231 41.2742 47.0249 41.4739 46.8488 41.5978L45.6487 42.4489C45.3943 42.6278 45.0936 42.7184 44.792 42.7184ZM42.4073 38.7148C42.214 38.7148 42.0218 38.7724 41.8595 38.8865L40.582 39.7927C40.5282 39.8304 40.4995 39.8882 40.5027 39.9521C40.5062 40.0151 40.5404 40.0701 40.597 40.1021L40.599 40.1034L44.2357 42.2318C44.6122 42.4449 45.086 42.4226 45.4403 42.1736L46.6401 41.3225C46.721 41.2657 46.764 41.1783 46.7584 41.0824C46.7531 40.9869 46.7008 40.9044 46.6148 40.8568L42.8737 38.8351C42.7287 38.7547 42.5678 38.7148 42.4073 38.7148Z" fill="#16110D"/>
</g>
</g>
</g>
<g id="Group_40">
<g id="Group_41">
<g id="Group_42">
<path id="Vector_26" d="M51.4636 38.0417L47.7229 36.02C47.284 35.7763 46.736 35.8055 46.3261 36.0932L45.0481 36.9989C44.8993 37.1037 44.8159 37.2724 44.8249 37.4504C44.834 37.6275 44.9338 37.7869 45.0918 37.877L48.7293 40.0058C48.9579 40.1354 49.2126 40.1998 49.4666 40.1998C49.7682 40.1998 50.0689 40.1092 50.3236 39.9303L51.5236 39.0792C51.6995 38.9553 51.7977 38.7561 51.7859 38.5461C51.7742 38.3361 51.6545 38.1478 51.4636 38.0417Z" fill="#16110D"/>
</g>
<g id="Group_43">
<path id="Vector_27" d="M45.1844 36.9346L48.8212 39.0627C49.2598 39.3119 49.8099 39.2862 50.2213 38.9968L51.4216 38.1456C51.6935 37.9543 51.6712 37.5561 51.3796 37.3943L47.6371 35.3718C47.2579 35.1614 46.7862 35.186 46.4327 35.4346L45.1544 36.3406C44.9401 36.4913 44.956 36.8047 45.1844 36.9346Z" fill="#FEBD2E"/>
</g>
<g id="Group_44">
<path id="Vector_28" d="M46.4366 36.332L45.3945 37.0705L48.7986 39.0625C49.2372 39.3118 49.7874 39.2859 50.1986 38.9965L51.2752 38.2331L47.641 36.2693C47.2619 36.0588 46.7901 36.0834 46.4366 36.332Z" fill="#FFEECC"/>
</g>
<g id="Group_45">
<path id="Vector_29" d="M49.4697 39.4039C49.2157 39.4039 48.9609 39.3395 48.7325 39.2099L45.0945 37.0807C44.9365 36.9905 44.837 36.8312 44.8278 36.6544C44.8188 36.4765 44.9023 36.3078 45.051 36.203L46.3288 35.2969C46.7389 35.0092 47.2865 34.9808 47.7258 35.2241L51.4666 37.2458C51.6572 37.3514 51.7769 37.5393 51.7889 37.7497C51.8008 37.9597 51.7026 38.1595 51.5265 38.2833L50.3266 39.1344C50.0722 39.3133 49.7714 39.4039 49.4697 39.4039ZM47.0851 35.4003C46.8918 35.4003 46.6996 35.458 46.5373 35.5721L45.2597 36.4783C45.206 36.516 45.1772 36.5737 45.1804 36.6377C45.1839 36.7007 45.2181 36.7557 45.2747 36.7877L45.2767 36.789L48.9134 38.9173C49.29 39.1304 49.7638 39.1082 50.118 38.8591L51.3179 38.0081C51.3988 37.9513 51.4417 37.8638 51.4362 37.7679C51.4309 37.6724 51.3785 37.5899 51.2925 37.5424L47.5515 35.5206C47.4064 35.4402 47.2455 35.4003 47.0851 35.4003Z" fill="#16110D"/>
</g>
</g>
</g>
<g id="Group_46">
<g id="Group_47">
<g id="Group_48">
<path id="Vector_30" d="M48.7108 48.4529L44.97 46.4311C44.5311 46.1874 43.983 46.2167 43.5732 46.5044L42.2952 47.41C42.1464 47.5148 42.063 47.6835 42.0719 47.8615C42.0812 48.0387 42.181 48.198 42.3388 48.2882L45.9764 50.4169C46.205 50.5466 46.4596 50.611 46.7137 50.611C47.0153 50.611 47.316 50.5204 47.5708 50.3415L48.7708 49.4904C48.9467 49.3665 49.0449 49.1673 49.0331 48.9572C49.0214 48.7472 48.9016 48.559 48.7108 48.4529Z" fill="#16110D"/>
</g>
<g id="Group_49">
<path id="Vector_31" d="M42.4315 47.3457L46.0682 49.4738C46.5068 49.7231 47.057 49.6973 47.4682 49.4079L48.6687 48.5567C48.9405 48.3655 48.9183 47.9673 48.6266 47.8054L44.8841 45.783C44.5051 45.5725 44.0332 45.5971 43.6797 45.8457L42.4015 46.7517C42.1872 46.9024 42.203 47.2158 42.4315 47.3457Z" fill="#FEBD2E"/>
</g>
<g id="Group_50">
<path id="Vector_32" d="M43.6836 46.7432L42.6416 47.4817L46.0456 49.4736C46.4843 49.7229 47.0344 49.697 47.4457 49.4077L48.5223 48.6443L44.8881 46.6804C44.509 46.47 44.0372 46.4945 43.6836 46.7432Z" fill="#FFEECC"/>
</g>
<g id="Group_51">
<path id="Vector_33" d="M46.7169 49.815C46.4629 49.815 46.2081 49.7507 45.9796 49.621L42.3416 47.4918C42.1837 47.4017 42.0841 47.2423 42.0749 47.0656C42.0659 46.8876 42.1493 46.7189 42.2981 46.6141L43.5758 45.708C43.986 45.4203 44.5335 45.392 44.9729 45.6352L48.7137 47.6569C48.9043 47.7626 49.024 47.9504 49.036 48.1609C49.0479 48.3709 48.9498 48.5706 48.7737 48.6944L47.5737 49.5455C47.3192 49.7245 47.0185 49.815 46.7169 49.815ZM44.3322 45.8114C44.1389 45.8114 43.9467 45.8691 43.7844 45.9832L42.5069 46.8894C42.453 46.9271 42.4244 46.9848 42.4276 47.0487C42.431 47.1118 42.4653 47.1668 42.5218 47.1988L42.5239 47.2001L46.1605 49.3285C46.5372 49.5416 47.0108 49.5193 47.3651 49.2702L48.5649 48.4192C48.6458 48.3624 48.6889 48.2749 48.6834 48.179C48.6781 48.0836 48.6256 48.001 48.5397 47.9535L44.7987 45.9317C44.6536 45.8513 44.4926 45.8114 44.3322 45.8114Z" fill="#16110D"/>
</g>
</g>
</g>
<g id="Group_52">
<g id="Group_53">
<g id="Group_54">
<path id="Vector_34" d="M58.0907 41.7624L54.3499 39.7407C53.9111 39.497 53.363 39.5262 52.9531 39.8139L51.6751 40.7196C51.5263 40.8244 51.4429 40.9932 51.4518 41.1711C51.461 41.3483 51.5608 41.5076 51.7188 41.5978L55.3563 43.7265C55.5849 43.8562 55.8396 43.9205 56.0936 43.9205C56.3952 43.9205 56.6959 43.8299 56.9506 43.651L58.1507 42.8C58.3265 42.6761 58.4247 42.4767 58.413 42.2667C58.4013 42.0567 58.2814 41.8686 58.0907 41.7624Z" fill="#16110D"/>
</g>
<g id="Group_55">
<path id="Vector_35" d="M51.8114 40.6553L55.4481 42.7834C55.8867 43.0327 56.4369 43.0067 56.8482 42.7174L58.0486 41.8663C58.3204 41.675 58.2982 41.2768 58.0065 41.115L54.264 39.0926C53.885 38.882 53.4131 38.9067 53.0596 39.1553L51.7814 40.0612C51.5671 40.2119 51.5829 40.5254 51.8114 40.6553Z" fill="#FEBD2E"/>
</g>
<g id="Group_56">
<path id="Vector_36" d="M53.0635 40.0527L52.0215 40.7913L55.4256 42.7832C55.8641 43.0325 56.4143 43.0067 56.8257 42.7172L57.9022 41.9539L54.2679 39.99C53.8889 39.7796 53.417 39.8041 53.0635 40.0527Z" fill="#FFEECC"/>
</g>
<g id="Group_57">
<path id="Vector_37" d="M56.0966 43.1247C55.8426 43.1247 55.588 43.0603 55.3594 42.9306L51.7214 40.8014C51.5635 40.7113 51.4639 40.5519 51.4548 40.3752C51.4458 40.1972 51.5292 40.0285 51.6779 39.9238L52.9557 39.0176C53.3658 38.7299 53.9134 38.7015 54.3527 38.9448L58.0935 40.9665C58.2841 41.0721 58.4039 41.26 58.4158 41.4704C58.4278 41.6804 58.3296 41.8802 58.1536 42.0041L56.9535 42.8552C56.699 43.0341 56.3983 43.1247 56.0966 43.1247ZM53.712 39.1211C53.5187 39.1211 53.3265 39.1788 53.1642 39.2929L51.8867 40.199C51.8329 40.2366 51.8042 40.2945 51.8074 40.3583C51.8109 40.4213 51.8451 40.4765 51.9016 40.5084L51.9037 40.5098L55.5404 42.6381C55.917 42.8511 56.3907 42.829 56.745 42.5799L57.9447 41.7288C58.0257 41.6721 58.0686 41.5846 58.0632 41.4887C58.0578 41.3932 58.0054 41.3106 57.9196 41.2632L54.1785 39.2414C54.0333 39.161 53.8725 39.1211 53.712 39.1211Z" fill="#16110D"/>
</g>
</g>
</g>
<g id="Group_58">
<g id="Group_59">
<path id="Vector_38" d="M76.2313 40.2151C75.7761 40.0521 75.2846 40.1076 74.881 40.3655L55.5641 52.7207C54.6671 53.2947 53.9935 54.156 53.667 55.1482L52.709 58.1825L53.1574 57.9314L54.0041 55.2494C54.3057 54.3331 54.9291 53.5358 55.759 53.0048L75.0759 40.6496C75.268 40.5271 75.486 40.4641 75.7067 40.4641C75.8414 40.4641 75.977 40.4876 76.1085 40.5346C76.4561 40.659 76.7131 40.9275 76.8143 41.2721L77.6806 44.2038L77.9956 44.0276L77.1536 41.1788C77.0221 40.7291 76.686 40.3776 76.2313 40.2151Z" fill="#FEBD2E"/>
</g>
</g>
<g id="Group_60">
<g id="Group_61">
<path id="Vector_39" d="M68.5894 11.1464L85.9079 20.8763C86.5239 21.2223 87.2941 21.1823 87.8679 20.7742L90.1094 19.1547C90.4887 18.885 90.4546 18.3276 90.0451 18.1029L72.5793 8.52163C72.0469 8.22955 71.3864 8.26737 70.8933 8.61799L68.543 10.3148C68.244 10.5273 68.2686 10.9661 68.5894 11.1464Z" fill="#FEBD2E"/>
</g>
</g>
<g id="Group_62">
<g id="Group_63">
<path id="Vector_40" d="M68.5904 12.5047L85.9089 22.2347C86.5249 22.5808 87.2951 22.5406 87.8689 22.1326L90.1105 20.513C90.4897 20.2433 90.4556 19.686 90.0461 19.4613L72.5803 9.88009C72.0479 9.58801 71.3873 9.62568 70.8942 9.9763L68.544 11.6732C68.245 11.8857 68.2695 12.3245 68.5904 12.5047Z" fill="#FFEECC"/>
</g>
</g>
<g id="Group_64">
<g id="Group_65">
<path id="Vector_41" d="M86.8079 21.2817C86.4676 21.2817 86.1265 21.1964 85.8199 21.0242L68.5017 11.2946C68.2989 11.1809 68.1707 10.978 68.1582 10.7521C68.1457 10.5266 68.2511 10.3121 68.4396 10.178L70.7882 8.48215C71.3377 8.09145 72.0751 8.05013 72.6673 8.37425L90.1335 17.9552C90.3777 18.0893 90.5335 18.3312 90.55 18.6025C90.5666 18.8737 90.4415 19.1317 90.2153 19.2924L87.9744 20.9111C87.6287 21.1574 87.2189 21.2817 86.8079 21.2817ZM71.814 8.49762C71.5262 8.49762 71.2397 8.58471 70.9983 8.75561L68.6497 10.452C68.5551 10.5194 68.5049 10.622 68.5109 10.7338C68.5173 10.8462 68.5785 10.9434 68.6792 10.9998L85.9973 20.7294C86.5532 21.042 87.2466 21.0056 87.7638 20.6376L90.0047 19.0189C90.1372 18.9244 90.2071 18.78 90.1974 18.6224C90.1878 18.4648 90.1009 18.3295 89.9588 18.2517L72.4926 8.67085C72.2816 8.55493 72.0475 8.49762 71.814 8.49762Z" fill="#16110D"/>
</g>
</g>
<g id="Group_66">
<g id="Group_67">
<path id="Vector_42" d="M63.7634 17.9763L45.585 30.9011L60.7599 39.4267C61.3759 39.7728 62.146 39.7326 62.7199 39.3246L80.934 26.3744L65.4495 17.8801C64.917 17.588 64.2564 17.6257 63.7634 17.9763Z" fill="#FFEECC"/>
</g>
</g>
<g id="Group_68">
<g id="Group_69">
<path id="Vector_43" d="M61.6526 40.5657C61.3124 40.5657 60.9708 40.4799 60.6641 40.3077L43.6172 30.7309L63.6504 16.487C64.1989 16.0972 64.9364 16.0541 65.5291 16.3796L82.9065 25.9126L62.8177 40.1958C62.4724 40.4414 62.0632 40.5657 61.6526 40.5657ZM44.26 30.6971L60.8416 40.013C61.3979 40.325 62.0909 40.2891 62.608 39.9215L82.2592 25.9499L65.3544 16.6762C64.8831 16.4169 64.2964 16.4507 63.8601 16.7614L44.26 30.6971Z" fill="#16110D"/>
</g>
</g>
<g id="Group_70">
<g id="Group_71">
<path id="Vector_44" d="M90.55 22.7987V22.7985L90.549 18.6235L90.3495 18.5517C90.4042 18.753 90.3538 18.9745 90.196 19.1372V19.1829L88.0382 20.8051L87.7381 20.9156C87.5436 21.0306 87.3329 21.1085 87.1144 21.1454L87.0378 21.1736L86.9802 21.1617C86.6142 21.1962 86.2386 21.1255 85.9073 20.9392V22.0997L68.6777 12.4197C68.578 12.3638 68.5168 12.2679 68.5104 12.1547V11.1513C68.3502 11.0166 68.2994 10.8074 68.3617 10.6235L68.1572 10.5498L68.1577 12.1769C68.171 12.4006 68.2993 12.6018 68.5002 12.7145L85.8184 22.4442C86.2924 22.711 86.8602 22.77 87.3807 22.6147V22.6222L87.6225 22.5294C87.6299 22.5267 88.3579 22.2613 88.8042 22.2568C89.2171 22.2639 89.3771 22.3389 89.3775 22.3389L90.55 22.996L90.55 22.7987Z" fill="#16110D"/>
</g>
</g>
<g id="Group_72">
<g id="Group_73">
<path id="Vector_45" d="M86.664 19.1568C86.4484 19.1568 86.2324 19.1028 86.0382 18.9937L71.6967 10.943C71.5682 10.8709 71.487 10.7424 71.4791 10.5994C71.4713 10.4565 71.538 10.3207 71.6573 10.2358L71.9256 10.0651C72.2736 9.81774 72.7406 9.79154 73.1157 9.99681L87.5509 17.9534C87.7056 18.0383 87.8043 18.1916 87.8148 18.3633C87.8253 18.5351 87.7461 18.6985 87.6028 18.8002L87.4027 18.922C87.1837 19.0781 86.9243 19.1568 86.664 19.1568ZM72.5752 10.075C72.393 10.075 72.2116 10.13 72.0587 10.2383L71.9983 10.2816C71.9384 10.3243 71.9066 10.3893 71.9104 10.4601C71.9145 10.5312 71.9532 10.5928 72.017 10.6285L86.3585 18.6792C86.7105 18.8772 87.1496 18.8541 87.4772 18.621L87.4694 18.6271C87.5533 18.5672 87.5976 18.4758 87.5915 18.376C87.5853 18.2762 87.5303 18.1904 87.4403 18.1412L73.005 10.1846C72.8714 10.1112 72.7232 10.075 72.5752 10.075Z" fill="#16110D"/>
</g>
</g>
<g id="Group_74">
<g id="Group_75">
<g id="Group_76">
<path id="Vector_46" d="M44.8572 34.3054L41.1164 32.2837C40.6776 32.0399 40.1294 32.0692 39.7196 32.3569L38.4416 33.2626C38.2929 33.3674 38.2094 33.5361 38.2184 33.714C38.2277 33.8912 38.3274 34.0506 38.4853 34.1407L42.1229 36.2695C42.3514 36.3991 42.6061 36.4635 42.8601 36.4635C43.1618 36.4635 43.4625 36.3729 43.7173 36.194L44.9172 35.3429C45.0931 35.2191 45.1912 35.0198 45.1795 34.8098C45.1678 34.5997 45.048 34.4115 44.8572 34.3054Z" fill="#16110D"/>
</g>
<g id="Group_77">
<path id="Vector_47" d="M38.578 33.1983L42.2148 35.3264C42.6534 35.5756 43.2035 35.5498 43.6148 35.2605L44.8152 34.4092C45.087 34.2179 45.0648 33.8198 44.7732 33.658L41.0306 31.6355C40.6516 31.425 40.1798 31.4496 39.8263 31.6983L38.5479 32.6043C38.3337 32.7549 38.3495 33.0684 38.578 33.1983Z" fill="#FEBD2E"/>
</g>
<g id="Group_78">
<path id="Vector_48" d="M39.8302 32.5956L38.7881 33.3342L42.1922 35.3262C42.6308 35.5755 43.1809 35.5496 43.5923 35.2603L44.6688 34.4968L41.0345 32.533C40.6554 32.3225 40.1836 32.3471 39.8302 32.5956Z" fill="#FFEECC"/>
</g>
<g id="Group_79">
<path id="Vector_49" d="M42.8634 35.6676C42.6094 35.6676 42.3546 35.6032 42.1261 35.4736L38.4881 33.3444C38.3302 33.2542 38.2306 33.0949 38.2214 32.9182C38.2124 32.7402 38.2959 32.5715 38.4446 32.4667L39.7223 31.5606C40.1325 31.2729 40.68 31.2445 41.1194 31.4877L44.8601 33.5095C45.0507 33.6152 45.1705 33.8031 45.1826 34.0134C45.1944 34.2235 45.0962 34.4232 44.9202 34.547L43.7202 35.3981C43.4657 35.577 43.165 35.6676 42.8634 35.6676ZM40.4786 31.664C40.2854 31.664 40.0932 31.7218 39.9309 31.8359L38.6534 32.742C38.5995 32.7797 38.5709 32.8374 38.574 32.9014C38.5775 32.9644 38.6118 33.0194 38.6683 33.0514L38.6704 33.0527L42.307 35.1811C42.6836 35.3942 43.1573 35.3719 43.5116 35.1228L44.7114 34.2718C44.7923 34.215 44.8353 34.1275 44.8298 34.0316C44.8245 33.9361 44.7721 33.8536 44.6862 33.8061L40.9451 31.7843C40.8001 31.7039 40.6391 31.664 40.4786 31.664Z" fill="#16110D"/>
</g>
</g>
</g>
<g id="Group_80">
<g id="Group_81">
<g id="Group_82">
<path id="Vector_50" d="M42.0838 44.7322L38.343 42.7103C37.9041 42.4667 37.356 42.496 36.9462 42.7836L35.6683 43.6893C35.5195 43.7941 35.436 43.9629 35.445 44.1409C35.4542 44.318 35.554 44.4773 35.7119 44.5674L39.3495 46.6962C39.578 46.8259 39.8328 46.8903 40.0868 46.8903C40.3884 46.8903 40.689 46.7997 40.9437 46.6207L42.1438 45.7696C42.3196 45.6458 42.4178 45.4465 42.4061 45.2365C42.3943 45.0265 42.2747 44.8383 42.0838 44.7322Z" fill="#16110D"/>
</g>
<g id="Group_83">
<path id="Vector_51" d="M35.8045 43.625L39.4413 45.7531C39.8799 46.0024 40.4299 45.9766 40.8414 45.6871L42.0417 44.836C42.3136 44.6448 42.2913 44.2465 41.9997 44.0847L38.2572 42.0623C37.8781 41.8518 37.4063 41.8764 37.0528 42.125L35.7745 43.0309C35.5602 43.1817 35.5761 43.4952 35.8045 43.625Z" fill="#FEBD2E"/>
</g>
<g id="Group_84">
<path id="Vector_52" d="M37.0566 43.0224L36.0146 43.7609L39.4187 45.7529C39.8573 46.0022 40.4073 45.9764 40.8187 45.687L41.8952 44.9236L38.261 42.9598C37.8819 42.7493 37.41 42.7738 37.0566 43.0224Z" fill="#FFEECC"/>
</g>
<g id="Group_85">
<path id="Vector_53" d="M40.0899 46.0944C39.8358 46.0944 39.5811 46.0301 39.3526 45.9003L35.7145 43.7712C35.5566 43.6811 35.4571 43.5216 35.4479 43.345C35.4389 43.1669 35.5224 42.9981 35.6711 42.8935L36.9488 41.9874C37.3589 41.6996 37.9065 41.6712 38.3459 41.9145L42.0867 43.9363C42.2773 44.0419 42.397 44.2298 42.409 44.4402C42.4209 44.6502 42.3227 44.8499 42.1466 44.9738L40.9466 45.8249C40.6921 46.0038 40.3914 46.0944 40.0899 46.0944ZM37.7052 42.0908C37.5119 42.0908 37.3197 42.1485 37.1574 42.2626L35.8798 43.1687C35.826 43.2064 35.7974 43.2642 35.8005 43.3281C35.804 43.3911 35.8383 43.4462 35.8948 43.4782L35.8969 43.4795L39.5335 45.6078C39.9101 45.8209 40.3839 45.7986 40.7382 45.5496L41.938 44.6985C42.0189 44.6417 42.0618 44.5543 42.0563 44.4584C42.051 44.3629 41.9986 44.2804 41.9126 44.2329L38.1716 42.2111C38.0265 42.1307 37.8657 42.0908 37.7052 42.0908Z" fill="#16110D"/>
</g>
</g>
</g>
<g id="Group_86">
<g id="Group_87">
<g id="Group_88">
<path id="Vector_54" d="M53.4129 45.0769L49.6722 43.0551C49.2333 42.8114 48.6852 42.8407 48.2753 43.1284L46.9973 44.034C46.8486 44.1388 46.7652 44.3076 46.7741 44.4856C46.7833 44.6627 46.8831 44.822 47.041 44.9121L50.6786 47.0409C50.9071 47.1705 51.1618 47.2349 51.4158 47.2349C51.7175 47.2349 52.0181 47.1444 52.2729 46.9655L53.473 46.1144C53.6488 45.9905 53.747 45.7912 53.7353 45.5812C53.7236 45.3712 53.6037 45.183 53.4129 45.0769Z" fill="#16110D"/>
</g>
<g id="Group_89">
<path id="Vector_55" d="M47.1337 43.9697L50.7704 46.0978C51.2089 46.3471 51.7591 46.3213 52.1704 46.0319L53.3708 45.1807C53.6427 44.9895 53.6204 44.5913 53.3288 44.4294L49.5863 42.407C49.2072 42.1966 48.7354 42.2211 48.3819 42.4697L47.1036 43.3756C46.8894 43.5264 46.9051 43.8399 47.1337 43.9697Z" fill="#FEBD2E"/>
</g>
<g id="Group_90">
<path id="Vector_56" d="M48.3858 43.3672L47.3438 44.1057L50.7478 46.0976C51.1864 46.3469 51.7365 46.3211 52.1479 46.0318L53.2244 45.2683L49.5902 43.3044C49.2111 43.094 48.7393 43.1186 48.3858 43.3672Z" fill="#FFEECC"/>
</g>
<g id="Group_91">
<path id="Vector_57" d="M51.419 46.4391C51.165 46.4391 50.9102 46.3747 50.6818 46.245L47.0437 44.1158C46.8858 44.0257 46.7862 43.8664 46.777 43.6897C46.7681 43.5117 46.8515 43.3429 47.0003 43.2382L48.278 42.3321C48.6882 42.0444 49.2358 42.0159 49.675 42.2592L53.4159 44.281C53.6064 44.3867 53.7261 44.5745 53.7381 44.7849C53.7501 44.9949 53.652 45.1946 53.4759 45.3185L52.2758 46.1696C52.0214 46.3485 51.7207 46.4391 51.419 46.4391ZM49.0344 42.4355C48.8411 42.4355 48.6489 42.4932 48.4865 42.6073L47.209 43.5134C47.1552 43.5511 47.1265 43.6089 47.1297 43.6728C47.1332 43.7359 47.1674 43.7909 47.224 43.8229L47.226 43.8242L50.8627 45.9525C51.2393 46.1655 51.713 46.1433 52.0673 45.8943L53.2671 45.0433C53.348 44.9864 53.3911 44.899 53.3855 44.8031C53.3802 44.7077 53.3278 44.6251 53.2418 44.5776L49.5008 42.5558C49.3558 42.4755 49.1948 42.4355 49.0344 42.4355Z" fill="#16110D"/>
</g>
</g>
</g>
<g id="Group_92">
<g id="Group_93">
<g id="Group_94">
<path id="Vector_58" d="M37.5132 58.6138L24.2958 51.2593C23.7585 50.9604 23.5748 50.2972 23.8856 49.7792C24.1954 49.2629 24.8796 49.086 25.415 49.3839L38.6323 56.7383C39.1696 57.0373 39.3534 57.7005 39.0426 58.2186C38.7327 58.7348 38.0486 58.9117 37.5132 58.6138Z" fill="#FFBE2E"/>
</g>
</g>
<g id="Group_95">
<g id="Group_96">
<path id="Vector_59" d="M38.2156 58.1935L24.3379 50.4295C24.1591 50.3296 24.0983 50.1086 24.2019 49.936C24.3054 49.7634 24.5342 49.7046 24.7129 49.8046L38.5907 57.5684C38.7694 57.6684 38.8303 57.8894 38.7267 58.062C38.6232 58.2346 38.3943 58.2935 38.2156 58.1935Z" fill="#16110D"/>
</g>
</g>
</g>
<g id="Group_97">
<g id="Group_98">
<g id="Group_99">
<g id="Group_100">
<path id="Vector_60" d="M36.6061 57.1683L25.2248 50.793L13.2485 57.6867L12.9068 57.6499V58.0974C12.9061 58.1119 12.9061 58.126 12.9068 58.1404C12.9138 58.27 12.981 58.3971 13.1126 58.4726L24.1006 64.7988C24.5153 65.0366 25.0312 65.0367 25.446 64.7991L38.1197 57.5412L37.6915 57.285L36.6061 57.1683Z" fill="#FFBE2E"/>
</g>
<g id="Group_101">
<path id="Vector_61" d="M24.7734 65.0682C24.5243 65.0682 24.2749 65.0044 24.0526 64.8768L13.0647 58.5507C12.914 58.4642 12.8222 58.3166 12.8131 58.1454C12.8123 58.1277 12.8123 58.1108 12.8131 58.0935V57.5492L13.2275 57.5938L25.2241 50.6885L25.2716 50.7153L36.6361 57.0813L37.741 57.2085L38.3006 57.5435L25.4936 64.8772C25.2716 65.0047 25.0225 65.0682 24.7734 65.0682ZM13.0003 57.7512V58.098C12.9997 58.1135 12.9997 58.1248 13.0003 58.1365C13.0062 58.2457 13.0644 58.3403 13.1605 58.3954L24.1484 64.7215C24.5339 64.9425 25.0126 64.9429 25.3981 64.7218L37.9393 57.54L37.6602 57.3729L36.5593 57.2469L25.2255 50.8983L13.2692 57.7802L13.0003 57.7512Z" fill="#16110D"/>
</g>
</g>
<g id="Group_102">
<g id="Group_103">
<path id="Vector_62" d="M25.224 50.3027L13.1113 57.2749C12.8337 57.4347 12.834 57.8229 13.1119 57.9823L24.0999 64.3084C24.5145 64.5462 25.0305 64.5464 25.4453 64.3089L37.6908 57.2853L25.224 50.3027Z" fill="#FFBE2E"/>
</g>
<g id="Group_104">
<path id="Vector_63" d="M24.7395 63.9279C25.1541 64.1657 25.6701 64.1659 26.0849 63.9283L32.1243 60.4831C32.6486 60.1828 32.6449 59.4488 32.1176 59.1535L23.0921 54.0983C22.2411 53.6217 21.1895 53.6279 20.3445 54.1144L15.1579 57.0874C14.6387 57.3864 14.6388 58.1126 15.158 58.4115L24.7395 63.9279Z" fill="#FFEECC"/>
</g>
<g id="Group_105">
<path id="Vector_64" d="M24.7727 64.578C24.5236 64.578 24.2742 64.5141 24.0519 64.3866L13.0641 58.0606C12.905 57.9694 12.8099 57.8081 12.8096 57.6294C12.8096 57.4507 12.9043 57.2893 13.0634 57.1978L25.2234 50.1982L25.2709 50.225L37.8761 57.285L25.4933 64.387C25.271 64.5145 25.0218 64.578 24.7727 64.578ZM25.2249 50.408L13.1592 57.3531C13.0575 57.4117 12.9968 57.5149 12.9968 57.629C12.9972 57.7434 13.0579 57.8469 13.1599 57.9052L24.1477 64.2313C24.5332 64.4524 25.0119 64.4527 25.3974 64.2316L37.5059 57.2864L25.2249 50.408Z" fill="#16110D"/>
</g>
</g>
</g>
<g id="Group_106">
<path id="Vector_65" d="M24.8271 64.4879V65.022L25.2588 64.8881L38.1189 57.5424L37.6907 57.2861L25.1432 64.4365L24.8271 64.4879Z" fill="#16110D"/>
</g>
</g>
<g id="Group_107">
<g id="Group_108">
<path id="Vector_66" d="M96.5342 30.319C96.7786 30.4428 97.0681 30.5236 97.4097 30.551C100.268 30.7797 100.443 28.0751 100.761 25.3057" stroke="#16110D" stroke-width="10" stroke-linecap="round" stroke-linejoin="round"/>
</g>
</g>
</g>
</g>
</g>
</g>
<defs>
<clipPath id="clip0_1_5752">
<rect width="113.404" height="73" fill="white" transform="translate(0.510742)"/>
</clipPath>
</defs>
</svg>
