<svg width="120" height="80" viewBox="0 0 120 80" fill="none" xmlns="http://www.w3.org/2000/svg">
<g id="https://lottiefiles.com/animations/payment-Sh1tl1PFv1" clip-path="url(#clip0_1_5411)">
<g id="Clip path group">
<mask id="mask0_1_5411" style="mask-type:luminance" maskUnits="userSpaceOnUse" x="0" y="0" width="120" height="80">
<g id="__lottie_element_727">
<path id="Vector" d="M119.75 0H0.264648V80H119.75V0Z" fill="white"/>
</g>
</mask>
<g mask="url(#mask0_1_5411)">
<g id="Group">
<g id="Group_2" opacity="0.1">
<g id="Group_3">
<path id="Vector_2" d="M72.7178 53.33C74.8043 55.5507 72.7178 55.9791 72.7178 55.9791L46.718 62.4061C39.068 63.5994 35.5905 61.014 35.5905 61.014L5.16401 38.6407C3.5994 34.3648 8.29367 33.0721 8.29367 33.0721L39.2416 29.4924C43.2406 29.393 44.2837 30.7851 44.2837 30.7851L72.7178 53.33Z" fill="#23282C"/>
</g>
</g>
<g id="Group_4">
<g id="Group_5">
<path id="Vector_3" d="M72.8701 53.2615C74.6963 55.5371 72.8701 56.0806 72.8701 56.0806L50.3471 61.5828C43.6513 62.8056 40.6076 60.1564 40.6076 60.1564L13.9758 37.2308C12.6062 32.8494 16.715 31.5248 16.715 31.5248L43.8034 27.8568C47.3034 27.7548 48.2167 29.1812 48.2167 29.1812L72.8701 53.2615Z" fill="#4A4A4A"/>
</g>
<g id="Group_6">
<path id="Vector_4" d="M25.9896 38.6115L20.2315 33.8666C19.6697 33.4036 20.042 32.7068 20.9147 32.5873L44.13 29.4079C45.1412 29.2695 46.182 29.5279 46.8138 30.0743L52.296 34.8155C52.6634 35.1332 52.4117 35.5988 51.8257 35.6855L28.3381 39.1598C27.4633 39.2892 26.5544 39.077 25.9896 38.6115Z" fill="#4AB4E6"/>
</g>
<g id="Group_7">
<path id="Vector_5" d="M38.8539 42.8058L37.8159 41.7634C37.6603 41.6073 37.3759 41.533 37.1037 41.577L31.4085 42.4997C30.9579 42.5728 30.7528 42.9235 31.0099 43.182L32.0482 44.2243C32.2035 44.3803 32.4881 44.4548 32.7604 44.4107L38.4556 43.4878C38.9062 43.415 39.1112 43.0641 38.8539 42.8058Z" fill="#2C2C2B"/>
</g>
<g id="Group_8">
<path id="Vector_6" d="M40.8747 42.7974C41.0303 42.9535 41.3147 43.0281 41.5869 42.9841L47.2821 42.0611C47.7327 41.9881 47.9376 41.6374 47.6803 41.3791L46.6424 40.3367C46.4871 40.1807 46.2025 40.1061 45.9302 40.1503L40.235 41.0731C39.7846 41.1461 39.5794 41.4968 39.8367 41.7551L40.8747 42.7974Z" fill="#2C2C2B"/>
</g>
<g id="Group_9">
<path id="Vector_7" d="M49.7015 41.3706C49.857 41.5268 50.1414 41.6014 50.4137 41.5574L56.1089 40.6344C56.5595 40.5614 56.7643 40.2106 56.507 39.9524L55.4692 38.9099C55.3139 38.7539 55.0293 38.6794 54.757 38.7235L49.0618 39.6464C48.6112 39.7194 48.4061 40.0701 48.6632 40.3284L49.7015 41.3706Z" fill="#2C2C2B"/>
</g>
<g id="Group_10">
<path id="Vector_8" d="M41.5932 45.2511L40.5552 44.2088C40.3996 44.0527 40.1152 43.9783 39.8429 44.0223L34.1478 44.9451C33.6971 45.0181 33.4921 45.369 33.7492 45.6273L34.7874 46.6697C34.9428 46.8257 35.2274 46.9003 35.4996 46.856L41.1948 45.9333C41.6455 45.8604 41.8505 45.5096 41.5932 45.2511Z" fill="#2C2C2B"/>
</g>
<g id="Group_11">
<path id="Vector_9" d="M50.4197 43.8244L49.3819 42.7821C49.2263 42.6259 48.9419 42.5515 48.6696 42.5955L42.9742 43.5184C42.5236 43.5914 42.3188 43.9422 42.5759 44.2005L43.6139 45.2429C43.7692 45.3989 44.0537 45.4734 44.3259 45.4292L50.0213 44.5064C50.4719 44.4334 50.6768 44.0828 50.4197 43.8244Z" fill="#2C2C2B"/>
</g>
<g id="Group_12">
<path id="Vector_10" d="M51.4025 42.7745L52.4406 43.8171C52.5959 43.9732 52.8803 44.0475 53.1528 44.0035L58.8482 43.0808C59.2986 43.0076 59.5034 42.6569 59.2463 42.3985L58.2083 41.3562C58.053 41.2002 57.7686 41.1256 57.4963 41.1698L51.8009 42.0926C51.3503 42.1655 51.1454 42.5162 51.4025 42.7745Z" fill="#2C2C2B"/>
</g>
<g id="Group_13">
<path id="Vector_11" d="M44.3324 47.6964L43.2944 46.654C43.1389 46.498 42.8544 46.4236 42.5822 46.4676L36.887 47.3903C36.4364 47.4634 36.2313 47.8143 36.4884 48.0726L37.5267 49.115C37.682 49.2709 37.9664 49.3454 38.2385 49.3013L43.9341 48.3784C44.3847 48.3056 44.5898 47.9547 44.3324 47.6964Z" fill="#2C2C2B"/>
</g>
<g id="Group_14">
<path id="Vector_12" d="M46.3532 47.688C46.5088 47.844 46.7932 47.9186 47.0654 47.8746L52.7606 46.9516C53.2113 46.8786 53.4161 46.5279 53.1588 46.2696L52.121 45.2272C51.9656 45.0713 51.681 44.9967 51.4087 45.0409L45.7136 45.9636C45.2631 46.0366 45.0579 46.3873 45.3152 46.6456L46.3532 47.688Z" fill="#2C2C2B"/>
</g>
<g id="Group_15">
<path id="Vector_13" d="M54.1418 45.22L55.1798 46.2622C55.3352 46.4184 55.6196 46.4928 55.8921 46.4488L61.5874 45.526C62.0379 45.453 62.2427 45.1021 61.9856 44.8438L60.9476 43.8014C60.7922 43.6455 60.5078 43.571 60.2356 43.6151L54.5402 44.538C54.0895 44.611 53.8847 44.9615 54.1418 45.22Z" fill="#2C2C2B"/>
</g>
<g id="Group_16">
<path id="Vector_14" d="M46.0341 49.0993C45.8786 48.9432 45.594 48.8689 45.3217 48.9129L39.6265 49.8356C39.1759 49.9086 38.9711 50.2593 39.2284 50.5176L40.2662 51.5602C40.4215 51.7162 40.7061 51.7908 40.9784 51.7465L46.6736 50.8238C47.124 50.7509 47.3293 50.3999 47.0719 50.1418L46.0341 49.0993Z" fill="#2C2C2B"/>
</g>
<g id="Group_17">
<path id="Vector_15" d="M54.8603 47.6726C54.7048 47.5165 54.4203 47.4421 54.1481 47.4862L48.4527 48.4089C48.0021 48.4819 47.7972 48.8328 48.0545 49.0911L49.0924 50.1335C49.2477 50.2895 49.5321 50.3641 49.8046 50.3198L55.5 49.3971C55.9504 49.3242 56.1552 48.9732 55.8981 48.7151L54.8603 47.6726Z" fill="#2C2C2B"/>
</g>
<g id="Group_18">
<path id="Vector_16" d="M64.7248 47.2893L63.687 46.2469C63.5315 46.0907 63.2471 46.0163 62.9748 46.0604L57.2794 46.9831C56.8288 47.0561 56.624 47.407 56.8811 47.6653L57.9191 48.7077C58.0744 48.8637 58.3591 48.9383 58.6313 48.894L64.3265 47.9713C64.7773 47.8984 64.9822 47.5476 64.7248 47.2893Z" fill="#2C2C2B"/>
</g>
<g id="Group_19">
<path id="Vector_17" d="M50.2949 53.3786C50.1393 53.2225 49.8547 53.1482 49.5824 53.1922L43.8873 54.1149C43.4366 54.1879 43.2318 54.5388 43.4891 54.7972L44.5269 55.8395C44.6823 55.9955 44.9669 56.0701 45.2391 56.0259L50.9343 55.1032C51.3847 55.0304 51.59 54.6794 51.3327 54.4212L50.2949 53.3786Z" fill="#555252"/>
</g>
<g id="Group_20">
<path id="Vector_18" d="M59.1215 51.9529C58.966 51.7967 58.6816 51.7224 58.4093 51.7664L52.7139 52.6891C52.2633 52.7621 52.0585 53.1129 52.3158 53.3711L53.3536 54.4137C53.5089 54.5697 53.7933 54.6443 54.0658 54.6L59.7612 53.6773C60.2116 53.6044 60.4164 53.2534 60.1593 52.9953L59.1215 51.9529Z" fill="#555252"/>
</g>
<g id="Group_21">
<path id="Vector_19" d="M68.9856 51.5685L67.9476 50.5261C67.7922 50.37 67.5078 50.2957 67.2353 50.3397L61.54 51.2622C61.0895 51.3352 60.8847 51.6861 61.1418 51.9444L62.1798 52.9868C62.3352 53.1428 62.6196 53.2174 62.8918 53.1731L68.5872 52.2504C69.0379 52.1775 69.2427 51.8268 68.9856 51.5685Z" fill="#555252"/>
</g>
</g>
<g id="Group_22">
<g id="Group_23">
<path id="Vector_20" d="M39.1623 36.002C39.0466 35.7905 38.6967 35.6823 38.3814 35.7595C37.6568 35.9373 36.8726 35.9157 36.1728 35.6981C35.984 35.6395 35.8088 35.5675 35.6464 35.4858L37.9256 34.9268C38.2414 34.8494 38.4033 34.6151 38.2879 34.4038C38.172 34.1925 37.8223 34.0838 37.507 34.1614L34.8162 34.8213C34.7644 34.7527 34.7161 34.6824 34.676 34.6091C34.625 34.5158 34.5892 34.4217 34.5606 34.3273L37.2383 33.6705C37.5539 33.5931 37.7161 33.359 37.6004 33.1477C37.4848 32.9363 37.1353 32.828 36.8195 32.9051L34.5986 33.4498C34.8329 32.8605 35.4762 32.3534 36.3943 32.1283C36.7101 32.0508 36.8722 31.8167 36.7566 31.6054C36.6409 31.3938 36.2912 31.2855 35.9754 31.3628C34.4021 31.7488 33.3954 32.7163 33.2932 33.77L32.7604 33.9007C32.4449 33.9781 32.2825 34.2123 32.3981 34.4235C32.4886 34.5887 32.7216 34.691 32.9697 34.691C33.0393 34.691 33.1101 34.683 33.179 34.666L33.4054 34.6105C33.4404 34.704 33.4822 34.797 33.5328 34.8894C33.5729 34.9625 33.6192 35.0331 33.6677 35.103L33.4477 35.1568C33.1321 35.2343 32.97 35.4684 33.0856 35.6798C33.1758 35.8448 33.4091 35.9473 33.6572 35.9473C33.7268 35.9473 33.7974 35.9393 33.8665 35.9223L34.3592 35.8014C34.7208 36.0658 35.1604 36.2823 35.6605 36.4375C36.2103 36.6084 36.7969 36.6941 37.3854 36.6941C37.8618 36.6941 38.3395 36.638 38.8002 36.5248C39.1158 36.4475 39.2779 36.2133 39.1623 36.002Z" fill="#4AB4E6"/>
</g>
</g>
<g id="Group_24">
<g id="Group_25">
<path id="Vector_21" d="M40.9517 33.2068C41.4975 34.7973 40.0141 36.3828 37.6387 36.7482C35.2631 37.1136 32.8949 36.1205 32.3494 34.5301C31.8036 32.9395 33.2869 31.3541 35.6623 30.9888C38.0379 30.6234 40.4059 31.6163 40.9517 33.2068Z" fill="#2BAE7E"/>
</g>
<g id="Group_26">
<path id="Vector_22" d="M36.9411 35.8375C36.8598 35.8375 36.7787 35.8266 36.7026 35.8048L33.9996 35.0335C33.6905 34.9452 33.5464 34.7059 33.6783 34.4988C33.8104 34.2916 34.168 34.1956 34.4769 34.2836L36.6198 34.8952L38.2236 32.3756C38.3555 32.1686 38.7129 32.0726 39.0223 32.1605C39.3317 32.2488 39.4755 32.4882 39.3436 32.6952L37.5012 35.5898C37.4378 35.6891 37.3181 35.7678 37.1683 35.8081C37.0954 35.8276 37.0183 35.8375 36.9411 35.8375Z" fill="white"/>
</g>
</g>
<g id="Group_27">
<g id="Group_28">
<path id="Vector_23" d="M89.7089 80.532C89.7089 80.532 92.5914 83.1306 102.379 81.0529C112.167 78.9751 109.943 77.269 109.943 77.269L98.0899 65.2568C94.957 60.9765 91.302 56.2674 88.4104 53.3555C85.2205 50.1435 79.7378 46.262 76.1202 44.8089C74.0781 43.9888 69.0018 42.5042 64.6682 41.5619L58.6906 35.2469C58.919 35.1828 58.9859 35.0097 58.8361 34.85L56.2035 32.0424C56.0484 31.8771 55.7175 31.7861 55.4631 31.8371L54.9402 31.2847L55.0416 31.2627C55.2975 31.207 55.3783 31.0245 55.2213 30.8568L52.5885 28.0494C52.4314 27.8817 52.0936 27.7903 51.8375 27.8459L51.7111 27.8734L50.5298 26.6255C49.339 25.3673 46.7939 24.6854 44.8745 25.11L26.7369 29.1227C24.8173 29.5473 24.221 30.9241 25.4121 32.1823L25.8919 32.6892L25.5943 32.7539C25.3383 32.8094 25.2575 32.9921 25.4145 33.1596L28.0474 35.9672C28.2044 36.1347 28.5424 36.2263 28.7983 36.1706L29.1208 36.1005L30.9633 38.0469C28.2331 37.333 26.3906 36.8759 26.0036 36.8502C24.3017 36.7368 22.8607 37.7414 26.369 39.4473C28.0884 40.2834 31.5545 41.257 34.8582 42.1618L36.3165 43.7022C35.0363 43.9047 35.4534 45.8982 36.3505 46.6719C37.4314 47.604 39.1382 47.9435 40.1793 47.7832L41.1483 48.8069C37.778 48.5532 38.9185 49.91 39.5839 50.5615C40.264 51.2275 42.4871 51.9441 42.4871 51.9441C42.4871 51.9441 41.9614 52.1257 42.2964 52.9008C42.533 53.4479 43.803 54.7555 45.1894 55.1673C45.937 55.3893 46.9353 55.6314 47.5451 55.5646L48.68 56.7636C49.8708 58.0217 52.4157 58.7036 54.3353 58.279L55.337 58.0573C57.8564 59.4948 63.0412 62.3889 67.4053 63.0551C71.5993 63.6949 77.8495 66.3299 81.9742 69.5203L89.7089 80.532Z" fill="#23282C" fill-opacity="0.1"/>
</g>
</g>
<g id="Group_29">
<g id="Group_30">
<path id="Vector_24" d="M111.471 75.8513L105.852 68.9772C101.868 63.6346 98.1307 58.2295 94.5996 52.7808C92.9996 50.3117 91.4273 48.0481 90.0334 46.3169C86.9362 42.4701 81.5866 37.8355 78.0395 36.1142C74.4924 34.393 61.5806 30.2395 59.923 31.5646C58.2653 32.8894 62.7326 35.1005 64.6367 35.9053C66.5407 36.71 72.736 38.2047 72.4047 39.71C72.0735 41.2154 30.7122 27.0968 28.7094 26.9512C27.0318 26.8293 25.5942 28.0537 29.0294 30.081C32.4646 32.1083 43.0679 34.7636 44.8615 36.0701C46.6552 37.3767 54.6952 50.4483 57.0313 52.0748C59.3674 53.7015 64.6811 57.4042 69.1533 58.2009C70.5979 58.4582 72.2873 59.008 74.0455 59.7775C79.0549 61.9699 82.9844 65.3991 85.0334 69.2262L89.8364 78.481C89.8364 78.481 92.6528 82.4861 103.681 80.5628C114.71 78.6395 111.471 75.8513 111.471 75.8513Z" fill="#F4B389"/>
</g>
<g id="Group_31">
<path id="Vector_25" d="M77.85 45.7081L63.2272 26.6109C63.453 26.5316 63.5218 26.3224 63.3768 26.1313L60.8289 22.7717C60.6789 22.5738 60.3547 22.467 60.1031 22.5308L59.597 21.8698L59.6972 21.8423C59.9501 21.7729 60.0328 21.5523 59.8806 21.3517L57.3327 17.9921C57.1808 17.7916 56.8493 17.6843 56.5964 17.7536L56.4713 17.7878L55.328 16.2946C54.1753 14.7892 51.6798 13.9898 49.7825 14.5183L31.8554 19.5125C29.958 20.041 29.3487 21.7051 30.5016 23.2105L30.9659 23.817L30.6721 23.8977C30.4191 23.9669 30.3364 24.1876 30.4886 24.3881L33.0363 27.7478C33.1884 27.9482 33.5197 28.0556 33.7728 27.9862L34.0915 27.8991L53.0235 52.6241C54.1764 54.1295 56.6718 54.9287 58.569 54.4003L76.4963 49.4062C78.3934 48.8777 79.0027 47.2136 77.85 45.7081Z" fill="#1D1E1C"/>
</g>
<g id="Group_32">
<path id="Vector_26" d="M75.7382 45.3263L54.4286 17.3969C53.5749 16.278 51.725 15.6842 50.3179 16.0774L33.9666 20.6459C32.5593 21.0391 32.1064 22.2763 32.9604 23.3953L54.2697 51.3248C55.1234 52.4436 56.9733 53.0374 58.3805 52.6443L74.7318 48.0756C76.139 47.6824 76.5919 46.4452 75.7382 45.3263Z" fill="white"/>
</g>
<g id="Group_33">
<path id="Vector_27" d="M46.86 18.3602L40.3775 20.2501C40.3078 20.2706 40.2174 20.2404 40.1768 20.1832L40.0397 19.9899C39.999 19.9325 40.0232 19.8692 40.093 19.8488L46.5752 17.9588C46.6452 17.9384 46.7355 17.9685 46.7762 18.0258L46.9131 18.2192C46.9539 18.2763 46.9298 18.3398 46.86 18.3602Z" fill="#575556"/>
</g>
<g id="Group_34">
<path id="Vector_28" d="M48.5568 17.7048C48.6538 17.8703 48.5561 18.033 48.3382 18.0678C48.1206 18.1026 47.8654 17.9964 47.7684 17.8309C47.6714 17.6654 47.7692 17.503 47.9868 17.4682C48.2046 17.4334 48.4598 17.5393 48.5568 17.7048Z" fill="#575556"/>
</g>
<g id="Group_35">
<path id="Vector_29" d="M39.3231 37.9466C39.3231 37.9466 40.5503 38.3887 41.8011 39.7647C43.0519 41.1405 43.0785 42.4657 42.0522 42.6733C41.0259 42.8808 39.3421 42.4875 38.2892 41.37C37.2363 40.2525 36.9007 36.9756 39.3231 37.9466Z" fill="#F4B389"/>
</g>
<g id="Group_36">
<path id="Vector_30" d="M42.2429 43.4293C42.2429 43.4293 44.1733 44.033 45.3335 46.1618C46.0599 47.4942 44.8464 47.2994 44.8464 47.2994C44.8464 47.2994 47.3839 48.2678 48.2679 50.0911C49.1523 51.9144 47.025 51.3668 45.7168 50.8936C44.4088 50.4205 43.2322 48.8865 43.02 48.2413C42.7198 47.3278 43.2235 47.1079 43.2235 47.1079C43.2235 47.1079 41.1274 46.2824 40.4964 45.5014C39.8653 44.7204 38.7767 43.0707 42.2429 43.4293Z" fill="#F4B389"/>
</g>
<g id="Group_37">
<path id="Vector_31" d="M80.6419 65.6214L83.4597 70.4526C83.8217 71.0733 84.7694 71.4649 85.5748 71.3265L108.136 67.4516C108.72 67.3511 108.958 66.89 108.654 66.4479L104.174 59.9334C103.885 59.5131 103.216 59.2733 102.678 59.3971L81.349 64.2704C80.6067 64.4401 80.2975 65.0307 80.6419 65.6214Z" fill="#FF7900"/>
</g>
<g id="Group_38">
<path id="Vector_32" d="M104.428 64.0071L103.808 64.1289C103.492 64.1911 103.108 64.0444 102.95 63.8014L102.641 63.3249C102.483 63.0819 102.612 62.8345 102.928 62.7724L103.548 62.6508C103.864 62.5886 104.248 62.7351 104.406 62.9781L104.715 63.4545C104.873 63.6975 104.744 63.945 104.428 64.0071Z" fill="#C42C0E"/>
</g>
<g id="Group_39">
<path id="Vector_33" d="M99.7406 65.093L99.1206 65.2148C98.8043 65.277 98.4202 65.1303 98.2624 64.8874L97.9534 64.411C97.7958 64.168 97.9244 63.9205 98.2407 63.8584L98.8606 63.7367C99.1769 63.6745 99.5612 63.8211 99.7188 64.0641L100.028 64.5406C100.185 64.7835 100.057 65.0309 99.7406 65.093Z" fill="#C42C0E"/>
</g>
<g id="Group_40">
<path id="Vector_34" d="M95.0534 66.1791L94.4333 66.3008C94.1171 66.3631 93.7329 66.2164 93.5753 65.9733L93.2659 65.497C93.1083 65.2539 93.2369 65.0065 93.5532 64.9444L94.1731 64.8226C94.4894 64.7605 94.8737 64.907 95.0313 65.1501L95.3407 65.6264C95.4984 65.8695 95.3697 66.1169 95.0534 66.1791Z" fill="#C42C0E"/>
</g>
<g id="Group_41">
<path id="Vector_35" d="M90.3669 67.265L89.7468 67.3868C89.4308 67.449 89.0465 67.3024 88.8889 67.0594L88.5795 66.583C88.4218 66.34 88.5504 66.0924 88.8667 66.0303L89.4866 65.9085C89.8029 65.8464 90.1872 65.9931 90.3449 66.2362L90.6543 66.7125C90.8119 66.9556 90.6832 67.2029 90.3669 67.265Z" fill="#C42C0E"/>
</g>
<g id="Group_42">
<path id="Vector_36" d="M85.6791 68.3518L85.059 68.4736C84.7428 68.5358 84.3587 68.3891 84.2008 68.1461L83.8918 67.6697C83.7343 67.4268 83.8629 67.1793 84.1792 67.1172L84.7991 66.9955C85.1154 66.9333 85.4996 67.0799 85.6572 67.3228L85.9662 67.7992C86.1239 68.0422 85.9954 68.2897 85.6791 68.3518Z" fill="#C42C0E"/>
</g>
</g>
<g id="Group_43">
<g id="Group_44">
<path id="Vector_37" d="M65.5998 38.5935L53.0106 42.0476C52.2735 42.2498 51.3149 41.9412 50.8696 41.3584L38.1729 24.7404C37.7277 24.1577 37.9643 23.5211 38.7014 23.3189L51.2908 19.8651C52.0278 19.6627 52.9864 19.9713 53.4317 20.5541L66.1284 37.1723C66.5735 37.755 66.337 38.3913 65.5998 38.5935Z" fill="#4A4A4A"/>
</g>
<g id="Group_45">
<path id="Vector_38" d="M60.6189 36.5121C60.3392 36.1491 60.295 35.7683 60.4497 35.4602C60.043 35.3518 59.6113 35.336 59.2311 35.4396C58.3891 35.6689 58.1203 36.3915 58.6305 37.0537C59.1408 37.7158 60.2369 38.0665 61.0787 37.8372C61.4589 37.7338 61.7209 37.529 61.8484 37.2753C61.3548 37.1437 60.8986 36.8751 60.6189 36.5121Z" fill="#333333"/>
</g>
<g id="Group_46">
<path id="Vector_39" d="M61.628 34.7327C61.2476 34.8363 60.9856 35.0409 60.8582 35.2948C61.3518 35.4262 61.8081 35.6947 62.0878 36.0579C62.3675 36.4209 62.4117 36.8017 62.257 37.1098C62.6634 37.2181 63.0954 37.234 63.4756 37.1304C64.3174 36.9011 64.5864 36.1783 64.0761 35.5164C63.5659 34.8542 62.4699 34.5034 61.628 34.7327Z" fill="#888888"/>
</g>
<g id="Group_47">
<path id="Vector_40" d="M61.854 36.145C61.5936 35.7951 61.1663 35.5368 60.7027 35.4107C60.5544 35.7084 60.5927 36.076 60.8529 36.4259C61.1132 36.7758 61.5405 37.0341 62.0041 37.1602C62.1526 36.8624 62.1143 36.4949 61.854 36.145Z" fill="#514F51"/>
</g>
<g id="Group_48">
<path id="Vector_41" d="M54.0643 39.6215L51.2134 40.3957L49.4841 38.1592L52.3346 37.3851L54.0643 39.6215Z" fill="#CCC5CC"/>
</g>
<g id="Group_49">
<path id="Vector_42" d="M52.8319 39.3481L49.9812 40.1222L48.2516 37.8857L51.1024 37.1116L52.8319 39.3481Z" fill="#888888"/>
</g>
</g>
<g id="Group_50">
<g id="Group_51">
<path id="Vector_43" d="M82.7691 36.6552C79.058 34.8761 64.9338 29.0641 63.2075 30.43C61.4814 31.7959 65.3446 33.6049 67.3363 34.4369C69.3278 35.2689 77.238 38.808 76.8977 40.361" fill="#F4B389"/>
</g>
</g>
<g id="Group_52">
<g id="Group_53">
<path id="Vector_44" d="M56.6499 29.0648C58.3622 31.0722 57.7038 33.3569 55.1794 34.1679C52.655 34.9787 49.2205 34.0087 47.5084 32.0012C45.796 29.9938 46.4545 27.7092 48.979 26.8982C51.5034 26.0874 54.9378 27.0573 56.6499 29.0648Z" fill="#2BAE7E"/>
</g>
<g id="Group_54">
<path id="Vector_45" d="M53.9786 28.5708L52.9624 32.0932L50.2648 31.3326" stroke="white" stroke-width="6.67759" stroke-linecap="round" stroke-linejoin="round"/>
</g>
</g>
</g>
</g>
</g>
</g>
<defs>
<clipPath id="clip0_1_5411">
<rect width="119.485" height="80" fill="white" transform="translate(0.264648)"/>
</clipPath>
</defs>
</svg>
