<svg width="43" height="36" viewBox="0 0 43 36" fill="none" xmlns="http://www.w3.org/2000/svg">
<path d="M1 34.8337V32.8435C1 29.1486 2.37443 25.6052 4.82093 22.9925C7.26742 20.3799 10.5856 18.9121 14.0455 18.9121C17.5053 18.9121 20.8235 20.3799 23.27 22.9925C25.7165 25.6052 27.0909 29.1486 27.0909 32.8435V34.8337" stroke="#E53935" stroke-linecap="round"/>
<path d="M23.3638 22.8914C23.3638 20.2522 24.3455 17.7212 26.093 15.855C27.8405 13.9888 30.2106 12.9404 32.682 12.9404C33.9056 12.9404 35.1173 13.1978 36.2479 13.6979C37.3784 14.198 38.4056 14.931 39.2709 15.855C40.1362 16.779 40.8225 17.876 41.2908 19.0833C41.7591 20.2906 42.0001 21.5846 42.0001 22.8914V23.8865" stroke="#E53935" stroke-linecap="round"/>
<path d="M14.0454 18.9118C16.0224 18.9118 17.9185 18.073 19.3165 16.5801C20.7145 15.0872 21.4999 13.0623 21.4999 10.951C21.4999 8.83965 20.7145 6.81479 19.3165 5.32185C17.9185 3.82892 16.0224 2.9902 14.0454 2.9902C12.0683 2.9902 10.1722 3.82892 8.77421 5.32185C7.37621 6.81479 6.59082 8.83965 6.59082 10.951C6.59082 13.0623 7.37621 15.0872 8.77421 16.5801C10.1722 18.073 12.0683 18.9118 14.0454 18.9118ZM32.6817 12.9412C34.1645 12.9412 35.5866 12.3121 36.6351 11.1924C37.6836 10.0727 38.2726 8.55409 38.2726 6.97059C38.2726 5.38709 37.6836 3.86845 36.6351 2.74874C35.5866 1.62904 34.1645 1 32.6817 1C31.1989 1 29.7769 1.62904 28.7284 2.74874C27.6799 3.86845 27.0908 5.38709 27.0908 6.97059C27.0908 8.55409 27.6799 10.0727 28.7284 11.1924C29.7769 12.3121 31.1989 12.9412 32.6817 12.9412Z" stroke="#E53935" stroke-linecap="round" stroke-linejoin="round"/>
</svg>
