<svg width="35" height="35" viewBox="0 0 35 35" fill="none" xmlns="http://www.w3.org/2000/svg">
<path d="M0.363214 34.9822C0.488623 35.0187 0.621857 34.9985 0.734038 34.9261C0.846218 34.8536 0.928306 34.7346 0.962508 34.595C1.97112 30.3912 6.07021 29.3017 8.52026 28.6498C9.13424 28.4868 9.61897 28.3577 9.93428 28.2056C12.7251 26.8525 13.6348 24.6757 13.907 23.0874C13.9232 22.9929 13.9168 22.8953 13.8884 22.8045C13.8601 22.7136 13.8108 22.6327 13.7455 22.57C12.2923 21.1687 11.0663 19.0652 10.2927 16.6455C10.2709 16.5761 10.2365 16.5125 10.1918 16.4585C9.16852 15.2158 8.58097 13.9021 8.58097 12.8553C8.58097 12.2438 8.78759 11.8336 9.25273 11.524C9.3224 11.4775 9.38063 11.4123 9.42217 11.3344C9.4637 11.2565 9.48725 11.1683 9.49068 11.0777C9.7071 5.50549 13.2598 1.11904 17.6174 1.0906L17.7222 1.09825C22.1013 1.16607 25.6315 5.6466 25.7578 11.2976C25.7595 11.3748 25.776 11.4508 25.806 11.5203C25.8361 11.5899 25.8791 11.6516 25.9321 11.7012C26.2386 11.9911 26.3815 12.3586 26.3815 12.8574C26.3815 13.7336 25.9634 14.8111 25.2055 15.8897C25.1694 15.9416 25.1415 16 25.1232 16.0625C24.3398 18.8366 22.9337 21.2858 21.267 22.7844C21.198 22.8467 21.1453 22.9287 21.1146 23.0217C21.0839 23.1147 21.0763 23.2153 21.0927 23.3127C21.3649 24.8999 22.2746 27.0757 25.0655 28.431C25.3955 28.5907 25.9076 28.7154 26.5568 28.8718C28.9824 29.4581 33.0413 30.4415 34.0372 34.595C34.0539 34.6644 34.0827 34.7294 34.1219 34.7864C34.1612 34.8433 34.21 34.8911 34.2658 34.9269C34.3215 34.9628 34.383 34.986 34.4468 34.9953C34.5106 35.0046 34.5754 34.9998 34.6375 34.9811C34.6996 34.9625 34.7578 34.9303 34.8088 34.8865C34.8598 34.8427 34.9026 34.7881 34.9347 34.7258C34.9668 34.6636 34.9876 34.5948 34.9959 34.5236C35.0042 34.4523 34.9999 34.38 34.9832 34.3106C33.8326 29.5117 29.2341 28.3993 26.7644 27.802C26.1916 27.6631 25.6971 27.5438 25.4562 27.4257C23.6348 26.5419 22.5126 25.1953 22.116 23.4166C23.8071 21.7944 25.2221 19.2916 26.031 16.4847C26.8898 15.2377 27.3618 13.9535 27.3618 12.8563C27.3618 12.1245 27.1502 11.5142 26.7311 11.0372C26.4981 4.90714 22.5821 0.0798531 17.7222 0.00218776L17.5762 0C12.8044 0.0284408 8.87181 4.72883 8.52809 10.7528C7.91509 11.256 7.60369 11.9616 7.60369 12.8574C7.60369 14.1515 8.2588 15.6993 9.40549 17.1192C10.1977 19.5509 11.4257 21.6872 12.8877 23.1826C12.493 24.9678 11.3698 26.3187 9.54454 27.2037C9.30855 27.3185 8.83851 27.4443 8.29406 27.5887C5.80581 28.2494 1.17598 29.48 0.0165644 34.3128C-0.0169192 34.4529 0.000789561 34.6021 0.0657963 34.7277C0.130803 34.8532 0.237785 34.9448 0.363214 34.9822Z" fill="black"/>
</svg>
