<svg width="71" height="56" viewBox="0 0 71 56" fill="none" xmlns="http://www.w3.org/2000/svg">
<g id="ph:image-thin">
<path id="Vector" d="M59.2708 9.625H11.4975C10.6336 9.625 9.80512 9.90156 9.19427 10.3938C8.58341 10.8861 8.24023 11.5538 8.24023 12.25V43.75C8.24023 44.4462 8.58341 45.1139 9.19427 45.6061C9.80512 46.0984 10.6336 46.375 11.4975 46.375H59.2708C60.1346 46.375 60.9631 46.0984 61.574 45.6061C62.1848 45.1139 62.528 44.4462 62.528 43.75V12.25C62.528 11.5538 62.1848 10.8861 61.574 10.3938C60.9631 9.90156 60.1346 9.625 59.2708 9.625ZM11.4975 11.375H59.2708C59.5587 11.375 59.8349 11.4672 60.0385 11.6313C60.2421 11.7954 60.3565 12.0179 60.3565 12.25V36.8375L51.4289 29.6428C51.1263 29.3981 50.7667 29.2039 50.3708 29.0714C49.9748 28.9389 49.5504 28.8707 49.1217 28.8707C48.693 28.8707 48.2685 28.9389 47.8725 29.0714C47.4766 29.2039 47.117 29.3981 46.8144 29.6428L40.6175 34.6369L27.9087 24.3928C27.6061 24.1481 27.2465 23.9539 26.8506 23.8214C26.4547 23.6889 26.0302 23.6207 25.6015 23.6207C25.1728 23.6207 24.7483 23.6889 24.3524 23.8214C23.9564 23.9539 23.5969 24.1481 23.2942 24.3928L10.4117 34.7812V12.25C10.4117 12.0179 10.5261 11.7954 10.7298 11.6313C10.9334 11.4672 11.2095 11.375 11.4975 11.375ZM10.4117 43.75V37.2619L24.8442 25.6309C24.945 25.5496 25.0647 25.485 25.1965 25.441C25.3284 25.397 25.4696 25.3743 25.6123 25.3743C25.755 25.3743 25.8963 25.397 26.0281 25.441C26.1599 25.485 26.2797 25.5496 26.3805 25.6309L49.9495 44.625H11.4975C11.2095 44.625 10.9334 44.5328 10.7298 44.3687C10.5261 44.2046 10.4117 43.9821 10.4117 43.75ZM59.2708 44.625H53.0277L42.1701 35.875L48.3671 30.8809C48.4679 30.7996 48.5876 30.735 48.7194 30.691C48.8513 30.647 48.9925 30.6243 49.1352 30.6243C49.2779 30.6243 49.4192 30.647 49.551 30.691C49.6828 30.735 49.8026 30.7996 49.9034 30.8809L60.3565 39.3116V43.75C60.3565 43.9821 60.2421 44.2046 60.0385 44.3687C59.8349 44.5328 59.5587 44.625 59.2708 44.625ZM40.8129 21.875C40.8129 21.5289 40.9403 21.1905 41.1789 20.9028C41.4175 20.615 41.7566 20.3907 42.1534 20.2582C42.5502 20.1258 42.9868 20.0911 43.4081 20.1586C43.8293 20.2261 44.2162 20.3928 44.5199 20.6376C44.8236 20.8823 45.0304 21.1941 45.1142 21.5336C45.198 21.8731 45.155 22.2249 44.9906 22.5447C44.8263 22.8645 44.548 23.1378 44.1908 23.3301C43.8337 23.5224 43.4139 23.625 42.9844 23.625C42.4085 23.625 41.8562 23.4406 41.4489 23.1124C41.0417 22.7842 40.8129 22.3391 40.8129 21.875Z" fill="#A99F96"/>
</g>
</svg>
