<svg width="24" height="24" viewBox="0 0 24 24" fill="none" xmlns="http://www.w3.org/2000/svg">
<g id="simple-icons:zelle">
<path id="Vector" d="M13.5587 24H10.7177C10.5896 24 10.4667 23.9491 10.3761 23.8585C10.2856 23.768 10.2347 23.6451 10.2347 23.517V20.752H5.63768C5.46113 20.7517 5.29188 20.6815 5.16704 20.5566C5.0422 20.4318 4.97194 20.2626 4.97168 20.086V17.852C4.97178 17.7027 5.02176 17.5577 5.11368 17.44L13.2527 7.058H6.00268C5.82578 7.058 5.65613 6.98773 5.53104 6.86264C5.40595 6.73755 5.33568 6.5679 5.33568 6.391V3.914C5.33568 3.547 5.63468 3.248 6.00168 3.248H10.2317V0.483C10.2317 0.217 10.4487 0 10.7147 0H13.5557C13.8217 0 14.0387 0.217 14.0387 0.483V3.248H18.3617C18.7287 3.248 19.0277 3.547 19.0277 3.914V6.051C19.0274 6.19952 18.9778 6.34374 18.8867 6.461L10.6967 16.942H18.3617C18.7287 16.942 19.0277 17.241 19.0277 17.608V20.085C19.0277 20.2617 18.9575 20.4312 18.8327 20.5563C18.7078 20.6813 18.5384 20.7517 18.3617 20.752H14.0417V23.517C14.0417 23.6451 13.9908 23.768 13.9002 23.8585C13.8096 23.9491 13.6868 24 13.5587 24Z" fill="black"/>
</g>
</svg>
