<svg width="34" height="39" viewBox="0 0 34 39" fill="none" xmlns="http://www.w3.org/2000/svg">
<g id="simple-icons:venmo">
<path id="Vector" d="M30.8437 21.2934C30.4654 21.2934 30.3039 20.886 30.3053 20.2302C30.3053 19.3651 30.4767 17.6738 31.314 17.6738C31.6922 17.6738 31.8197 18.0682 31.8197 18.6445C31.8197 19.5096 31.6356 21.2934 30.8437 21.2934ZM31.5548 15.8121C29.1791 15.8121 28.1477 17.8978 28.1477 20.1264C28.1477 21.8177 28.7442 23.1681 30.5462 23.1681C32.9786 23.1681 34 20.886 34 18.6834C34 17.0197 33.3455 15.8121 31.5548 15.8121ZM26.1248 15.8121C25.3342 15.8121 24.7591 16.088 24.1513 16.5863C23.9332 16.14 23.4968 15.8121 22.831 15.8121C22.0632 15.8121 21.4894 16.1676 21.0644 16.5214L21.0077 15.9306H19.1817L18.207 22.9977H20.3405L21.0191 18.0423C21.2018 17.9368 21.4767 17.7923 21.7529 17.7923C21.9583 17.7923 22.1312 17.8718 22.1312 18.2257C22.1312 18.3166 22.1085 18.461 22.0972 18.5795L21.4894 22.9977H23.6116L24.2887 18.0423C24.4842 17.9238 24.7477 17.7923 25.0112 17.7923C25.2181 17.7923 25.3909 17.8718 25.3909 18.2257C25.3909 18.3166 25.3668 18.461 25.3555 18.5795L24.7477 22.9977H26.8713L27.5244 18.2776C27.5598 18.0293 27.5938 17.6479 27.5938 17.3865C27.5938 16.4419 27.2156 15.8121 26.1248 15.8121ZM16.3908 15.8121C15.5762 15.8121 15.0025 16.1676 14.5676 16.4954L14.5435 15.9306H12.6962L11.7201 22.9977H13.855L14.5322 18.0423C14.7163 17.9368 14.9912 17.7923 15.266 17.7923C15.4742 17.7923 15.6457 17.8718 15.6457 18.1851C15.6457 18.3166 15.6117 18.5536 15.6003 18.6704L15.0025 22.9977H17.1261L17.7806 18.2776C17.8146 18.0293 17.85 17.6479 17.85 17.3865C17.85 16.4419 17.4703 15.8121 16.3908 15.8121ZM8.41358 18.7889C8.47167 18.0017 8.99867 17.4515 9.401 17.4515C9.6305 17.4515 9.82458 17.6089 9.82458 17.9238C9.82458 18.5795 8.8145 18.7889 8.41358 18.7889ZM9.60783 15.8121C7.3355 15.8121 6.23333 18.0682 6.23333 20.1913C6.23333 21.8306 6.9105 23.1405 8.80317 23.1405C9.54975 23.1405 10.319 22.9571 10.812 22.6828L11.0755 20.6377C10.3757 21.0434 9.83733 21.2009 9.27492 21.2009C8.75783 21.2009 8.36825 20.886 8.36825 20.0858C9.53842 20.0728 11.5586 19.5226 11.5586 17.7274C11.5586 16.6123 10.8587 15.8121 9.60783 15.8121ZM3.60258 16.2455C3.72867 16.5474 3.80942 16.9142 3.80942 17.4515C3.80942 18.4351 3.20167 19.8764 2.70867 20.7951L2.18025 15.9436L0 16.1806L0.99875 22.9977H3.48783C4.57867 21.3583 5.92167 19.0243 5.92167 17.2291C5.92167 16.6659 5.81825 16.2195 5.58875 15.7861L3.60258 16.2455Z" fill="black"/>
</g>
</svg>
