<svg width="14" height="15" viewBox="0 0 14 15" fill="none" xmlns="http://www.w3.org/2000/svg">
<g id="vuesax/outline/truck-tick">
<g id="truck-tick">
<path id="Vector" d="M7.73822 9.06651H1.47398C1.2405 9.06651 1.04688 8.87289 1.04688 8.63941V5.00615C1.04688 4.82392 1.16076 4.66445 1.32591 4.60181C1.49676 4.53917 1.68469 4.59044 1.79859 4.72711C2.14597 5.14283 2.68697 5.3763 3.22228 5.35922C3.67786 5.34783 4.09926 5.177 4.41816 4.87518C4.56623 4.74989 4.68582 4.60182 4.77694 4.43667C4.95347 4.13485 5.0389 3.80455 5.03321 3.46856C5.02182 2.94464 4.79404 2.46628 4.4068 2.1189C4.27012 1.99931 4.22455 1.81137 4.28719 1.64623C4.34984 1.48108 4.5093 1.36719 4.68584 1.36719H8.87717C9.11065 1.36719 9.30428 1.56081 9.30428 1.79429V7.48906C9.30428 8.36605 8.60382 9.06651 7.73822 9.06651ZM1.90109 8.2123H7.73822C8.13116 8.2123 8.45006 7.89339 8.45006 7.50046V2.2328H5.56852C5.76783 2.60296 5.87603 3.01869 5.88742 3.45149C5.89881 3.94693 5.77352 4.43667 5.52295 4.86378C5.38627 5.10865 5.19835 5.34215 4.99334 5.51299C4.53776 5.94579 3.91133 6.20205 3.24504 6.21913C2.76668 6.23622 2.30542 6.11663 1.90679 5.90023V8.2123H1.90109Z" fill="#C52A1D"/>
<path id="Vector_2" d="M11.1551 12.4823H10.5856C10.3521 12.4823 10.1585 12.2887 10.1585 12.0552C10.1585 11.6622 9.83959 11.3433 9.44665 11.3433C9.05371 11.3433 8.7348 11.6622 8.7348 12.0552C8.7348 12.2887 8.54118 12.4823 8.30769 12.4823H6.02979C5.79631 12.4823 5.60268 12.2887 5.60268 12.0552C5.60268 11.6622 5.28378 11.3433 4.89084 11.3433C4.4979 11.3433 4.17899 11.6622 4.17899 12.0552C4.17899 12.2887 3.98537 12.4823 3.75189 12.4823H3.18241C2.00359 12.4823 1.04688 11.5256 1.04688 10.3468V8.63833C1.04688 8.40484 1.2405 8.21122 1.47398 8.21122H7.73822C8.13116 8.21122 8.45006 7.89231 8.45006 7.49938V3.51304C8.45006 3.27956 8.64369 3.08594 8.87717 3.08594H9.92502C10.4888 3.08594 11.007 3.38777 11.286 3.87752L12.2599 5.58025C12.3339 5.71122 12.3339 5.87637 12.2599 6.00735C12.1858 6.13833 12.0434 6.21806 11.8897 6.21806H11.1551C11.0753 6.21806 11.0127 6.2807 11.0127 6.36042V8.06885C11.0127 8.14858 11.0753 8.21122 11.1551 8.21122H12.8635C13.097 8.21122 13.2906 8.40484 13.2906 8.63833V10.3468C13.2906 11.5256 12.3339 12.4823 11.1551 12.4823ZM10.9558 11.6281H11.1551C11.8612 11.6281 12.4364 11.0529 12.4364 10.3468V9.06544H11.1551C10.6084 9.06544 10.1585 8.61555 10.1585 8.06885V6.36042C10.1585 5.81373 10.6027 5.36384 11.1551 5.36384L10.5457 4.29892C10.4204 4.07683 10.1813 3.94015 9.92502 3.94015H9.30428V7.49938C9.30428 8.36498 8.60382 9.06544 7.73822 9.06544H1.90109V10.3468C1.90109 11.0529 2.47626 11.6281 3.18241 11.6281H3.38171C3.56964 10.9732 4.1733 10.4891 4.89084 10.4891C5.60838 10.4891 6.21204 10.9732 6.39996 11.6281H7.94322C8.13115 10.9732 8.73481 10.4891 9.45235 10.4891C10.1699 10.4891 10.7678 10.9732 10.9558 11.6281Z" fill="#C52A1D"/>
<path id="Vector_3" d="M4.89125 13.6224C4.02565 13.6224 3.3252 12.9219 3.3252 12.0563C3.3252 11.1907 4.02565 10.4902 4.89125 10.4902C5.75686 10.4902 6.45731 11.1907 6.45731 12.0563C6.45731 12.9219 5.75686 13.6224 4.89125 13.6224ZM4.89125 11.3444C4.49832 11.3444 4.17941 11.6634 4.17941 12.0563C4.17941 12.4492 4.49832 12.7681 4.89125 12.7681C5.28419 12.7681 5.6031 12.4492 5.6031 12.0563C5.6031 11.6634 5.28419 11.3444 4.89125 11.3444Z" fill="#C52A1D"/>
<path id="Vector_4" d="M9.44692 13.6224C8.58131 13.6224 7.88086 12.9219 7.88086 12.0563C7.88086 11.1907 8.58131 10.4902 9.44692 10.4902C10.3125 10.4902 11.013 11.1907 11.013 12.0563C11.013 12.9219 10.3125 13.6224 9.44692 13.6224ZM9.44692 11.3444C9.05398 11.3444 8.73507 11.6634 8.73507 12.0563C8.73507 12.4492 9.05398 12.7681 9.44692 12.7681C9.83986 12.7681 10.1588 12.4492 10.1588 12.0563C10.1588 11.6634 9.83986 11.3444 9.44692 11.3444Z" fill="#C52A1D"/>
<path id="Vector_5" d="M12.8632 9.06488H11.1548C10.6081 9.06488 10.1582 8.61499 10.1582 8.06829V6.35986C10.1582 5.81317 10.6081 5.36328 11.1548 5.36328H11.8894C12.0432 5.36328 12.1855 5.44301 12.2596 5.57968L13.2334 7.28811C13.2676 7.35076 13.2903 7.42478 13.2903 7.49882V8.63777C13.2903 8.87125 13.0967 9.06488 12.8632 9.06488ZM11.1548 6.2175C11.0751 6.2175 11.0124 6.28014 11.0124 6.35986V8.06829C11.0124 8.14802 11.0751 8.21066 11.1548 8.21066H12.4361V7.61272L11.6388 6.2175H11.1548Z" fill="#C52A1D"/>
<path id="Vector_6" d="M3.17609 6.21862C2.39022 6.21862 1.6499 5.87692 1.14876 5.27897C1.06903 5.19355 0.983622 5.07396 0.90959 4.96006C0.641937 4.55573 0.493873 4.07738 0.482483 3.57624C0.459704 2.7448 0.812786 1.96462 1.4506 1.435C1.93465 1.03637 2.51549 0.819983 3.13053 0.808594C3.80251 0.814289 4.47452 1.03639 4.97566 1.48627C5.54513 1.98741 5.87542 2.68787 5.89251 3.45097C5.90389 3.94641 5.7786 4.43615 5.52803 4.86326C5.39136 5.10813 5.20343 5.34163 4.99842 5.51247C4.54284 5.94527 3.91642 6.20153 3.25013 6.21862C3.22165 6.21862 3.19887 6.21862 3.17609 6.21862ZM3.17609 1.66281C3.1647 1.66281 3.15332 1.66281 3.14193 1.66281C2.72621 1.6685 2.32756 1.82227 1.99157 2.09562C1.55877 2.45438 1.31961 2.98969 1.331 3.55347C1.34239 3.89516 1.4392 4.21977 1.62144 4.48742C1.67269 4.56715 1.72393 4.64115 1.78657 4.70949C2.15104 5.14229 2.69205 5.37009 3.22166 5.3587C3.67724 5.34731 4.09864 5.17648 4.41755 4.87466C4.56561 4.74938 4.6852 4.6013 4.77632 4.43615C4.95286 4.13433 5.03829 3.80403 5.03259 3.46804C5.0212 2.94412 4.79343 2.46576 4.40618 2.11838C4.0645 1.82795 3.63167 1.66281 3.17609 1.66281Z" fill="#C52A1D"/>
<path id="Vector_7" d="M2.86929 4.50942C2.76109 4.50942 2.65857 4.46955 2.57315 4.38982L1.99797 3.84315C1.82713 3.678 1.82146 3.41035 1.98661 3.2395C2.15175 3.06866 2.41941 3.06296 2.59025 3.2281L2.86929 3.49574L3.76337 2.63016C3.93421 2.46501 4.20186 2.47068 4.36701 2.64153C4.53216 2.81237 4.52645 3.08006 4.35561 3.2452L3.16539 4.39552C3.07997 4.46955 2.97179 4.50942 2.86929 4.50942Z" fill="#C52A1D"/>
</g>
</g>
</svg>
