<svg width="31" height="16" viewBox="0 0 31 16" fill="none" xmlns="http://www.w3.org/2000/svg">
<path id="Vector" d="M30.8182 5.26741L23.3783 9.56987C23.2619 9.63715 23.1042 9.67494 22.9396 9.67494C22.7751 9.67494 22.6173 9.63715 22.501 9.56987C22.3847 9.5026 22.3193 9.41135 22.3193 9.31621C22.3193 9.22106 22.3847 9.12982 22.501 9.06254L28.8822 5.37228H21.2347C18.0725 5.37166 14.9997 5.97888 12.4994 7.09846C9.99919 8.21805 8.21337 9.78647 7.42283 11.5571C7.38836 11.6343 7.31035 11.7027 7.20115 11.7514C7.09195 11.8001 6.95779 11.8263 6.81989 11.826C6.76757 11.826 6.71546 11.8221 6.6649 11.8143C6.50587 11.7905 6.36971 11.7311 6.2863 11.6493C6.2029 11.5674 6.17907 11.4698 6.22005 11.3778C7.07772 9.45253 9.01864 7.74699 11.737 6.52986C14.4554 5.31274 17.7968 4.65322 21.2347 4.6552H28.8853L22.501 0.964943C22.3847 0.897667 22.3193 0.80642 22.3193 0.711277C22.3193 0.616134 22.3847 0.524888 22.501 0.457611C22.6173 0.390335 22.7751 0.352539 22.9396 0.352539C23.1042 0.352539 23.2619 0.390334 23.3783 0.457611L30.8182 4.76008C30.8758 4.79337 30.9215 4.83292 30.9527 4.87644C30.9839 4.91997 31 4.96662 31 5.01374C31 5.06086 30.9839 5.10751 30.9527 5.15104C30.9215 5.19457 30.8758 5.23411 30.8182 5.26741ZM25.4196 14.6943H1.85997C1.69554 14.6943 1.53784 14.6565 1.42157 14.5893C1.3053 14.522 1.23998 14.4308 1.23998 14.3357V3.57959C1.23998 3.4845 1.17466 3.3933 1.05839 3.32606C0.942119 3.25882 0.784422 3.22105 0.61999 3.22105C0.455559 3.22105 0.297862 3.25882 0.181591 3.32606C0.0653203 3.3933 0 3.4845 0 3.57959V14.3357C0 14.621 0.195961 14.8946 0.544773 15.0963C0.893585 15.298 1.36668 15.4114 1.85997 15.4114H25.4196C25.584 15.4114 25.7417 15.3736 25.858 15.3064C25.9743 15.2391 26.0396 15.1479 26.0396 15.0528C26.0396 14.9577 25.9743 14.8665 25.858 14.7993C25.7417 14.7321 25.584 14.6943 25.4196 14.6943Z" fill="black"/>
</svg>
