<svg width="26" height="24" viewBox="0 0 26 24" fill="none" xmlns="http://www.w3.org/2000/svg">
<path d="M26 8C26.0005 7.90702 25.9879 7.81444 25.9625 7.725L24.1688 1.45C24.0482 1.03364 23.7962 0.667454 23.4504 0.406117C23.1045 0.14478 22.6835 0.00231617 22.25 0H3.75C3.31655 0.00231617 2.89547 0.14478 2.54965 0.406117C2.20382 0.667454 1.95182 1.03364 1.83125 1.45L0.0387507 7.725C0.012928 7.81438 -0.000117927 7.90696 8.03149e-07 8V10C8.03149e-07 10.7762 0.180726 11.5418 0.527865 12.2361C0.875003 12.9303 1.37902 13.5343 2 14V22C2 22.5304 2.21071 23.0391 2.58579 23.4142C2.96086 23.7893 3.46957 24 4 24H22C22.5304 24 23.0391 23.7893 23.4142 23.4142C23.7893 23.0391 24 22.5304 24 22V14C24.621 13.5343 25.125 12.9303 25.4721 12.2361C25.8193 11.5418 26 10.7762 26 10V8ZM3.75 2H22.25L23.6775 7H2.32625L3.75 2ZM10 9H16V10C16 10.7956 15.6839 11.5587 15.1213 12.1213C14.5587 12.6839 13.7957 13 13 13C12.2044 13 11.4413 12.6839 10.8787 12.1213C10.3161 11.5587 10 10.7956 10 10V9ZM8 9V10C8 10.7956 7.68393 11.5587 7.12132 12.1213C6.55871 12.6839 5.79565 13 5 13C4.20435 13 3.44129 12.6839 2.87868 12.1213C2.31607 11.5587 2 10.7956 2 10V9H8ZM22 22H4V14.9C4.3292 14.9664 4.66418 14.9999 5 15C5.77623 15 6.54179 14.8193 7.23607 14.4721C7.93035 14.125 8.53427 13.621 9 13C9.46574 13.621 10.0697 14.125 10.7639 14.4721C11.4582 14.8193 12.2238 15 13 15C13.7762 15 14.5418 14.8193 15.2361 14.4721C15.9303 14.125 16.5343 13.621 17 13C17.4657 13.621 18.0697 14.125 18.7639 14.4721C19.4582 14.8193 20.2238 15 21 15C21.3358 14.9999 21.6708 14.9664 22 14.9V22ZM21 13C20.2044 13 19.4413 12.6839 18.8787 12.1213C18.3161 11.5587 18 10.7956 18 10V9H24V10C24 10.7956 23.6839 11.5587 23.1213 12.1213C22.5587 12.6839 21.7956 13 21 13Z" fill="black"/>
</svg>
