<svg width="40" height="39" viewBox="0 0 40 39" fill="none" xmlns="http://www.w3.org/2000/svg">
<path id="Vector" d="M3.58333 0.0030065C3.3311 0.00347646 3.07888 0.00601536 2.82667 0.0106218C2.57667 0.0233128 2.32167 0.0436184 2.07333 0.11215C1.69803 0.202473 1.34218 0.427208 1.03504 0.767867C0.727905 1.10853 0.478268 1.55537 0.306667 2.07164C0.19 2.42192 0.116667 2.77727 0.0733333 3.16307C0.0266667 3.53873 0.0116667 3.92453 0.00666667 4.30527C0.00325468 4.48205 0.00103234 4.65889 0 4.83575L0 34.1698C0 34.3475 0.00333333 34.5201 0.005 34.6952C0.0116667 35.0759 0.0266667 35.4643 0.0716667 35.8425C0.116667 36.2232 0.191667 36.5811 0.308333 36.9314C0.538158 37.6204 0.905862 38.1804 1.35833 38.5304C1.58833 38.7081 1.82167 38.8223 2.075 38.8909C2.32167 38.9594 2.575 38.9822 2.825 38.9924L3.17167 39H36.8283L37.1733 38.9924C37.4233 38.9822 37.6783 38.9594 37.9267 38.8909C38.1767 38.8223 38.4117 38.7106 38.64 38.533C39.0936 38.1833 39.4621 37.6222 39.6917 36.9314C39.8083 36.5811 39.8833 36.2257 39.9267 35.8399C39.9717 35.4643 39.9867 35.0785 39.9933 34.6977C39.9967 34.5201 39.9983 34.3475 39.9983 34.1698L40 33.5454V4.83321C40 4.65554 39.9967 4.48294 39.9933 4.3078C39.9902 3.92336 39.9679 3.53984 39.9267 3.16053C39.8469 2.39617 39.6106 1.68977 39.2514 1.14227C38.8922 0.594781 38.4285 0.23423 37.9267 0.11215C37.6776 0.0496032 37.4258 0.0156649 37.1733 0.0106218C36.9217 -0.0002261 36.67 -0.00276556 36.4183 0.0030065H3.58333ZM3.58333 1.30257H36.82C36.93 1.30257 37.0383 1.30765 37.1483 1.31018C37.34 1.32034 37.565 1.33556 37.7733 1.3914C37.955 1.44217 38.1067 1.51832 38.2517 1.63C38.544 1.85601 38.7816 2.21781 38.93 2.66305C39.0064 2.89314 39.0592 3.13965 39.0867 3.39405C39.1233 3.70625 39.1333 4.04891 39.1383 4.34334C39.1417 4.50832 39.1433 4.67331 39.1433 4.84337V34.1647C39.1433 34.3297 39.1433 34.4947 39.1383 34.6622C39.1333 34.9541 39.1233 35.2968 39.085 35.614C39.0489 35.9875 38.9544 36.3423 38.8094 36.6485C38.6643 36.9546 38.473 37.2031 38.2517 37.373C38.1016 37.4886 37.9409 37.5691 37.775 37.6116C37.5693 37.6614 37.3616 37.6886 37.1533 37.6928L36.82 37.7004H3.17667C3.06667 37.7004 2.955 37.6954 2.85 37.6928C2.64065 37.6887 2.43178 37.6615 2.225 37.6116C2.04333 37.5608 1.89167 37.4847 1.745 37.373C1.45264 37.1479 1.21545 36.7858 1.06833 36.34C0.992181 36.1097 0.93936 35.8633 0.911667 35.609C0.878567 35.2958 0.86074 34.9794 0.858333 34.6622C0.856098 34.4956 0.854987 34.3289 0.855 34.1622V4.84083C0.855 4.67584 0.855 4.50832 0.858333 4.3408C0.865 4.05145 0.875 3.71133 0.911667 3.38897C0.945 3.11485 0.995 2.88387 1.06833 2.66051C1.21684 2.216 1.45443 1.85506 1.74667 1.63C1.89755 1.51511 2.05872 1.43471 2.225 1.3914C2.43333 1.33556 2.65833 1.3178 2.85 1.31018C2.95833 1.30511 3.06833 1.30511 3.17667 1.30257H3.58333ZM11.4333 10.6939C10.9333 10.7345 10.32 11.199 9.96667 11.8514C9.64833 12.4098 9.36667 13.3235 9.44 14.1814C10.0033 14.2576 10.565 13.7525 10.92 13.1205C11.2617 12.4656 11.495 11.5899 11.4333 10.6965V10.6939ZM15.1117 11.76V25.7023H16.5317V20.9381H18.4983C20.295 20.9381 21.5567 19.0624 21.5567 16.3389C21.5567 13.623 20.32 11.7574 18.5433 11.7574L15.1117 11.76ZM16.5317 13.5849H18.1683C19.4 13.5849 20.1033 14.5901 20.1033 16.3491C20.1033 18.1055 19.4 19.1208 18.1633 19.1208H16.5317V13.5849ZM11.275 14.3464C10.525 14.3718 9.89167 15.0571 9.525 15.0571C9.13333 15.0571 8.53667 14.387 7.89 14.4048C7.46935 14.4208 7.05878 14.6042 6.69912 14.9369C6.33947 15.2695 6.04328 15.7397 5.84 16.3008C4.96167 18.6055 5.60833 22.0245 6.46333 23.9028C6.87833 24.8317 7.37833 25.8546 8.03667 25.8166C8.65833 25.781 8.90333 25.2023 9.65833 25.2023C10.415 25.2023 10.635 25.8166 11.2917 25.7988C11.975 25.781 12.4033 24.8698 12.8167 23.9383C13.2933 22.8799 13.4883 21.857 13.5 21.8037C13.4883 21.7833 12.1833 21.0219 12.1717 18.735C12.1583 16.8212 13.1967 15.9099 13.245 15.8541C12.6583 14.5342 11.745 14.387 11.4283 14.3489C11.3773 14.3441 11.3261 14.3449 11.275 14.3464ZM24.9483 15.3541C23.2983 15.3541 22.2717 16.7069 22.195 18.5421H23.49C23.61 17.6334 24.105 17.0547 24.8983 17.0547C25.735 17.0547 26.2367 17.7298 26.2367 18.8593V19.6436L24.4083 19.8061C22.8233 19.9432 21.9283 21.0346 21.9283 22.8113C21.9283 24.6388 22.8417 25.8749 24.1483 25.8749C25.025 25.8749 25.8683 25.1617 26.255 24.0297H26.2867V25.7023H27.6V18.6969C27.6 16.6587 26.5667 15.3541 24.9483 15.3541ZM28.1817 15.5368L30.5917 25.7125C30.5917 25.7201 30.47 26.3217 30.47 26.3394C30.2617 27.3801 29.92 27.7887 29.285 27.7887C29.17 27.7887 28.9417 27.7887 28.84 27.7507V29.4411C28.94 29.469 29.285 29.4893 29.3983 29.4893C30.7817 29.4893 31.4417 28.6974 32.0117 26.2328L34.5117 15.5368H33.065L31.3783 23.8088H31.3533L29.665 15.5343L28.1817 15.5368ZM26.2367 21.093V21.895C26.2367 23.2174 25.4867 24.2226 24.53 24.2226C23.7933 24.2226 23.3117 23.6439 23.3117 22.7529C23.3117 21.8849 23.775 21.3316 24.5933 21.2478L26.2367 21.093Z" fill="black"/>
</svg>
