<svg width="34" height="32" viewBox="0 0 34 32" fill="none" xmlns="http://www.w3.org/2000/svg">
<path id="Vector" d="M30.6 4.36364H25.5221L23.0044 0.323636C22.9424 0.224265 22.8585 0.142756 22.7601 0.08631C22.6616 0.0298644 22.5517 0.000221174 22.44 0H11.56C11.4483 0.000221174 11.3384 0.0298644 11.2399 0.08631C11.1415 0.142756 11.0576 0.224265 10.9956 0.323636L8.4745 4.36364H3.4C2.49826 4.36364 1.63346 4.74675 0.995837 5.4287C0.358213 6.11065 0 7.03558 0 8V28.3636C0 29.3281 0.358213 30.253 0.995837 30.9349C1.63346 31.6169 2.49826 32 3.4 32H30.6C31.5017 32 32.3665 31.6169 33.0042 30.9349C33.6418 30.253 34 29.3281 34 28.3636V8C34 7.03558 33.6418 6.11065 33.0042 5.4287C32.3665 4.74675 31.5017 4.36364 30.6 4.36364ZM32.64 28.3636C32.64 28.9423 32.4251 29.4972 32.0425 29.9064C31.6599 30.3156 31.141 30.5455 30.6 30.5455H3.4C2.85896 30.5455 2.34008 30.3156 1.9575 29.9064C1.57493 29.4972 1.36 28.9423 1.36 28.3636V8C1.36 7.42135 1.57493 6.86639 1.9575 6.45722C2.34008 6.04805 2.85896 5.81818 3.4 5.81818H8.84C8.95198 5.81826 9.06225 5.78876 9.161 5.7323C9.25976 5.67584 9.34395 5.59417 9.4061 5.49455L11.9221 1.45455H22.0745L24.5939 5.49455C24.656 5.59417 24.7402 5.67584 24.839 5.7323C24.9378 5.78876 25.048 5.81826 25.16 5.81818H30.6C31.141 5.81818 31.6599 6.04805 32.0425 6.45722C32.4251 6.86639 32.64 7.42135 32.64 8V28.3636ZM17 10.1818C15.6551 10.1818 14.3404 10.6084 13.2221 11.4075C12.1039 12.2066 11.2323 13.3425 10.7176 14.6714C10.2029 16.0003 10.0683 17.4626 10.3307 18.8734C10.593 20.2842 11.2407 21.58 12.1917 22.5971C13.1427 23.6143 14.3543 24.3069 15.6734 24.5875C16.9925 24.8682 18.3597 24.7241 19.6022 24.1737C20.8448 23.6232 21.9068 22.6911 22.654 21.4951C23.4012 20.2991 23.8 18.893 23.8 17.4545C23.8 15.5257 23.0836 13.6759 21.8083 12.312C20.5331 10.9481 18.8035 10.1818 17 10.1818ZM17 23.2727C15.9241 23.2727 14.8723 22.9315 13.9777 22.2922C13.0831 21.6529 12.3858 20.7442 11.9741 19.6811C11.5624 18.6179 11.4546 17.4481 11.6645 16.3195C11.8744 15.1909 12.3925 14.1542 13.1533 13.3405C13.9141 12.5268 14.8835 11.9727 15.9387 11.7482C16.994 11.5237 18.0878 11.6389 19.0818 12.0792C20.0758 12.5196 20.9254 13.2653 21.5232 14.2221C22.1209 15.1789 22.44 16.3038 22.44 17.4545C22.44 18.9976 21.8669 20.4775 20.8467 21.5686C19.8265 22.6597 18.4428 23.2727 17 23.2727Z" fill="black"/>
</svg>
