<svg width="27" height="23" viewBox="0 0 27 23" fill="none" xmlns="http://www.w3.org/2000/svg">
<path id="Vector" d="M26.5049 19.5228C25.9869 19.0128 19.7099 16.5848 18.5709 16.1268C17.4379 15.6768 16.9859 14.4298 16.9859 14.4298C16.9859 14.4298 16.4759 14.7118 16.4759 13.9198C16.4759 13.1267 16.9859 14.4298 17.4959 11.3718C17.4959 11.3718 18.9109 10.9748 18.6299 7.69175H18.2899C18.2899 7.69175 19.1399 4.18175 18.2899 2.99375C17.4369 1.80575 17.1029 1.01375 15.2299 0.445751C13.3599 -0.121249 14.0399 -0.0082486 12.6819 0.0497514C11.3219 0.106751 10.1899 0.842751 10.1899 1.23775C10.1899 1.23775 9.3399 1.29475 9.0019 1.63475C8.6619 1.97475 8.0959 3.55875 8.0959 3.95475C8.0959 4.35075 8.3789 7.01475 8.6619 7.57875L8.3249 7.68875C8.0419 10.9728 9.4569 11.3708 9.4569 11.3708C9.9669 14.4288 10.4769 13.1258 10.4769 13.9188C10.4769 14.7108 9.9669 14.4288 9.9669 14.4288C9.9669 14.4288 9.5139 15.6748 8.3819 16.1258C7.2499 16.5788 0.965903 19.0128 0.454903 19.5218C-0.0550975 20.0418 0.00190245 22.4178 0.00190245 22.4178H12.0379L12.9159 18.9578L12.1359 18.1778L13.4789 16.8328L14.8219 18.1768L14.0419 18.9568L14.9199 22.4168H26.9559C26.9559 22.4168 27.0189 20.0387 26.5029 19.5198L26.5049 19.5228Z" fill="#F1F0ED" fill-opacity="0.929412"/>
</svg>
