<svg width="30" height="28" viewBox="0 0 30 28" fill="none" xmlns="http://www.w3.org/2000/svg">
<path id="Vector" d="M18 7.3823H5.25C2.355 7.3823 0 9.69112 0 12.5294V18.4117C0 21.2499 2.355 23.5588 5.25 23.5588H6.75V26.4999C6.75 26.7977 6.9325 27.0661 7.2125 27.1789C7.305 27.2156 7.4025 27.2352 7.5 27.2352C7.695 27.2352 7.88625 27.1605 8.03 27.0196L11.56 23.5588H18C20.895 23.5588 23.25 21.2499 23.25 18.4117V12.5294C23.25 9.69112 20.895 7.3823 18 7.3823ZM21.75 18.4117C21.75 20.4399 20.0688 22.0882 18 22.0882H11.25C11.0513 22.0882 10.86 22.1654 10.72 22.3039L8.25 24.7254V22.8235C8.25 22.4166 7.915 22.0882 7.5 22.0882H5.25C3.18125 22.0882 1.5 20.4399 1.5 18.4117V12.5294C1.5 10.5012 3.18125 8.85288 5.25 8.85288H18C20.0688 8.85288 21.75 10.5012 21.75 12.5294V18.4117ZM30 5.91171V11.7941C30 14.3149 28.16 16.4472 25.625 16.8651C25.5825 16.8725 25.5413 16.8749 25.5 16.8749C25.14 16.8749 24.8213 16.6213 24.76 16.2622C24.6912 15.8615 24.9662 15.4828 25.375 15.4154C27.185 15.1164 28.5 13.5943 28.5 11.7953V5.91171C28.5 3.88352 26.8188 2.23524 24.75 2.23524H12C10.165 2.23524 8.61125 3.52323 8.3075 5.29896C8.23875 5.6997 7.85625 5.9644 7.44375 5.9019C7.035 5.8345 6.76 5.45582 6.82875 5.05509C7.25375 2.56857 9.42875 0.764648 12 0.764648H24.75C27.645 0.764648 30 3.07347 30 5.91171Z" fill="#F4F4F4"/>
</svg>
