<svg width="20" height="30" viewBox="0 0 20 30" fill="none" xmlns="http://www.w3.org/2000/svg">
<path d="M14.0001 1.5C14.0001 1.20333 14.0881 0.913319 14.2529 0.666645C14.4177 0.419972 14.652 0.227713 14.9261 0.114181C15.2001 0.000649929 15.5017 -0.0290551 15.7927 0.0288228C16.0837 0.0867006 16.351 0.229562 16.5607 0.439341C16.7705 0.649119 16.9134 0.916394 16.9713 1.20737C17.0291 1.49834 16.9994 1.79994 16.8859 2.07403C16.7724 2.34811 16.5801 2.58238 16.3334 2.74721C16.0868 2.91203 15.7968 3 15.5001 3C15.1023 3 14.7207 2.84197 14.4394 2.56066C14.1581 2.27936 14.0001 1.89783 14.0001 1.5ZM11.5151 8.15375C12.4226 13.685 12.0588 17.6238 10.4326 19.8612C10.0341 20.424 9.52345 20.8982 8.93269 21.2538C8.34192 21.6094 7.68389 21.8388 7.00008 21.9275V28H9.00008C9.2653 28 9.51965 28.1054 9.70719 28.2929C9.89472 28.4804 10.0001 28.7348 10.0001 29C10.0001 29.2652 9.89472 29.5196 9.70719 29.7071C9.51965 29.8946 9.2653 30 9.00008 30H3.00008C2.73486 30 2.48051 29.8946 2.29297 29.7071C2.10544 29.5196 2.00008 29.2652 2.00008 29C2.00008 28.7348 2.10544 28.4804 2.29297 28.2929C2.48051 28.1054 2.73486 28 3.00008 28H5.00008V21.9275C4.31639 21.8384 3.65853 21.6088 3.06783 21.2532C2.47712 20.8976 1.96634 20.4237 1.56758 19.8612C-0.0574203 17.6238 -0.42117 13.685 0.48633 8.15375C0.908292 5.62881 1.50175 3.13554 2.26258 0.691251C2.3278 0.490326 2.45498 0.315217 2.62587 0.191035C2.79676 0.0668529 3.00258 -2.1865e-05 3.21383 6.89961e-07H8.78758C8.99883 -2.1865e-05 9.20465 0.0668529 9.37554 0.191035C9.54643 0.315217 9.67361 0.490326 9.73883 0.691251C10.4997 3.13554 11.0931 5.62881 11.5151 8.15375ZM2.72508 7H9.27508C8.90008 5.0525 8.43508 3.27375 8.05258 2H3.94883C3.56633 3.27375 3.10383 5.0525 2.72508 7ZM9.62508 9H2.37508C1.81383 12.75 1.73258 16.6925 3.18133 18.6863C3.82883 19.57 4.75008 20 6.00008 20C7.25008 20 8.17258 19.57 8.81508 18.6863C10.2626 16.6925 10.1826 12.75 9.62508 9ZM18.5001 4C18.2034 4 17.9134 4.08797 17.6667 4.2528C17.4201 4.41762 17.2278 4.65189 17.1143 4.92598C17.0007 5.20006 16.971 5.50166 17.0289 5.79264C17.0868 6.08361 17.2296 6.35088 17.4394 6.56066C17.6492 6.77044 17.9165 6.9133 18.2074 6.97118C18.4984 7.02906 18.8 6.99935 19.0741 6.88582C19.3482 6.77229 19.5825 6.58003 19.7473 6.33336C19.9121 6.08668 20.0001 5.79667 20.0001 5.5C20.0001 5.10218 19.842 4.72064 19.5607 4.43934C19.2794 4.15804 18.8979 4 18.5001 4ZM15.5001 10C15.2034 10 14.9134 10.088 14.6667 10.2528C14.4201 10.4176 14.2278 10.6519 14.1143 10.926C14.0007 11.2001 13.971 11.5017 14.0289 11.7926C14.0868 12.0836 14.2296 12.3509 14.4394 12.5607C14.6492 12.7704 14.9165 12.9133 15.2074 12.9712C15.4984 13.0291 15.8 12.9994 16.0741 12.8858C16.3482 12.7723 16.5825 12.58 16.7473 12.3334C16.9121 12.0867 17.0001 11.7967 17.0001 11.5C17.0001 11.1022 16.842 10.7206 16.5607 10.4393C16.2794 10.158 15.8979 10 15.5001 10Z" fill="black"/>
</svg>
