<svg width="21" height="22" viewBox="0 0 21 22" fill="none" xmlns="http://www.w3.org/2000/svg">
<g id="wpf:message-outline">
<path id="Vector" d="M2.42308 3.38477C1.08554 3.38477 0 4.522 0 5.92323V16.0771C0 17.4783 1.08554 18.6155 2.42308 18.6155H18.5769C19.9145 18.6155 21 17.4783 21 16.0771V5.92323C21 4.522 19.9145 3.38477 18.5769 3.38477H2.42308ZM2.42308 5.07707H18.5769C19.022 5.07707 19.3846 5.457 19.3846 5.92323V6.3463L10.5 11.3708L1.61538 6.3463V5.92323C1.61538 5.457 1.97804 5.07707 2.42308 5.07707ZM1.61538 6.58407L6.89042 10.8944L1.71635 16.4477L8.02685 11.7405L10.5 13.4066L12.974 11.7405L19.2837 16.4477L14.1096 10.8944L19.3846 6.58407V16.0771C19.3801 16.2074 19.3455 16.3346 19.2837 16.4477C19.1504 16.7227 18.8911 16.9232 18.5769 16.9232H2.42308C2.10888 16.9232 1.84962 16.7235 1.71635 16.4477C1.65463 16.3348 1.61998 16.2071 1.61538 16.0771V6.58407Z" fill="black"/>
</g>
</svg>
